<svg width="32" height="32" viewBox="0 0 32 32" fill="none" xmlns="http://www.w3.org/2000/svg">
<g opacity="0.4">
<path opacity="0.4" d="M30 28H26.3158V31H30V28Z" fill="url(#paint0_radial)"/>
<path opacity="0.4" d="M2 31H5.68421V28H2V31Z" fill="url(#paint1_radial)"/>
<path opacity="0.4" d="M26.3158 28H5.68421V31H26.3158V28Z" fill="url(#paint2_linear)"/>
</g>
<path d="M26.5 2.5H5.5C3.84315 2.5 2.5 3.84315 2.5 5.5V26.5C2.5 28.1569 3.84315 29.5 5.5 29.5H26.5C28.1569 29.5 29.5 28.1569 29.5 26.5V5.5C29.5 3.84315 28.1569 2.5 26.5 2.5Z" fill="url(#paint3_linear)"/>
<path opacity="0.35" d="M26.5 3.5H5.5C4.39543 3.5 3.5 4.39543 3.5 5.5V26.5C3.5 27.6046 4.39543 28.5 5.5 28.5H26.5C27.6046 28.5 28.5 27.6046 28.5 26.5V5.5C28.5 4.39543 27.6046 3.5 26.5 3.5Z" stroke="url(#paint4_linear)" stroke-linecap="round" stroke-linejoin="round"/>
<path opacity="0.5" d="M26.5 2.5H5.5C3.84314 2.5 2.5 3.84315 2.5 5.5V26.5C2.5 28.1569 3.84314 29.5 5.5 29.5H26.5C28.1569 29.5 29.5 28.1569 29.5 26.5V5.5C29.5 3.84315 28.1569 2.5 26.5 2.5Z" stroke="#0D52BF" stroke-width="0.999998"/>
<path d="M12.6609 24.6287C19.4538 24.6287 23.1683 19.0012 23.1683 14.1213C23.1683 13.9615 23.165 13.8024 23.1579 13.644C23.8789 13.1227 24.5057 12.4721 25 11.7316C24.3383 12.0257 23.6262 12.2237 22.8792 12.313C23.6417 11.8558 24.2271 11.1326 24.5032 10.2704C23.7897 10.6934 22.9995 11.0008 22.1581 11.1668C21.4842 10.4489 20.5248 10 19.4624 10C17.423 10 15.7691 11.6539 15.7691 13.6926C15.7691 13.9824 15.8015 14.2642 15.8649 14.5346C12.7955 14.3802 10.0739 12.9106 8.25264 10.6761C7.93547 11.2219 7.75259 11.8558 7.75259 12.5323C7.75259 13.8135 8.40456 14.9446 9.39601 15.6063C8.79012 15.5876 8.22096 15.4213 7.72343 15.1445C7.72289 15.1599 7.72289 15.1751 7.72289 15.1916C7.72289 16.9801 8.99586 18.4734 10.6857 18.8118C10.3754 18.8964 10.0489 18.9418 9.71191 18.9418C9.47431 18.9418 9.24282 18.9184 9.01782 18.8752C9.48798 20.3425 10.8513 21.4103 12.4677 21.4402C11.2038 22.4309 9.61147 23.021 7.88093 23.021C7.58321 23.021 7.28908 23.004 7 22.9698C8.63442 24.0175 10.5752 24.6287 12.6611 24.6287" fill="black" fill-opacity="0.15"/>
<path d="M12.6609 24.6287C19.4538 24.6287 23.1683 19.0012 23.1683 14.1213C23.1683 13.9615 23.165 13.8024 23.1579 13.644C23.8789 13.1227 24.5057 12.4721 25 11.7316C24.3383 12.0257 23.6262 12.2237 22.8792 12.313C23.6417 11.8558 24.2271 11.1326 24.5032 10.2704C23.7897 10.6934 22.9995 11.0008 22.1581 11.1668C21.4842 10.4489 20.5248 10 19.4624 10C17.423 10 15.7691 11.6539 15.7691 13.6926C15.7691 13.9824 15.8015 14.2642 15.8649 14.5346C12.7955 14.3802 10.0739 12.9106 8.25264 10.6761C7.93547 11.2219 7.75259 11.8558 7.75259 12.5323C7.75259 13.8135 8.40456 14.9446 9.39601 15.6063C8.79012 15.5876 8.22096 15.4213 7.72343 15.1445C7.72289 15.1599 7.72289 15.1751 7.72289 15.1916C7.72289 16.9801 8.99586 18.4734 10.6857 18.8118C10.3754 18.8964 10.0489 18.9418 9.71191 18.9418C9.47431 18.9418 9.24282 18.9184 9.01782 18.8752C9.48798 20.3425 10.8513 21.4103 12.4677 21.4402C11.2038 22.4309 9.61147 23.021 7.88093 23.021C7.58321 23.021 7.28908 23.004 7 22.9698C8.63442 24.0175 10.5752 24.6287 12.6611 24.6287" stroke="black" stroke-opacity="0.07"/>
<path d="M12.6609 24.6287C19.4538 24.6287 23.1683 19.0012 23.1683 14.1213C23.1683 13.9615 23.165 13.8024 23.1579 13.644C23.8789 13.1227 24.5057 12.4721 25 11.7316C24.3383 12.0257 23.6262 12.2237 22.8792 12.313C23.6417 11.8558 24.2271 11.1326 24.5032 10.2704C23.7897 10.6934 22.9995 11.0008 22.1581 11.1668C21.4842 10.4489 20.5248 10 19.4624 10C17.423 10 15.7691 11.6539 15.7691 13.6926C15.7691 13.9824 15.8015 14.2642 15.8649 14.5346C12.7955 14.3802 10.0739 12.9106 8.25264 10.6761C7.93547 11.2219 7.75259 11.8558 7.75259 12.5323C7.75259 13.8135 8.40456 14.9446 9.39601 15.6063C8.79012 15.5876 8.22096 15.4213 7.72343 15.1445C7.72289 15.1599 7.72289 15.1751 7.72289 15.1916C7.72289 16.9801 8.99586 18.4734 10.6857 18.8118C10.3754 18.8964 10.0489 18.9418 9.71191 18.9418C9.47431 18.9418 9.24282 18.9184 9.01782 18.8752C9.48798 20.3425 10.8513 21.4103 12.4677 21.4402C11.2038 22.4309 9.61147 23.021 7.88093 23.021C7.58321 23.021 7.28908 23.004 7 22.9698C8.63442 24.0175 10.5752 24.6287 12.6611 24.6287" fill="black" fill-opacity="0.15"/>
<path d="M12.6609 23.6287C19.4538 23.6287 23.1683 18.0012 23.1683 13.1213C23.1683 12.9615 23.165 12.8024 23.1579 12.644C23.8789 12.1227 24.5057 11.4721 25 10.7316C24.3383 11.0257 23.6262 11.2237 22.8792 11.313C23.6417 10.8558 24.2271 10.1326 24.5032 9.27036C23.7897 9.69336 22.9995 10.0008 22.1581 10.1668C21.4842 9.44892 20.5248 9 19.4624 9C17.423 9 15.7691 10.6539 15.7691 12.6926C15.7691 12.9824 15.8015 13.2642 15.8649 13.5346C12.7955 13.3802 10.0739 11.9106 8.25264 9.67609C7.93547 10.2219 7.75259 10.8558 7.75259 11.5323C7.75259 12.8135 8.40456 13.9446 9.39601 14.6063C8.79012 14.5876 8.22096 14.4213 7.72343 14.1445C7.72289 14.1599 7.72289 14.1751 7.72289 14.1916C7.72289 15.9801 8.99586 17.4734 10.6857 17.8118C10.3754 17.8964 10.0489 17.9418 9.71191 17.9418C9.47431 17.9418 9.24282 17.9184 9.01782 17.8752C9.48798 19.3425 10.8513 20.4103 12.4677 20.4402C11.2038 21.4309 9.61147 22.021 7.88093 22.021C7.58321 22.021 7.28908 22.004 7 21.9698C8.63442 23.0175 10.5752 23.6287 12.6611 23.6287" fill="white"/>
<defs>
<radialGradient id="paint0_radial" cx="0" cy="0" r="1" gradientUnits="userSpaceOnUse" gradientTransform="translate(26.3106 29.5) scale(3.69118 1.5)">
<stop stop-color="#181818"/>
<stop offset="1" stop-color="#181818" stop-opacity="0"/>
</radialGradient>
<radialGradient id="paint1_radial" cx="0" cy="0" r="1" gradientUnits="userSpaceOnUse" gradientTransform="translate(5.68938 29.5) rotate(180) scale(3.69118 1.5)">
<stop stop-color="#181818"/>
<stop offset="1" stop-color="#181818" stop-opacity="0"/>
</radialGradient>
<linearGradient id="paint2_linear" x1="16.7797" y1="31.0119" x2="16.7797" y2="27.9998" gradientUnits="userSpaceOnUse">
<stop stop-color="#181818" stop-opacity="0"/>
<stop offset="0.5" stop-color="#181818"/>
<stop offset="1" stop-color="#181818" stop-opacity="0"/>
</linearGradient>
<linearGradient id="paint3_linear" x1="15.6734" y1="2.90374" x2="15.6734" y2="29.3152" gradientUnits="userSpaceOnUse">
<stop stop-color="#8CD5FF"/>
<stop offset="1" stop-color="#1DA1F2"/>
</linearGradient>
<linearGradient id="paint4_linear" x1="16" y1="4" x2="16" y2="28" gradientUnits="userSpaceOnUse">
<stop stop-color="white"/>
<stop offset="0.0416667" stop-color="white" stop-opacity="0.235294"/>
<stop offset="0.958333" stop-color="white" stop-opacity="0.156863"/>
<stop offset="1" stop-color="white" stop-opacity="0.392157"/>
</linearGradient>
</defs>
</svg>
