<svg width="32" height="32" viewBox="0 0 32 32" fill="none" xmlns="http://www.w3.org/2000/svg">
<g opacity="0.4">
<path opacity="0.4" d="M30 28H26.3158V31H30V28Z" fill="url(#paint0_radial)"/>
<path opacity="0.4" d="M1.99999 31H5.6842V28H1.99999V31Z" fill="url(#paint1_radial)"/>
<path opacity="0.4" d="M26.3158 28H5.6842V31H26.3158V28Z" fill="url(#paint2_linear)"/>
</g>
<path d="M26.5 2.5H5.5C3.84315 2.5 2.5 3.84315 2.5 5.5V26.5C2.5 28.1569 3.84315 29.5 5.5 29.5H26.5C28.1569 29.5 29.5 28.1569 29.5 26.5V5.5C29.5 3.84315 28.1569 2.5 26.5 2.5Z" fill="url(#paint3_linear)"/>
<path opacity="0.35" d="M26.5 3.5H5.5C4.39543 3.5 3.5 4.39543 3.5 5.5V26.5C3.5 27.6046 4.39543 28.5 5.5 28.5H26.5C27.6046 28.5 28.5 27.6046 28.5 26.5V5.5C28.5 4.39543 27.6046 3.5 26.5 3.5Z" stroke="url(#paint4_linear)" stroke-linecap="round" stroke-linejoin="round"/>
<path d="M26.5 2.5H5.5C3.84315 2.5 2.5 3.84315 2.5 5.5V26.5C2.5 28.1569 3.84315 29.5 5.5 29.5H26.5C28.1569 29.5 29.5 28.1569 29.5 26.5V5.5C29.5 3.84315 28.1569 2.5 26.5 2.5Z" stroke="#ABACAE" stroke-width="0.999998"/>
<path d="M20 25.4949C18.9 25.4157 18.1867 25.2511 17.8614 24.9996C17.536 24.7492 17.3733 24.0988 17.3733 23.0511V10.9492C17.3733 9.9484 17.536 9.30439 17.8614 9.01638C18.1867 8.72838 18.9 8.5578 20 8.50457V8H12V8.50461C13.1 8.5578 13.8128 8.72863 14.1389 9.01643C14.4646 9.30422 14.6272 9.94844 14.6272 10.9493V23.0512C14.6272 24.0988 14.4646 24.7492 14.1389 24.9996C13.8128 25.2512 13.1 25.4156 12 25.495V26H20V25.4949V25.4949Z" fill="black" fill-opacity="0.15" stroke="black" stroke-opacity="0.07"/>
<path d="M20 25.4949C18.9 25.4157 18.1867 25.2511 17.8614 24.9996C17.536 24.7492 17.3733 24.0988 17.3733 23.0511V10.9492C17.3733 9.9484 17.536 9.30439 17.8614 9.01638C18.1867 8.72838 18.9 8.5578 20 8.50457V8H12V8.50461C13.1 8.5578 13.8128 8.72863 14.1389 9.01643C14.4646 9.30422 14.6272 9.94844 14.6272 10.9493V23.0512C14.6272 24.0988 14.4646 24.7492 14.1389 24.9996C13.8128 25.2512 13.1 25.4156 12 25.495V26H20V25.4949V25.4949Z" fill="black" fill-opacity="0.15"/>
<path d="M20 24.4949C18.9 24.4157 18.1867 24.2511 17.8614 23.9996C17.536 23.7492 17.3733 23.0988 17.3733 22.0511V9.94922C17.3733 8.9484 17.536 8.30439 17.8614 8.01638C18.1867 7.72838 18.9 7.5578 20 7.50457V7H12V7.50461C13.1 7.5578 13.8128 7.72863 14.1389 8.01643C14.4646 8.30422 14.6272 8.94844 14.6272 9.94926V22.0512C14.6272 23.0988 14.4646 23.7492 14.1389 23.9996C13.8128 24.2512 13.1 24.4156 12 24.495V25H20V24.4949V24.4949Z" fill="black"/>
<defs>
<radialGradient id="paint0_radial" cx="0" cy="0" r="1" gradientUnits="userSpaceOnUse" gradientTransform="translate(26.3106 29.5) scale(3.69118 1.5)">
<stop stop-color="#181818"/>
<stop offset="1" stop-color="#181818" stop-opacity="0"/>
</radialGradient>
<radialGradient id="paint1_radial" cx="0" cy="0" r="1" gradientUnits="userSpaceOnUse" gradientTransform="translate(5.68938 29.5) rotate(180) scale(3.69118 1.5)">
<stop stop-color="#181818"/>
<stop offset="1" stop-color="#181818" stop-opacity="0"/>
</radialGradient>
<linearGradient id="paint2_linear" x1="16.7796" y1="31.0119" x2="16.7796" y2="27.9998" gradientUnits="userSpaceOnUse">
<stop stop-color="#181818" stop-opacity="0"/>
<stop offset="0.5" stop-color="#181818"/>
<stop offset="1" stop-color="#181818" stop-opacity="0"/>
</linearGradient>
<linearGradient id="paint3_linear" x1="15.6734" y1="2.90374" x2="15.6734" y2="29.3152" gradientUnits="userSpaceOnUse">
<stop stop-color="#FAFAFA"/>
<stop offset="1" stop-color="#D4D4D4"/>
</linearGradient>
<linearGradient id="paint4_linear" x1="16" y1="4" x2="16" y2="28" gradientUnits="userSpaceOnUse">
<stop stop-color="white"/>
<stop offset="0.0416667" stop-color="white" stop-opacity="0.235294"/>
<stop offset="0.958333" stop-color="white" stop-opacity="0.156863"/>
<stop offset="1" stop-color="white" stop-opacity="0.392157"/>
</linearGradient>
</defs>
</svg>
