<svg width="64" height="64" viewBox="0 0 64 64" fill="none" xmlns="http://www.w3.org/2000/svg">
<g clip-path="url(#clip0)">
<path d="M20.05 0.000151097C19.2605 0.00133399 18.0401 0.0116845 18.0401 0.0116845C18.0481 2.30168 18.0477 4.58326 18.0401 6.22363C20.8226 6.09909 23.6411 6.29474 26.4575 6.81566C44.4968 10.1522 57.2613 26.6178 56.3968 44.997C57.8419 44.9971 60.7099 44.9969 62.9561 45C63.4939 33.0553 59.0738 21.2385 50.3958 12.5338C43.5323 5.6492 35.3486 1.58833 25.5127 0.187868C24.6191 0.0606284 22.7307 -0.00354546 20.05 0.000151097ZM18.6385 13.6659C18.4257 13.6696 18.2124 13.6749 18 13.6832C18.0481 16.5261 18.0481 18.5566 18.0229 20.4121C18.33 20.4069 18.6741 20.4062 19.0765 20.4063C21.4414 20.4073 22.7525 20.5638 24.8685 21.0994C31.5072 22.7798 37.1609 27.4236 40.2032 33.6937C41.7284 36.837 42.4828 39.9346 42.5824 43.4751C42.5968 43.985 42.5961 44.4926 42.5795 44.9971C44.6867 44.9971 47.0575 44.9971 49.2448 44.9855C49.2611 43.4141 49.2184 41.5312 49.1245 40.7345C48.5456 35.8211 46.9891 31.4491 44.3947 27.45C39.9709 20.6309 33.0415 15.8777 25.1863 14.2724C23.0114 13.8279 20.8166 13.6275 18.6384 13.6659L18.6385 13.6659Z" fill="#ABACAE" stroke="black" stroke-width="0.00732231" stroke-linejoin="round"/>
<path d="M16.7848 62.9844C15.986 62.9134 15.1701 62.8037 14.5615 62.6856C8.2178 61.4544 2.97793 56.8644 0.920822 50.7366C0.27659 48.8176 0.00265126 47.1186 2.57783e-05 45.026C-0.00189278 43.4778 0.102978 42.4812 0.416175 41.0725C1.88996 34.4434 7.03619 29.1607 13.615 27.5236C14.9745 27.1853 16.0645 27.0421 17.5548 27.0059C20.5112 26.9341 23.2363 27.5211 25.8631 28.7956C32.3413 31.9389 36.3368 38.6791 35.9776 45.8583C35.873 47.9496 35.4852 49.7533 34.735 51.637C33.5657 54.5734 31.6913 57.107 29.2338 59.0731C26.6029 61.1779 23.47 62.4891 20.0926 62.899C19.4936 62.9717 17.2837 63.0288 16.7848 62.9844V62.9844ZM24.4814 44.7808C26.1322 44.3488 27.4886 43.0956 28.0445 41.4886C28.967 38.8226 27.5689 35.907 24.9169 34.9663C22.4524 34.092 19.7745 35.1716 18.6025 37.512C17.8558 39.0033 17.8548 40.5828 18.5999 42.0898C19.314 43.5342 20.562 44.4975 22.1657 44.8422C22.7805 44.9744 23.85 44.946 24.4814 44.7808L24.4814 44.7808Z" fill="#ABACAE"/>
</g>
<defs>
<clipPath id="clip0">
<rect width="64" height="64" fill="white"/>
</clipPath>
</defs>
</svg>
