<svg width="32" height="32" viewBox="0 0 32 32" fill="none" xmlns="http://www.w3.org/2000/svg">
<g opacity="0.4">
<path opacity="0.4" d="M30 28H26.3158V31H30V28Z" fill="url(#paint0_radial)"/>
<path opacity="0.4" d="M2 31H5.68421V28H2V31Z" fill="url(#paint1_radial)"/>
<path opacity="0.4" d="M26.3158 28H5.68421V31H26.3158V28Z" fill="url(#paint2_linear)"/>
</g>
<path d="M26.5 2.5H5.5C3.84315 2.5 2.5 3.84315 2.5 5.5V26.5C2.5 28.1569 3.84315 29.5 5.5 29.5H26.5C28.1569 29.5 29.5 28.1569 29.5 26.5V5.5C29.5 3.84315 28.1569 2.5 26.5 2.5Z" fill="url(#paint3_linear)"/>
<path opacity="0.35" d="M26.5 3.5H5.5C4.39543 3.5 3.5 4.39543 3.5 5.5V26.5C3.5 27.6046 4.39543 28.5 5.5 28.5H26.5C27.6046 28.5 28.5 27.6046 28.5 26.5V5.5C28.5 4.39543 27.6046 3.5 26.5 3.5Z" stroke="url(#paint4_linear)" stroke-linecap="round" stroke-linejoin="round"/>
<path d="M26.5 2.5H5.5C3.84315 2.5 2.5 3.84315 2.5 5.5V26.5C2.5 28.1569 3.84315 29.5 5.5 29.5H26.5C28.1569 29.5 29.5 28.1569 29.5 26.5V5.5C29.5 3.84315 28.1569 2.5 26.5 2.5Z" stroke="#ABACAE" stroke-width="0.999998"/>
<path d="M23.2346 10.0044C22.7508 10.0044 22.3485 10.1531 22.0409 10.4468C21.7297 10.7441 21.5723 11.0873 21.5723 11.4666V18.1835C21.5723 19.0852 21.4159 19.7493 21.107 20.1588C20.8085 20.5547 20.3318 20.7472 19.6496 20.7472C18.9518 20.7472 18.476 20.556 18.1951 20.1634C17.9015 19.7536 17.7528 19.0879 17.7528 18.1839V11.4401C17.7528 10.9807 17.548 10.6051 17.1594 10.3539C16.6313 10.0144 16.1058 9.89124 15.4666 10.1083C15.2714 10.175 15.088 10.2612 14.9206 10.3658C14.7424 10.4763 14.5918 10.6154 14.4725 10.7776C14.3405 10.9582 14.2735 11.1546 14.2735 11.3614V18.1832C14.2735 19.0862 14.1249 19.7522 13.8313 20.1624C13.5493 20.5557 13.0736 20.7469 12.3767 20.7469C11.678 20.7469 11.1973 20.5547 10.9076 20.1608C10.6065 19.7509 10.4537 19.0855 10.4537 18.1835V11.4666C10.4537 11.0869 10.2963 10.7438 9.98444 10.4468C9.6765 10.1534 9.26646 10.0044 8.76569 10.0044C8.24997 10.0044 7.82431 10.1517 7.50077 10.4415C7.16876 10.7388 7 11.084 7 11.4666V18.079C7 18.9106 7.07966 19.6975 7.23607 20.4166C7.39671 21.1517 7.67734 21.7972 8.07015 22.3351C8.46686 22.8784 9.00535 23.3072 9.67098 23.6112C10.3298 23.9105 11.1538 24.0625 12.1202 24.0625C13.1273 24.0625 13.9708 23.8717 14.627 23.4963C15.1771 23.1811 15.6405 22.7666 16.0086 22.2615C16.3637 22.7666 16.8163 23.1811 17.3591 23.4957C18.0065 23.8717 18.8633 24.0625 19.9048 24.0625C20.8716 24.0625 21.6917 23.9101 22.343 23.6102C22.9992 23.3065 23.5328 22.8777 23.9302 22.3351C24.3236 21.7955 24.6043 21.1501 24.7639 20.4166C24.9203 19.6975 25 18.9106 25 18.079V11.4663C25 11.0853 24.8364 10.7411 24.5152 10.4435C24.1994 10.1521 23.7686 10.0044 23.2346 10.0044V10.0044Z" fill="black" fill-opacity="0.15" stroke="black" stroke-opacity="0.07"/>
<path d="M23.2346 10.0044C22.7508 10.0044 22.3485 10.1531 22.0409 10.4468C21.7297 10.7441 21.5723 11.0873 21.5723 11.4666V18.1835C21.5723 19.0852 21.4159 19.7493 21.107 20.1588C20.8085 20.5547 20.3318 20.7472 19.6496 20.7472C18.9518 20.7472 18.476 20.556 18.1951 20.1634C17.9015 19.7536 17.7528 19.0879 17.7528 18.1839V11.4401C17.7528 10.9807 17.548 10.6051 17.1594 10.3539C16.6313 10.0144 16.1058 9.89124 15.4666 10.1083C15.2714 10.175 15.088 10.2612 14.9206 10.3658C14.7424 10.4763 14.5918 10.6154 14.4725 10.7776C14.3405 10.9582 14.2735 11.1546 14.2735 11.3614V18.1832C14.2735 19.0862 14.1249 19.7522 13.8313 20.1624C13.5493 20.5557 13.0736 20.7469 12.3767 20.7469C11.678 20.7469 11.1973 20.5547 10.9076 20.1608C10.6065 19.7509 10.4537 19.0855 10.4537 18.1835V11.4666C10.4537 11.0869 10.2963 10.7438 9.98444 10.4468C9.6765 10.1534 9.26646 10.0044 8.76569 10.0044C8.24997 10.0044 7.82431 10.1517 7.50077 10.4415C7.16876 10.7388 7 11.084 7 11.4666V18.079C7 18.9106 7.07966 19.6975 7.23607 20.4166C7.39671 21.1517 7.67734 21.7972 8.07015 22.3351C8.46686 22.8784 9.00535 23.3072 9.67098 23.6112C10.3298 23.9105 11.1538 24.0625 12.1202 24.0625C13.1273 24.0625 13.9708 23.8717 14.627 23.4963C15.1771 23.1811 15.6405 22.7666 16.0086 22.2615C16.3637 22.7666 16.8163 23.1811 17.3591 23.4957C18.0065 23.8717 18.8633 24.0625 19.9048 24.0625C20.8716 24.0625 21.6917 23.9101 22.343 23.6102C22.9992 23.3065 23.5328 22.8777 23.9302 22.3351C24.3236 21.7955 24.6043 21.1501 24.7639 20.4166C24.9203 19.6975 25 18.9106 25 18.079V11.4663C25 11.0853 24.8364 10.7411 24.5152 10.4435C24.1994 10.1521 23.7686 10.0044 23.2346 10.0044V10.0044Z" fill="black" fill-opacity="0.15"/>
<path d="M23.2346 9.00441C22.7508 9.00441 22.3485 9.15314 22.0409 9.44678C21.7297 9.74413 21.5723 10.0873 21.5723 10.4666V17.1835C21.5723 18.0852 21.4159 18.7493 21.107 19.1588C20.8085 19.5547 20.3318 19.7472 19.6496 19.7472C18.9518 19.7472 18.476 19.556 18.1951 19.1634C17.9015 18.7536 17.7528 18.0879 17.7528 17.1839V10.4401C17.7528 9.98075 17.548 9.60508 17.1594 9.35386C16.6313 9.01435 16.1058 8.89124 15.4666 9.10827C15.2714 9.17496 15.088 9.2612 14.9206 9.3658C14.7424 9.47631 14.5918 9.61536 14.4725 9.77764C14.3405 9.95819 14.2735 10.1546 14.2735 10.3614V17.1832C14.2735 18.0862 14.1249 18.7522 13.8313 19.1624C13.5493 19.5557 13.0736 19.7469 12.3767 19.7469C11.678 19.7469 11.1973 19.5547 10.9076 19.1608C10.6065 18.7509 10.4537 18.0855 10.4537 17.1835V10.4666C10.4537 10.0869 10.2963 9.7438 9.98444 9.44678C9.6765 9.15342 9.26646 9.00441 8.76569 9.00441C8.24997 9.00441 7.82431 9.15174 7.50077 9.44147C7.16876 9.73882 7 10.084 7 10.4666V17.079C7 17.9106 7.07966 18.6975 7.23607 19.4166C7.39671 20.1517 7.67734 20.7972 8.07015 21.3351C8.46686 21.8784 9.00535 22.3072 9.67098 22.6112C10.3298 22.9105 11.1538 23.0625 12.1202 23.0625C13.1273 23.0625 13.9708 22.8717 14.627 22.4963C15.1771 22.1811 15.6405 21.7666 16.0086 21.2615C16.3637 21.7666 16.8163 22.1811 17.3591 22.4957C18.0065 22.8717 18.8633 23.0625 19.9048 23.0625C20.8716 23.0625 21.6917 22.9101 22.343 22.6102C22.9992 22.3065 23.5328 21.8777 23.9302 21.3351C24.3236 20.7955 24.6043 20.1501 24.7639 19.4166C24.9203 18.6975 25 17.9106 25 17.079V10.4663C25 10.0853 24.8364 9.74114 24.5152 9.44346C24.1994 9.15209 23.7686 9.00441 23.2346 9.00441V9.00441Z" fill="black"/>
<defs>
<radialGradient id="paint0_radial" cx="0" cy="0" r="1" gradientUnits="userSpaceOnUse" gradientTransform="translate(26.3106 29.5) scale(3.69118 1.5)">
<stop stop-color="#181818"/>
<stop offset="1" stop-color="#181818" stop-opacity="0"/>
</radialGradient>
<radialGradient id="paint1_radial" cx="0" cy="0" r="1" gradientUnits="userSpaceOnUse" gradientTransform="translate(5.68938 29.5) rotate(180) scale(3.69118 1.5)">
<stop stop-color="#181818"/>
<stop offset="1" stop-color="#181818" stop-opacity="0"/>
</radialGradient>
<linearGradient id="paint2_linear" x1="16.7797" y1="31.0119" x2="16.7797" y2="27.9998" gradientUnits="userSpaceOnUse">
<stop stop-color="#181818" stop-opacity="0"/>
<stop offset="0.5" stop-color="#181818"/>
<stop offset="1" stop-color="#181818" stop-opacity="0"/>
</linearGradient>
<linearGradient id="paint3_linear" x1="15.6734" y1="2.90374" x2="15.6734" y2="29.3152" gradientUnits="userSpaceOnUse">
<stop stop-color="#FAFAFA"/>
<stop offset="1" stop-color="#D4D4D4"/>
</linearGradient>
<linearGradient id="paint4_linear" x1="16" y1="4" x2="16" y2="28" gradientUnits="userSpaceOnUse">
<stop stop-color="white"/>
<stop offset="0.0416667" stop-color="white" stop-opacity="0.235294"/>
<stop offset="0.958333" stop-color="white" stop-opacity="0.156863"/>
<stop offset="1" stop-color="white" stop-opacity="0.392157"/>
</linearGradient>
</defs>
</svg>
