<svg width="24" height="24" viewBox="0 0 24 24" fill="none" xmlns="http://www.w3.org/2000/svg">
<g clip-path="url(#clip0)">
<path opacity="0.2" d="M22 21.2502C21.9994 21.5817 20.9192 21.8996 18.9971 22.134C17.0749 22.3683 14.4681 22.5 11.75 22.5C9.03192 22.5 6.42511 22.3683 4.50291 22.134C2.58074 21.8996 1.50058 21.5817 1.5 21.2502C1.49971 21.0861 1.76463 20.9235 2.27961 20.7718C2.79459 20.6201 3.54955 20.4823 4.50139 20.3662C5.45322 20.2501 6.58325 20.158 7.82701 20.0952C9.07072 20.0323 10.4038 20 11.75 20C13.0962 20 14.4293 20.0323 15.673 20.0952C16.9167 20.158 18.0468 20.2501 18.9986 20.3662C19.9504 20.4823 20.7054 20.6201 21.2204 20.7718C21.7354 20.9235 22.0003 21.0861 22 21.2502Z" fill="url(#paint0_radial)"/>
<g opacity="0.7">
<path opacity="0.4" d="M23.25 19.9688H20.2401V23H23.25V19.9688Z" fill="url(#paint1_radial)"/>
<path opacity="0.4" d="M0.375 23H3.38488V19.9688H0.375V23Z" fill="url(#paint2_radial)"/>
<path opacity="0.4" d="M20.2401 19.9688H3.38488V23H20.2401V19.9688Z" fill="url(#paint3_linear)"/>
</g>
<rect x="2" y="2" width="20" height="20" rx="2" fill="url(#paint4_linear)"/>
<rect x="1.5" y="1.5" width="21" height="21" rx="2.5" stroke="#555761" stroke-opacity="0.7"/>
<rect opacity="0.35" x="2.5" y="2.5" width="19" height="19" rx="1.5" stroke="url(#paint5_linear)" stroke-linecap="round" stroke-linejoin="round"/>
<path d="M5 5V6.16667C5 6.80833 5.52967 7.33333 6.16667 7.33333C8.95144 7.33333 11.6222 8.43959 13.5913 10.4087C15.5605 12.3779 16.6667 15.0486 16.6667 17.8333C16.6667 18.475 17.1963 19 17.8333 19H19V17.8333C19 14.4297 17.6478 11.1655 15.2411 8.7588C12.8344 6.35209 9.57028 5 6.16667 5H5ZM5 9.66667V10.8333C5 11.475 5.52967 12 6.16667 12C7.71376 12 9.19762 12.6146 10.2916 13.7086C11.3855 14.8025 12 16.2862 12 17.8333C12 18.475 12.5297 19 13.1667 19H14.3333V17.8333C14.3333 15.6674 13.4729 13.5902 11.9413 12.0586C10.4098 10.5271 8.3326 9.66667 6.16667 9.66667H5ZM7.33333 14.3333C6.71449 14.3333 6.12089 14.5792 5.68331 15.0167C5.24572 15.4543 5 16.0478 5 16.6667C5 17.2855 5.24572 17.879 5.68331 18.3166C6.12089 18.7542 6.71449 19 7.33333 19C7.95217 19 8.54577 18.7542 8.98336 18.3166C9.42094 17.879 9.66667 17.2855 9.66667 16.6667C9.66667 16.0478 9.42094 15.4543 8.98336 15.0167C8.54577 14.5792 7.95217 14.3333 7.33333 14.3333Z" fill="black" fill-opacity="0.15"/>
<path d="M5 5V6.16667C5 6.80833 5.52967 7.33333 6.16667 7.33333C8.95144 7.33333 11.6222 8.43959 13.5913 10.4087C15.5605 12.3779 16.6667 15.0486 16.6667 17.8333C16.6667 18.475 17.1963 19 17.8333 19H19V17.8333C19 14.4297 17.6478 11.1655 15.2411 8.7588C12.8344 6.35209 9.57028 5 6.16667 5H5ZM5 9.66667V10.8333C5 11.475 5.52967 12 6.16667 12C7.71376 12 9.19762 12.6146 10.2916 13.7086C11.3855 14.8025 12 16.2862 12 17.8333C12 18.475 12.5297 19 13.1667 19H14.3333V17.8333C14.3333 15.6674 13.4729 13.5902 11.9413 12.0586C10.4098 10.5271 8.3326 9.66667 6.16667 9.66667H5ZM7.33333 14.3333C6.71449 14.3333 6.12089 14.5792 5.68331 15.0167C5.24572 15.4543 5 16.0478 5 16.6667C5 17.2855 5.24572 17.879 5.68331 18.3166C6.12089 18.7542 6.71449 19 7.33333 19C7.95217 19 8.54577 18.7542 8.98336 18.3166C9.42094 17.879 9.66667 17.2855 9.66667 16.6667C9.66667 16.0478 9.42094 15.4543 8.98336 15.0167C8.54577 14.5792 7.95217 14.3333 7.33333 14.3333Z" fill="black" fill-opacity="0.15" stroke="black" stroke-opacity="0.07"/>
<path d="M5 5V6.16667C5 6.80833 5.52967 7.33333 6.16667 7.33333C8.95144 7.33333 11.6222 8.43959 13.5913 10.4087C15.5605 12.3779 16.6667 15.0486 16.6667 17.8333C16.6667 18.475 17.1963 19 17.8333 19H19V17.8333C19 14.4297 17.6478 11.1655 15.2411 8.7588C12.8344 6.35209 9.57028 5 6.16667 5H5ZM5 9.66667V10.8333C5 11.475 5.52967 12 6.16667 12C7.71376 12 9.19762 12.6146 10.2916 13.7086C11.3855 14.8025 12 16.2862 12 17.8333C12 18.475 12.5297 19 13.1667 19H14.3333V17.8333C14.3333 15.6674 13.4729 13.5902 11.9413 12.0586C10.4098 10.5271 8.3326 9.66667 6.16667 9.66667H5ZM7.33333 14.3333C6.71449 14.3333 6.12089 14.5792 5.68331 15.0167C5.24572 15.4543 5 16.0478 5 16.6667C5 17.2855 5.24572 17.879 5.68331 18.3166C6.12089 18.7542 6.71449 19 7.33333 19C7.95217 19 8.54577 18.7542 8.98336 18.3166C9.42094 17.879 9.66667 17.2855 9.66667 16.6667C9.66667 16.0478 9.42094 15.4543 8.98336 15.0167C8.54577 14.5792 7.95217 14.3333 7.33333 14.3333Z" fill="#333333"/>
<g opacity="0.4" filter="url(#filter0_f)">
<path d="M16.4607 15.9472C16.1853 18.207 15.1222 19.0073 14.625 19.125C20.7058 18.7719 21.7383 12.1808 21.2794 13.2401C20.8205 14.2994 18.7553 14.7702 17.608 14.7702C16.6902 14.7702 16.4607 15.5548 16.4607 15.9472Z" fill="#555761"/>
<path d="M16.4607 15.9472C16.1853 18.207 15.1222 19.0073 14.625 19.125C20.7058 18.7719 21.7383 12.1808 21.2794 13.2401C20.8205 14.2994 18.7553 14.7702 17.608 14.7702C16.6902 14.7702 16.4607 15.5548 16.4607 15.9472Z" stroke="#555761"/>
</g>
<path d="M17.6317 18.8222C17.387 21.082 16.4419 21.8823 16 22C21.4051 21.6469 22.323 15.0558 21.915 16.1151C21.5071 17.1744 19.6714 17.6452 18.6516 17.6452C17.8357 17.6452 17.6317 18.4298 17.6317 18.8222Z" fill="url(#paint6_linear)"/>
<path d="M15.8713 21.5168L16.0326 22.4989C18.9697 22.3071 20.676 20.4112 21.5759 18.7681C22.0263 17.9458 22.2868 17.1679 22.4094 16.6541C22.4664 16.4148 22.5058 16.1833 22.4992 16.0281C22.4992 16.0274 22.4992 16.0267 22.4991 16.0259C22.498 15.9972 22.4935 15.8878 22.4358 15.7769C22.4035 15.7146 22.3127 15.5734 22.1209 15.5192C21.9203 15.4624 21.7621 15.5427 21.6929 15.5901C21.5811 15.6666 21.5245 15.7719 21.5109 15.7973C21.5104 15.7982 21.51 15.799 21.5096 15.7997C21.4854 15.8445 21.4652 15.892 21.4484 15.9354C21.3223 16.263 20.9308 16.5762 20.3301 16.8119C19.7513 17.0391 19.0994 17.1452 18.6516 17.1452C18.0485 17.1452 17.6431 17.4506 17.4115 17.8219C17.2045 18.1536 17.1368 18.53 17.132 18.7923C16.8928 20.9449 16.0185 21.4776 15.8713 21.5168Z" stroke="#555761" stroke-opacity="0.5"/>
</g>
<defs>
<filter id="filter0_f" x="9.50982" y="7.62479" width="17.3651" height="16.9994" filterUnits="userSpaceOnUse" color-interpolation-filters="sRGB">
<feFlood flood-opacity="0" result="BackgroundImageFix"/>
<feBlend mode="normal" in="SourceGraphic" in2="BackgroundImageFix" result="shape"/>
<feGaussianBlur stdDeviation="2.5" result="effect1_foregroundBlur"/>
</filter>
<radialGradient id="paint0_radial" cx="0" cy="0" r="1" gradientUnits="userSpaceOnUse" gradientTransform="translate(11.75 21.2502) scale(10.25 1.25)">
<stop/>
<stop offset="1" stop-opacity="0"/>
</radialGradient>
<radialGradient id="paint1_radial" cx="0" cy="0" r="1" gradientUnits="userSpaceOnUse" gradientTransform="translate(20.2359 21.4844) scale(3.01556 1.5156)">
<stop stop-color="#181818"/>
<stop offset="1" stop-color="#181818" stop-opacity="0"/>
</radialGradient>
<radialGradient id="paint2_radial" cx="0" cy="0" r="1" gradientUnits="userSpaceOnUse" gradientTransform="translate(3.38907 21.4844) rotate(180) scale(3.01556 1.5156)">
<stop stop-color="#181818"/>
<stop offset="1" stop-color="#181818" stop-opacity="0"/>
</radialGradient>
<linearGradient id="paint3_linear" x1="12.4494" y1="23.012" x2="12.4494" y2="19.9686" gradientUnits="userSpaceOnUse">
<stop stop-color="#181818" stop-opacity="0"/>
<stop offset="0.5" stop-color="#181818"/>
<stop offset="1" stop-color="#181818" stop-opacity="0"/>
</linearGradient>
<linearGradient id="paint4_linear" x1="11.7809" y1="2.07909" x2="11.7809" y2="21.9858" gradientUnits="userSpaceOnUse">
<stop stop-color="#FAFAFA"/>
<stop offset="1" stop-color="#D4D4D4"/>
</linearGradient>
<linearGradient id="paint5_linear" x1="12" y1="3.36" x2="12" y2="20.64" gradientUnits="userSpaceOnUse">
<stop stop-color="white"/>
<stop offset="0.0416667" stop-color="white" stop-opacity="0.235294"/>
<stop offset="0.958333" stop-color="white" stop-opacity="0.156863"/>
<stop offset="1" stop-color="white" stop-opacity="0.392157"/>
</linearGradient>
<linearGradient id="paint6_linear" x1="18.9343" y1="16.0237" x2="18.9343" y2="21.9957" gradientUnits="userSpaceOnUse">
<stop stop-color="#FAFAFA"/>
<stop offset="1" stop-color="#D4D4D4"/>
</linearGradient>
<clipPath id="clip0">
<rect width="24" height="24" fill="white"/>
</clipPath>
</defs>
</svg>
