<svg width="24" height="24" viewBox="0 0 24 24" fill="none" xmlns="http://www.w3.org/2000/svg">
<g clip-path="url(#clip0)">
<g opacity="0.6">
<path opacity="0.6" d="M22.9375 20.8125H19.9375V23.0625H22.9375V20.8125Z" fill="url(#paint0_radial)"/>
<path opacity="0.6" d="M0.9375 23.0625H3.9375V20.8125H0.9375V23.0625Z" fill="url(#paint1_radial)"/>
<path opacity="0.6" d="M19.9375 20.8125H3.9375V23.0625H19.9375V20.8125Z" fill="url(#paint2_linear)"/>
</g>
<path opacity="0.2" d="M22.3125 22.1249C22.312 22.4233 21.2253 22.7094 19.2914 22.9203C17.3575 23.1313 14.7347 23.2498 12 23.2498C9.26526 23.2498 6.6425 23.1313 4.70858 22.9203C2.77466 22.7094 1.68797 22.4233 1.6875 22.1249C1.68727 21.9772 1.95384 21.8309 2.47199 21.6944C2.99014 21.5579 3.74971 21.4338 4.70734 21.3293C5.66497 21.2248 6.80189 21.142 8.05317 21.0854C9.30446 21.0289 10.6456 20.9998 12 20.9998C13.3544 20.9998 14.6955 21.0289 15.9468 21.0854C17.1981 21.142 18.335 21.2248 19.2927 21.3293C20.2503 21.4338 21.0099 21.5579 21.528 21.6944C22.0462 21.8309 22.3127 21.9772 22.3125 22.1249V22.1249Z" fill="url(#paint3_radial)"/>
<path d="M19.7812 2.90625H4.21875C3.18322 2.90625 2.34375 3.74572 2.34375 4.78125V20.3438C2.34375 21.3793 3.18322 22.2188 4.21875 22.2188H19.7812C20.8168 22.2188 21.6562 21.3793 21.6562 20.3438V4.78125C21.6562 3.74572 20.8168 2.90625 19.7812 2.90625Z" fill="url(#paint4_linear)"/>
<path opacity="0.3" d="M19.7812 3.09375H4.21875C3.28677 3.09375 2.53125 3.84927 2.53125 4.78125V20.3438C2.53125 21.2757 3.28677 22.0312 4.21875 22.0312H19.7812C20.7132 22.0312 21.4688 21.2757 21.4688 20.3438V4.78125C21.4688 3.84927 20.7132 3.09375 19.7812 3.09375Z" stroke="url(#paint5_linear)" stroke-width="0.5" stroke-linecap="round" stroke-linejoin="round"/>
<path opacity="0.5" d="M19.7812 2.90625H4.21875C3.18322 2.90625 2.34375 3.74572 2.34375 4.78125V20.3438C2.34375 21.3793 3.18322 22.2188 4.21875 22.2188H19.7812C20.8168 22.2188 21.6562 21.3793 21.6562 20.3438V4.78125C21.6562 3.74572 20.8168 2.90625 19.7812 2.90625Z" stroke="#7E8087" stroke-width="0.5" stroke-linecap="round" stroke-linejoin="round"/>
<path d="M19.7057 2.8125H4.2943C3.26882 2.8125 2.4375 3.64382 2.4375 4.6693V20.0807C2.4375 21.1062 3.26882 21.9375 4.2943 21.9375H19.7057C20.7312 21.9375 21.5625 21.1062 21.5625 20.0807V4.6693C21.5625 3.64382 20.7312 2.8125 19.7057 2.8125Z" fill="url(#paint6_linear)"/>
<path opacity="0.3" d="M19.7042 3H4.29579C3.37304 3 2.625 3.74804 2.625 4.67079V20.0792C2.625 21.002 3.37304 21.75 4.29579 21.75H19.7042C20.627 21.75 21.375 21.002 21.375 20.0792V4.67079C21.375 3.74804 20.627 3 19.7042 3Z" stroke="url(#paint7_linear)" stroke-width="0.5" stroke-linecap="round" stroke-linejoin="round"/>
<path opacity="0.5" d="M19.7057 2.8125H4.2943C3.26882 2.8125 2.4375 3.64382 2.4375 4.6693V20.0807C2.4375 21.1062 3.26882 21.9375 4.2943 21.9375H19.7057C20.7312 21.9375 21.5625 21.1062 21.5625 20.0807V4.6693C21.5625 3.64382 20.7312 2.8125 19.7057 2.8125Z" stroke="#7E8087" stroke-linecap="round" stroke-linejoin="round"/>
<path d="M19.7057 2.8125H4.2943C3.26882 2.8125 2.4375 3.62752 2.4375 4.63289V19.7421C2.4375 20.7475 3.26882 21.5625 4.2943 21.5625H19.7057C20.7312 21.5625 21.5625 20.7475 21.5625 19.7421V4.63289C21.5625 3.62752 20.7312 2.8125 19.7057 2.8125Z" fill="url(#paint8_linear)"/>
<path opacity="0.3" d="M19.7042 3H4.29579C3.37304 3 2.625 3.73308 2.625 4.63738V19.7376C2.625 20.6419 3.37304 21.375 4.29579 21.375H19.7042C20.627 21.375 21.375 20.6419 21.375 19.7376V4.63738C21.375 3.73308 20.627 3 19.7042 3Z" stroke="url(#paint9_linear)" stroke-width="0.5" stroke-linecap="round" stroke-linejoin="round"/>
<path opacity="0.5" d="M19.7057 2.8125H4.2943C3.26882 2.8125 2.4375 3.62752 2.4375 4.63289V19.7421C2.4375 20.7475 3.26882 21.5625 4.2943 21.5625H19.7057C20.7312 21.5625 21.5625 20.7475 21.5625 19.7421V4.63289C21.5625 3.62752 20.7312 2.8125 19.7057 2.8125Z" stroke="#7E8087" stroke-linecap="round" stroke-linejoin="round"/>
<path d="M19.7057 3H4.2943C3.26882 3 2.4375 3.79057 2.4375 4.76578V19.4217C2.4375 20.3969 3.26882 21.1875 4.2943 21.1875H19.7057C20.7312 21.1875 21.5625 20.3969 21.5625 19.4217V4.76578C21.5625 3.79057 20.7312 3 19.7057 3Z" fill="url(#paint10_linear)"/>
<path opacity="0.3" d="M19.7042 3.1875H4.29579C3.37304 3.1875 2.625 3.89814 2.625 4.77475V19.4127C2.625 20.2894 3.37304 21 4.29579 21H19.7042C20.627 21 21.375 20.2894 21.375 19.4127V4.77475C21.375 3.89814 20.627 3.1875 19.7042 3.1875Z" stroke="url(#paint11_linear)" stroke-width="0.5" stroke-linecap="round" stroke-linejoin="round"/>
<path opacity="0.5" d="M19.7057 3H4.2943C3.26882 3 2.4375 3.79057 2.4375 4.76578V19.4217C2.4375 20.3969 3.26882 21.1875 4.2943 21.1875H19.7057C20.7312 21.1875 21.5625 20.3969 21.5625 19.4217V4.76578C21.5625 3.79057 20.7312 3 19.7057 3Z" stroke="#7E8087" stroke-width="0.5" stroke-linecap="round" stroke-linejoin="round"/>
<path d="M19.7057 2.8125H4.2943C3.26882 2.8125 2.4375 3.59492 2.4375 4.56007V19.0649C2.4375 20.0301 3.26882 20.8125 4.2943 20.8125H19.7057C20.7312 20.8125 21.5625 20.0301 21.5625 19.0649V4.56007C21.5625 3.59492 20.7312 2.8125 19.7057 2.8125Z" fill="url(#paint12_linear)"/>
<path opacity="0.3" d="M19.7042 3H4.29579C3.37304 3 2.625 3.70316 2.625 4.57054V19.0545C2.625 19.9218 3.37304 20.625 4.29579 20.625H19.7042C20.627 20.625 21.375 19.9218 21.375 19.0545V4.57054C21.375 3.70316 20.627 3 19.7042 3Z" stroke="url(#paint13_linear)" stroke-linecap="round" stroke-linejoin="round"/>
<path opacity="0.5" d="M19.7057 2.8125H4.2943C3.26882 2.8125 2.4375 3.59492 2.4375 4.56007V19.0649C2.4375 20.0301 3.26882 20.8125 4.2943 20.8125H15.359C16.5099 20.8125 17.0715 18.6012 17.7244 17.6534C18.6197 16.3536 21.5625 16.394 21.5625 14.8157V4.56007C21.5625 3.59492 20.7312 2.8125 19.7057 2.8125Z" stroke="#7E8087" stroke-linecap="round" stroke-linejoin="round"/>
<path d="M6 6.1875V7.1875C6 7.7375 6.454 8.1875 7 8.1875C9.38695 8.1875 11.6762 9.13572 13.364 10.8235C15.0518 12.5114 16 14.8006 16 17.1875C16 17.7375 16.454 18.1875 17 18.1875H18V17.1875C18 14.2701 16.841 11.4722 14.7781 9.40933C12.7152 7.34643 9.91738 6.1875 7 6.1875H6ZM6 10.1875V11.1875C6 11.7375 6.454 12.1875 7 12.1875C8.32608 12.1875 9.59796 12.7143 10.5356 13.652C11.4733 14.5897 12 15.8614 12 17.1875C12 17.7375 12.454 18.1875 13 18.1875H14V17.1875C14 15.331 13.2625 13.5505 11.9497 12.2378C10.637 10.925 8.85652 10.1875 7 10.1875H6ZM8 14.1875C7.46957 14.1875 6.96077 14.3982 6.58569 14.7733C6.21062 15.1484 6 15.6571 6 16.1875C6 16.7179 6.21062 17.2266 6.58569 17.6017C6.96077 17.9768 7.46957 18.1875 8 18.1875C8.53043 18.1875 9.03923 17.9768 9.41431 17.6017C9.78938 17.2266 10 16.7179 10 16.1875C10 15.6571 9.78938 15.1484 9.41431 14.7733C9.03923 14.3982 8.53043 14.1875 8 14.1875Z" fill="black" fill-opacity="0.15"/>
<path d="M6 6.1875V7.1875C6 7.7375 6.454 8.1875 7 8.1875C9.38695 8.1875 11.6762 9.13572 13.364 10.8235C15.0518 12.5114 16 14.8006 16 17.1875C16 17.7375 16.454 18.1875 17 18.1875H18V17.1875C18 14.2701 16.841 11.4722 14.7781 9.40933C12.7152 7.34643 9.91738 6.1875 7 6.1875H6ZM6 10.1875V11.1875C6 11.7375 6.454 12.1875 7 12.1875C8.32608 12.1875 9.59796 12.7143 10.5356 13.652C11.4733 14.5897 12 15.8614 12 17.1875C12 17.7375 12.454 18.1875 13 18.1875H14V17.1875C14 15.331 13.2625 13.5505 11.9497 12.2378C10.637 10.925 8.85652 10.1875 7 10.1875H6ZM8 14.1875C7.46957 14.1875 6.96077 14.3982 6.58569 14.7733C6.21062 15.1484 6 15.6571 6 16.1875C6 16.7179 6.21062 17.2266 6.58569 17.6017C6.96077 17.9768 7.46957 18.1875 8 18.1875C8.53043 18.1875 9.03923 17.9768 9.41431 17.6017C9.78938 17.2266 10 16.7179 10 16.1875C10 15.6571 9.78938 15.1484 9.41431 14.7733C9.03923 14.3982 8.53043 14.1875 8 14.1875Z" fill="black" fill-opacity="0.15" stroke="black" stroke-opacity="0.07"/>
<path d="M6 6V7C6 7.55 6.454 8 7 8C9.38695 8 11.6762 8.94822 13.364 10.636C15.0518 12.3239 16 14.6131 16 17C16 17.55 16.454 18 17 18H18V17C18 14.0826 16.841 11.2847 14.7781 9.22183C12.7152 7.15893 9.91738 6 7 6H6ZM6 10V11C6 11.55 6.454 12 7 12C8.32608 12 9.59796 12.5268 10.5356 13.4645C11.4733 14.4022 12 15.6739 12 17C12 17.55 12.454 18 13 18H14V17C14 15.1435 13.2625 13.363 11.9497 12.0503C10.637 10.7375 8.85652 10 7 10H6ZM8 14C7.46957 14 6.96077 14.2107 6.58569 14.5858C6.21062 14.9609 6 15.4696 6 16C6 16.5304 6.21062 17.0391 6.58569 17.4142C6.96077 17.7893 7.46957 18 8 18C8.53043 18 9.03923 17.7893 9.41431 17.4142C9.78938 17.0391 10 16.5304 10 16C10 15.4696 9.78938 14.9609 9.41431 14.5858C9.03923 14.2107 8.53043 14 8 14Z" fill="#333333"/>
<g filter="url(#filter0_dd)">
<path d="M17.4672 18.2305C17.2378 20.0666 16.3518 20.7169 15.9375 20.8125C21.0048 20.5256 21.8653 15.1704 21.4828 16.031C21.1004 16.8917 19.3794 17.2742 18.4233 17.2742C17.6585 17.2742 17.4672 17.9117 17.4672 18.2305Z" fill="url(#paint14_linear)"/>
<path d="M17.4672 18.2305C17.2378 20.0666 16.3518 20.7169 15.9375 20.8125C21.0048 20.5256 21.8653 15.1704 21.4828 16.031C21.1004 16.8917 19.3794 17.2742 18.4233 17.2742C17.6585 17.2742 17.4672 17.9117 17.4672 18.2305Z" stroke="#818389"/>
</g>
</g>
<defs>
<filter id="filter0_dd" x="8.82504" y="8.43732" width="19.2374" height="22.8744" filterUnits="userSpaceOnUse" color-interpolation-filters="sRGB">
<feFlood flood-opacity="0" result="BackgroundImageFix"/>
<feColorMatrix in="SourceAlpha" type="matrix" values="0 0 0 0 0 0 0 0 0 0 0 0 0 0 0 0 0 0 127 0" result="hardAlpha"/>
<feOffset dx="-2" dy="-2"/>
<feGaussianBlur stdDeviation="2.5"/>
<feComposite in2="hardAlpha" operator="out"/>
<feColorMatrix type="matrix" values="0 0 0 0 0 0 0 0 0 0 0 0 0 0 0 0 0 0 0.2 0"/>
<feBlend mode="normal" in2="BackgroundImageFix" result="effect1_dropShadow"/>
<feColorMatrix in="SourceAlpha" type="matrix" values="0 0 0 0 0 0 0 0 0 0 0 0 0 0 0 0 0 0 127 0" result="hardAlpha"/>
<feOffset dy="4"/>
<feGaussianBlur stdDeviation="3"/>
<feComposite in2="hardAlpha" operator="out"/>
<feColorMatrix type="matrix" values="0 0 0 0 0 0 0 0 0 0 0 0 0 0 0 0 0 0 0.4 0"/>
<feBlend mode="normal" in2="effect1_dropShadow" result="effect2_dropShadow"/>
<feBlend mode="normal" in="SourceGraphic" in2="effect2_dropShadow" result="shape"/>
</filter>
<radialGradient id="paint0_radial" cx="0" cy="0" r="1" gradientUnits="userSpaceOnUse" gradientTransform="translate(19.9333 21.9375) scale(3.00568 1.125)">
<stop stop-color="#181818"/>
<stop offset="1" stop-color="#181818" stop-opacity="0"/>
</radialGradient>
<radialGradient id="paint1_radial" cx="0" cy="0" r="1" gradientUnits="userSpaceOnUse" gradientTransform="translate(3.94171 21.9375) rotate(180) scale(3.00568 1.125)">
<stop stop-color="#181818"/>
<stop offset="1" stop-color="#181818" stop-opacity="0"/>
</radialGradient>
<linearGradient id="paint2_linear" x1="12.5421" y1="23.0714" x2="12.5421" y2="20.8123" gradientUnits="userSpaceOnUse">
<stop stop-color="#181818" stop-opacity="0"/>
<stop offset="0.5" stop-color="#181818"/>
<stop offset="1" stop-color="#181818" stop-opacity="0"/>
</linearGradient>
<radialGradient id="paint3_radial" cx="0" cy="0" r="1" gradientUnits="userSpaceOnUse" gradientTransform="translate(12 22.1249) scale(10.3125 1.125)">
<stop/>
<stop offset="1" stop-opacity="0"/>
</radialGradient>
<linearGradient id="paint4_linear" x1="11.7884" y1="2.98262" x2="11.7884" y2="22.2051" gradientUnits="userSpaceOnUse">
<stop stop-color="#FAFAFA"/>
<stop offset="1" stop-color="#D4D4D4"/>
</linearGradient>
<linearGradient id="paint5_linear" x1="12" y1="2.83784" x2="12" y2="22.2872" gradientUnits="userSpaceOnUse">
<stop stop-color="white"/>
<stop offset="0.0631645" stop-color="white" stop-opacity="0.235294"/>
<stop offset="0.950563" stop-color="white" stop-opacity="0.156863"/>
<stop offset="1" stop-color="white" stop-opacity="0.392157"/>
</linearGradient>
<linearGradient id="paint6_linear" x1="11.7905" y1="2.88813" x2="11.7905" y2="21.9239" gradientUnits="userSpaceOnUse">
<stop stop-color="#FAFAFA"/>
<stop offset="1" stop-color="#D4D4D4"/>
</linearGradient>
<linearGradient id="paint7_linear" x1="12" y1="2.74662" x2="12" y2="22.0034" gradientUnits="userSpaceOnUse">
<stop stop-color="white"/>
<stop offset="0.0631645" stop-color="white" stop-opacity="0.235294"/>
<stop offset="0.950563" stop-color="white" stop-opacity="0.156863"/>
<stop offset="1" stop-color="white" stop-opacity="0.392157"/>
</linearGradient>
<linearGradient id="paint8_linear" x1="11.7905" y1="2.88665" x2="11.7905" y2="21.5492" gradientUnits="userSpaceOnUse">
<stop stop-color="#FAFAFA"/>
<stop offset="1" stop-color="#D4D4D4"/>
</linearGradient>
<linearGradient id="paint9_linear" x1="12" y1="2.75169" x2="12" y2="21.6233" gradientUnits="userSpaceOnUse">
<stop stop-color="white"/>
<stop offset="0.0631645" stop-color="white" stop-opacity="0.235294"/>
<stop offset="0.950563" stop-color="white" stop-opacity="0.156863"/>
<stop offset="1" stop-color="white" stop-opacity="0.392157"/>
</linearGradient>
<linearGradient id="paint10_linear" x1="11.7905" y1="3.07192" x2="11.7905" y2="21.1746" gradientUnits="userSpaceOnUse">
<stop stop-color="#FAFAFA"/>
<stop offset="1" stop-color="#D4D4D4"/>
</linearGradient>
<linearGradient id="paint11_linear" x1="12" y1="2.94679" x2="12" y2="21.2407" gradientUnits="userSpaceOnUse">
<stop stop-color="white"/>
<stop offset="0.0631645" stop-color="white" stop-opacity="0.235294"/>
<stop offset="0.950563" stop-color="white" stop-opacity="0.156863"/>
<stop offset="1" stop-color="white" stop-opacity="0.392157"/>
</linearGradient>
<linearGradient id="paint12_linear" x1="11.5504" y1="2.8125" x2="11.5504" y2="20.8125" gradientUnits="userSpaceOnUse">
<stop stop-color="#FAFAFA"/>
<stop offset="1" stop-color="#D4D4D4"/>
</linearGradient>
<linearGradient id="paint13_linear" x1="12" y1="2.76182" x2="12" y2="20.8632" gradientUnits="userSpaceOnUse">
<stop stop-color="white"/>
<stop offset="0.0631645" stop-color="white" stop-opacity="0.235294"/>
<stop offset="0.950563" stop-color="white" stop-opacity="0.156863"/>
<stop offset="1" stop-color="white" stop-opacity="0.392157"/>
</linearGradient>
<linearGradient id="paint14_linear" x1="18.75" y1="15.9375" x2="18.75" y2="20.8125" gradientUnits="userSpaceOnUse">
<stop stop-color="#FAFAFA"/>
<stop offset="1" stop-color="#D4D4D4"/>
</linearGradient>
<clipPath id="clip0">
<rect width="24" height="24" fill="white"/>
</clipPath>
</defs>
</svg>
