<svg width="128" height="128" viewBox="0 0 128 128" fill="none" xmlns="http://www.w3.org/2000/svg">
<g opacity="0.6">
<path opacity="0.6" d="M123.333 107H107.333V119H123.333V107Z" fill="url(#paint0_radial)"/>
<path opacity="0.6" d="M6 119H22V107H6V119Z" fill="url(#paint1_radial)"/>
<path opacity="0.6" d="M107.333 107H22V119H107.333V107Z" fill="url(#paint2_linear)"/>
</g>
<path opacity="0.2" d="M120 114C119.998 115.591 114.202 117.117 103.888 118.242C93.5733 119.367 79.5853 119.999 65 119.999C50.4147 119.999 36.4267 119.367 26.1124 118.242C15.7982 117.117 10.0025 115.591 10 114C9.99877 113.212 11.4205 112.432 14.1839 111.704C16.9474 110.975 20.9985 110.314 26.1058 109.757C31.2132 109.199 37.2767 108.757 43.9502 108.456C50.6238 108.154 57.7765 107.999 65 107.999C72.2235 107.999 79.3762 108.154 86.0498 108.456C92.7233 108.757 98.7868 109.199 103.894 109.757C109.002 110.314 113.053 110.975 115.816 111.704C118.58 112.432 120.001 113.212 120 114Z" fill="url(#paint3_radial)"/>
<path d="M106 12H23C17.4772 12 13 16.4772 13 22V105C13 110.523 17.4772 115 23 115H106C111.523 115 116 110.523 116 105V22C116 16.4772 111.523 12 106 12Z" fill="url(#paint4_linear)"/>
<path d="M106 11.5H23C17.201 11.5 12.5 16.201 12.5 22V105C12.5 110.799 17.201 115.5 23 115.5H106C111.799 115.5 116.5 110.799 116.5 105V22C116.5 16.201 111.799 11.5 106 11.5Z" stroke="#555761" stroke-opacity="0.6"/>
<path d="M106 12H23C17.4772 12 13 16.3902 13 21.8058V103.194C13 108.61 17.4772 113 23 113H106C111.523 113 116 108.61 116 103.194V21.8058C116 16.3902 111.523 12 106 12Z" fill="url(#paint5_linear)"/>
<path d="M106 11.5H23C17.2103 11.5 12.5 16.1049 12.5 21.8058V103.194C12.5 108.895 17.2103 113.5 23 113.5H106C111.79 113.5 116.5 108.895 116.5 103.194V21.8058C116.5 16.1049 111.79 11.5 106 11.5Z" stroke="#555761" stroke-opacity="0.6"/>
<path d="M106 12H23C17.4772 12 13 16.3033 13 21.6117V101.388C13 106.697 17.4772 111 23 111H106C111.523 111 116 106.697 116 101.388V21.6117C116 16.3033 111.523 12 106 12Z" fill="url(#paint6_linear)"/>
<path d="M106 11.5H23C17.2199 11.5 12.5 16.0087 12.5 21.6117V101.388C12.5 106.991 17.2199 111.5 23 111.5H106C111.78 111.5 116.5 106.991 116.5 101.388V21.6117C116.5 16.0087 111.78 11.5 106 11.5Z" stroke="#555761" stroke-opacity="0.6"/>
<path d="M106 12H23C17.4772 12 13 16.2163 13 21.4175V99.5825C13 104.784 17.4772 109 23 109H106C111.523 109 116 104.784 116 99.5825V21.4175C116 16.2163 111.523 12 106 12Z" fill="url(#paint7_linear)"/>
<path d="M106 11.5H23C17.2297 11.5 12.5 15.9124 12.5 21.4175V99.5825C12.5 105.088 17.2297 109.5 23 109.5H106C111.77 109.5 116.5 105.088 116.5 99.5825V21.4175C116.5 15.9124 111.77 11.5 106 11.5Z" stroke="#555761" stroke-opacity="0.6"/>
<path d="M106 12H23C17.4772 12 13 16.1294 13 21.2233V97.7767C13 102.871 17.4772 107 23 107H106C111.523 107 116 102.871 116 97.7767V21.2233C116 16.1294 111.523 12 106 12Z" fill="url(#paint8_linear)"/>
<path d="M106 11.5H23C17.2398 11.5 12.5 15.816 12.5 21.2233V97.7767C12.5 103.184 17.2398 107.5 23 107.5H106C111.76 107.5 116.5 103.184 116.5 97.7767V21.2233C116.5 15.816 111.76 11.5 106 11.5Z" stroke="#555761" stroke-opacity="0.6"/>
<path d="M32 29V34.3333C32 37.2667 34.4213 39.6667 37.3333 39.6667C50.0637 39.6667 62.273 44.7238 71.2747 53.7256C80.2765 62.7273 85.3333 74.9363 85.3333 87.6667C85.3333 90.6 87.7547 93 90.6667 93H96V87.6667C96 72.1073 89.8185 57.1852 78.8164 46.1831C67.8143 35.181 52.8927 29 37.3333 29H32ZM32 50.3333V55.6667C32 58.6 34.4213 61 37.3333 61C44.4058 61 51.1891 63.8096 56.1901 68.8105C61.1911 73.8115 64 80.5942 64 87.6667C64 90.6 66.4213 93 69.3333 93H74.6667V87.6667C74.6667 77.7653 70.7331 68.2694 63.7318 61.2681C56.7304 54.2667 47.2347 50.3333 37.3333 50.3333H32ZM42.6667 71.6667C39.8377 71.6667 37.1241 72.7905 35.1237 74.7909C33.1233 76.7912 32 79.5044 32 82.3333C32 85.1623 33.1233 87.8754 35.1237 89.8758C37.1241 91.8762 39.8377 93 42.6667 93C45.4956 93 48.2092 91.8762 50.2096 89.8758C52.21 87.8754 53.3333 85.1623 53.3333 82.3333C53.3333 79.5044 52.21 76.7912 50.2096 74.7909C48.2092 72.7905 45.4956 71.6667 42.6667 71.6667Z" fill="black" fill-opacity="0.15"/>
<path d="M32 29V34.3333C32 37.2667 34.4213 39.6667 37.3333 39.6667C50.0637 39.6667 62.273 44.7238 71.2747 53.7256C80.2765 62.7273 85.3333 74.9363 85.3333 87.6667C85.3333 90.6 87.7547 93 90.6667 93H96V87.6667C96 72.1073 89.8185 57.1852 78.8164 46.1831C67.8143 35.181 52.8927 29 37.3333 29H32ZM32 50.3333V55.6667C32 58.6 34.4213 61 37.3333 61C44.4058 61 51.1891 63.8096 56.1901 68.8105C61.1911 73.8115 64 80.5942 64 87.6667C64 90.6 66.4213 93 69.3333 93H74.6667V87.6667C74.6667 77.7653 70.7331 68.2694 63.7318 61.2681C56.7304 54.2667 47.2347 50.3333 37.3333 50.3333H32ZM42.6667 71.6667C39.8377 71.6667 37.1241 72.7905 35.1237 74.7909C33.1233 76.7912 32 79.5044 32 82.3333C32 85.1623 33.1233 87.8754 35.1237 89.8758C37.1241 91.8762 39.8377 93 42.6667 93C45.4956 93 48.2092 91.8762 50.2096 89.8758C52.21 87.8754 53.3333 85.1623 53.3333 82.3333C53.3333 79.5044 52.21 76.7912 50.2096 74.7909C48.2092 72.7905 45.4956 71.6667 42.6667 71.6667Z" fill="black" fill-opacity="0.15" stroke="black" stroke-opacity="0.07"/>
<path d="M32 28V33.3333C32 36.2667 34.4213 38.6667 37.3333 38.6667C50.0637 38.6667 62.273 43.7238 71.2747 52.7256C80.2765 61.7273 85.3333 73.9363 85.3333 86.6667C85.3333 89.6 87.7547 92 90.6667 92H96V86.6667C96 71.1073 89.8185 56.1852 78.8164 45.1831C67.8143 34.181 52.8927 28 37.3333 28H32ZM32 49.3333V54.6667C32 57.6 34.4213 60 37.3333 60C44.4058 60 51.1891 62.8096 56.1901 67.8105C61.1911 72.8115 64 79.5942 64 86.6667C64 89.6 66.4213 92 69.3333 92H74.6667V86.6667C74.6667 76.7653 70.7331 67.2694 63.7318 60.2681C56.7304 53.2667 47.2347 49.3333 37.3333 49.3333H32ZM42.6667 70.6667C39.8377 70.6667 37.1241 71.7905 35.1237 73.7909C33.1233 75.7912 32 78.5044 32 81.3333C32 84.1623 33.1233 86.8754 35.1237 88.8758C37.1241 90.8762 39.8377 92 42.6667 92C45.4956 92 48.2092 90.8762 50.2096 88.8758C52.21 86.8754 53.3333 84.1623 53.3333 81.3333C53.3333 78.5044 52.21 75.7912 50.2096 73.7909C48.2092 71.7905 45.4956 70.6667 42.6667 70.6667Z" fill="#333333"/>
<g opacity="0.6" filter="url(#filter0_f)">
<path d="M93.1587 91.2294C91.9349 101.022 87.2096 104.49 85 105C112.026 103.47 116.615 74.9086 114.575 79.4988C112.535 84.089 103.357 86.1291 98.2578 86.1291C94.1785 86.1291 93.1587 89.5293 93.1587 91.2294Z" fill="#555761"/>
<path d="M93.1587 91.2294C91.9349 101.022 87.2096 104.49 85 105C112.026 103.47 116.615 74.9086 114.575 79.4988C112.535 84.089 103.357 86.1291 98.2578 86.1291C94.1785 86.1291 93.1587 89.5293 93.1587 91.2294Z" stroke="#555761"/>
</g>
<g opacity="0.6" filter="url(#filter1_f)">
<path d="M97.255 95.9368C96.3167 103.093 92.6941 105.627 91 106C111.72 104.882 115.238 84.0101 113.674 87.3645C112.111 90.7189 105.074 92.2097 101.164 92.2097C98.0368 92.2097 97.255 94.6945 97.255 95.9368Z" fill="#555761"/>
<path d="M97.255 95.9368C96.3167 103.093 92.6941 105.627 91 106C111.72 104.882 115.238 84.0101 113.674 87.3645C112.111 90.7189 105.074 92.2097 101.164 92.2097C98.0368 92.2097 97.255 94.6945 97.255 95.9368Z" stroke="#555761"/>
</g>
<path d="M94.1587 92.6997C92.9349 102.869 88.2096 106.47 86 107C113.026 105.411 117.615 75.7512 115.575 80.518C113.535 85.2848 104.357 87.4033 99.2578 87.4033C95.1785 87.4033 94.1587 90.9342 94.1587 92.6997Z" fill="url(#paint9_linear)"/>
<path d="M116.204 80.3844C116.204 80.3845 116.203 80.3853 116.202 80.3869C116.203 80.3852 116.204 80.3844 116.204 80.3844ZM115.495 80.2013C115.495 80.2013 115.495 80.2027 115.496 80.2059C115.495 80.203 115.495 80.2014 115.495 80.2013ZM115.115 80.3213L115.491 80.4821L115.115 80.3213C114.184 82.4991 111.561 84.1596 108.397 85.2767C105.265 86.383 101.752 86.9033 99.2578 86.9033C97.0471 86.9033 95.6217 87.8724 94.7676 89.1046C93.9406 90.2976 93.6645 91.7102 93.6588 92.6689C92.4437 102.698 87.8121 106.051 85.8835 106.514L86.0293 107.499C99.7535 106.692 107.787 98.7471 112.114 91.6355C114.276 88.0828 115.521 84.7277 116.098 82.5494C116.382 81.4801 116.519 80.6405 116.498 80.1985C116.493 80.1018 116.479 79.9315 116.394 79.7835C116.345 79.6986 116.239 79.5655 116.048 79.5168C115.856 79.468 115.698 79.5345 115.614 79.5866C115.467 79.6771 115.372 79.8231 115.318 79.9123C115.251 80.023 115.184 80.1612 115.115 80.3213Z" stroke="#555761" stroke-opacity="0.6"/>
<rect opacity="0.35" x="14" y="13" width="101" height="93" rx="8.5" stroke="url(#paint10_linear)" stroke-linecap="round" stroke-linejoin="round"/>
<defs>
<filter id="filter0_f" x="79.8875" y="73.4998" width="40.6124" height="36.9994" filterUnits="userSpaceOnUse" color-interpolation-filters="sRGB">
<feFlood flood-opacity="0" result="BackgroundImageFix"/>
<feBlend mode="normal" in="SourceGraphic" in2="BackgroundImageFix" result="shape"/>
<feGaussianBlur stdDeviation="2.5" result="effect1_foregroundBlur"/>
</filter>
<filter id="filter1_f" x="85.8926" y="81.4998" width="33.6074" height="29.9994" filterUnits="userSpaceOnUse" color-interpolation-filters="sRGB">
<feFlood flood-opacity="0" result="BackgroundImageFix"/>
<feBlend mode="normal" in="SourceGraphic" in2="BackgroundImageFix" result="shape"/>
<feGaussianBlur stdDeviation="2.5" result="effect1_foregroundBlur"/>
</filter>
<radialGradient id="paint0_radial" cx="0" cy="0" r="1" gradientUnits="userSpaceOnUse" gradientTransform="translate(107.311 113) scale(16.0303 6)">
<stop stop-color="#181818"/>
<stop offset="1" stop-color="#181818" stop-opacity="0"/>
</radialGradient>
<radialGradient id="paint1_radial" cx="0" cy="0" r="1" gradientUnits="userSpaceOnUse" gradientTransform="translate(22.0225 113) rotate(180) scale(16.0303 6)">
<stop stop-color="#181818"/>
<stop offset="1" stop-color="#181818" stop-opacity="0"/>
</radialGradient>
<linearGradient id="paint2_linear" x1="67.8913" y1="119.048" x2="67.8913" y2="106.999" gradientUnits="userSpaceOnUse">
<stop stop-color="#181818" stop-opacity="0"/>
<stop offset="0.5" stop-color="#181818"/>
<stop offset="1" stop-color="#181818" stop-opacity="0"/>
</linearGradient>
<radialGradient id="paint3_radial" cx="0" cy="0" r="1" gradientUnits="userSpaceOnUse" gradientTransform="translate(65 114) scale(55 6)">
<stop/>
<stop offset="1" stop-opacity="0"/>
</radialGradient>
<linearGradient id="paint4_linear" x1="63.3716" y1="12.4073" x2="63.3716" y2="114.927" gradientUnits="userSpaceOnUse">
<stop stop-color="#FAFAFA"/>
<stop offset="1" stop-color="#D4D4D4"/>
</linearGradient>
<linearGradient id="paint5_linear" x1="63.3716" y1="12.3994" x2="63.3716" y2="112.928" gradientUnits="userSpaceOnUse">
<stop stop-color="#FAFAFA"/>
<stop offset="1" stop-color="#D4D4D4"/>
</linearGradient>
<linearGradient id="paint6_linear" x1="63.3716" y1="12.3915" x2="63.3716" y2="110.93" gradientUnits="userSpaceOnUse">
<stop stop-color="#FAFAFA"/>
<stop offset="1" stop-color="#D4D4D4"/>
</linearGradient>
<linearGradient id="paint7_linear" x1="63.3716" y1="12.3836" x2="63.3716" y2="108.931" gradientUnits="userSpaceOnUse">
<stop stop-color="#FAFAFA"/>
<stop offset="1" stop-color="#D4D4D4"/>
</linearGradient>
<linearGradient id="paint8_linear" x1="63.3716" y1="12.3757" x2="63.3716" y2="106.933" gradientUnits="userSpaceOnUse">
<stop stop-color="#FAFAFA"/>
<stop offset="1" stop-color="#D4D4D4"/>
</linearGradient>
<linearGradient id="paint9_linear" x1="100.671" y1="80.1068" x2="100.671" y2="106.981" gradientUnits="userSpaceOnUse">
<stop stop-color="#FAFAFA"/>
<stop offset="1" stop-color="#D4D4D4"/>
</linearGradient>
<linearGradient id="paint10_linear" x1="64.5" y1="14.86" x2="64.5" y2="104.14" gradientUnits="userSpaceOnUse">
<stop stop-color="white"/>
<stop offset="0.0416667" stop-color="white" stop-opacity="0.235294"/>
<stop offset="0.958333" stop-color="white" stop-opacity="0.156863"/>
<stop offset="1" stop-color="white" stop-opacity="0.392157"/>
</linearGradient>
</defs>
</svg>
