<svg width="128" height="128" viewBox="0 0 128 128" fill="none" xmlns="http://www.w3.org/2000/svg">
<g opacity="0.6">
<path opacity="0.6" d="M122.333 111H106.333V123H122.333V111Z" fill="url(#paint0_radial)"/>
<path opacity="0.6" d="M5 123H21V111H5V123Z" fill="url(#paint1_radial)"/>
<path opacity="0.6" d="M106.333 111H21V123H106.333V111Z" fill="url(#paint2_linear)"/>
</g>
<path opacity="0.2" d="M119 118C118.998 119.591 113.202 121.117 102.888 122.242C92.5733 123.367 78.5853 123.999 64 123.999C49.4147 123.999 35.4267 123.367 25.1124 122.242C14.7982 121.117 9.00249 119.591 9 118C8.99877 117.212 10.4205 116.432 13.1839 115.704C15.9474 114.975 19.9985 114.314 25.1058 113.757C30.2132 113.199 36.2767 112.757 42.9502 112.456C49.6238 112.154 56.7765 111.999 64 111.999C71.2235 111.999 78.3762 112.154 85.0498 112.456C91.7233 112.757 97.7868 113.199 102.894 113.757C108.002 114.314 112.053 114.975 114.816 115.704C117.58 116.432 119.001 117.212 119 118Z" fill="url(#paint3_radial)"/>
<path d="M105.5 15.5H22.5C16.9772 15.5 12.5 19.9772 12.5 25.5V108.5C12.5 114.023 16.9772 118.5 22.5 118.5H105.5C111.023 118.5 115.5 114.023 115.5 108.5V25.5C115.5 19.9772 111.023 15.5 105.5 15.5Z" fill="url(#paint4_linear)"/>
<path opacity="0.3" d="M105.5 16.5H22.5C17.5294 16.5 13.5 20.5294 13.5 25.5V108.5C13.5 113.471 17.5294 117.5 22.5 117.5H105.5C110.471 117.5 114.5 113.471 114.5 108.5V25.5C114.5 20.5294 110.471 16.5 105.5 16.5Z" stroke="url(#paint5_linear)" stroke-linecap="round" stroke-linejoin="round"/>
<path opacity="0.5" d="M105.5 15.5H22.5C16.9772 15.5 12.5 19.9772 12.5 25.5V108.5C12.5 114.023 16.9772 118.5 22.5 118.5H105.5C111.023 118.5 115.5 114.023 115.5 108.5V25.5C115.5 19.9772 111.023 15.5 105.5 15.5Z" stroke="#7E8087" stroke-linecap="round" stroke-linejoin="round"/>
<path d="M105.097 15H22.9029C17.4337 15 13 19.4337 13 24.9029V107.097C13 112.566 17.4337 117 22.9029 117H105.097C110.566 117 115 112.566 115 107.097V24.9029C115 19.4337 110.566 15 105.097 15Z" fill="url(#paint6_linear)"/>
<path opacity="0.3" d="M105.089 16H22.9109C17.9895 16 14 19.9895 14 24.9109V107.089C14 112.01 17.9895 116 22.9109 116H105.089C110.01 116 114 112.01 114 107.089V24.9109C114 19.9895 110.01 16 105.089 16Z" stroke="url(#paint7_linear)" stroke-linecap="round" stroke-linejoin="round"/>
<path opacity="0.5" d="M105.097 15H22.9029C17.4337 15 13 19.4337 13 24.9029V107.097C13 112.566 17.4337 117 22.9029 117H105.097C110.566 117 115 112.566 115 107.097V24.9029C115 19.4337 110.566 15 105.097 15Z" stroke="#7E8087" stroke-linecap="round" stroke-linejoin="round"/>
<path d="M105.097 15H22.9029C17.4337 15 13 19.3467 13 24.7087V105.291C13 110.653 17.4337 115 22.9029 115H105.097C110.566 115 115 110.653 115 105.291V24.7087C115 19.3467 110.566 15 105.097 15Z" fill="url(#paint8_linear)"/>
<path opacity="0.3" d="M105.089 16H22.9109C17.9895 16 14 19.9098 14 24.7327V105.267C14 110.09 17.9895 114 22.9109 114H105.089C110.01 114 114 110.09 114 105.267V24.7327C114 19.9098 110.01 16 105.089 16Z" stroke="url(#paint9_linear)" stroke-linecap="round" stroke-linejoin="round"/>
<path opacity="0.5" d="M105.097 15H22.9029C17.4337 15 13 19.3467 13 24.7087V105.291C13 110.653 17.4337 115 22.9029 115H105.097C110.566 115 115 110.653 115 105.291V24.7087C115 19.3467 110.566 15 105.097 15Z" stroke="#7E8087" stroke-linecap="round" stroke-linejoin="round"/>
<path d="M105.097 16H22.9029C17.4337 16 13 20.2163 13 25.4175V103.583C13 108.784 17.4337 113 22.9029 113H105.097C110.566 113 115 108.784 115 103.583V25.4175C115 20.2163 110.566 16 105.097 16Z" fill="url(#paint10_linear)"/>
<path opacity="0.3" d="M105.089 17H22.9109C17.9895 17 14 20.7901 14 25.4653V103.535C14 108.21 17.9895 112 22.9109 112H105.089C110.01 112 114 108.21 114 103.535V25.4653C114 20.7901 110.01 17 105.089 17Z" stroke="url(#paint11_linear)" stroke-linecap="round" stroke-linejoin="round"/>
<path opacity="0.5" d="M105.097 16H22.9029C17.4337 16 13 20.2163 13 25.4175V103.583C13 108.784 17.4337 113 22.9029 113H105.097C110.566 113 115 108.784 115 103.583V25.4175C115 20.2163 110.566 16 105.097 16Z" stroke="#7E8087" stroke-linecap="round" stroke-linejoin="round"/>
<path d="M105.097 15H22.9029C17.4337 15 13 19.1729 13 24.3204V101.68C13 106.827 17.4337 111 22.9029 111H105.097C110.566 111 115 106.827 115 101.68V24.3204C115 19.1729 110.566 15 105.097 15Z" fill="url(#paint12_linear)"/>
<path opacity="0.3" d="M105.089 16H22.9109C17.9895 16 14 19.7502 14 24.3762V101.624C14 106.25 17.9895 110 22.9109 110H105.089C110.01 110 114 106.25 114 101.624V24.3762C114 19.7502 110.01 16 105.089 16Z" stroke="url(#paint13_linear)" stroke-linecap="round" stroke-linejoin="round"/>
<path opacity="0.5" d="M105.097 15H22.9029C17.4337 15 13 19.1729 13 24.3204V101.68C13 106.827 17.4337 111 22.9029 111H85.5482C90.7243 111 93.103 101.403 93.7549 96.2682C94.0646 93.829 95.8426 92.2016 98.8205 92.2319C105.918 92.304 115 89.6674 115 82.5691V24.3204C115 19.1729 110.566 15 105.097 15Z" stroke="#7E8087" stroke-linecap="round" stroke-linejoin="round"/>
<path d="M32 33V38.3333C32 41.2667 34.4213 43.6667 37.3333 43.6667C50.0637 43.6667 62.273 48.7238 71.2747 57.7256C80.2765 66.7273 85.3333 78.9363 85.3333 91.6667C85.3333 94.6 87.7547 97 90.6667 97H96V91.6667C96 76.1073 89.8185 61.1852 78.8164 50.1831C67.8143 39.181 52.8927 33 37.3333 33H32ZM32 54.3333V59.6667C32 62.6 34.4213 65 37.3333 65C44.4058 65 51.1891 67.8096 56.1901 72.8105C61.1911 77.8115 64 84.5942 64 91.6667C64 94.6 66.4213 97 69.3333 97H74.6667V91.6667C74.6667 81.7653 70.7331 72.2694 63.7318 65.2681C56.7304 58.2667 47.2347 54.3333 37.3333 54.3333H32ZM42.6667 75.6667C39.8377 75.6667 37.1241 76.7905 35.1237 78.7909C33.1233 80.7912 32 83.5044 32 86.3333C32 89.1623 33.1233 91.8754 35.1237 93.8758C37.1241 95.8762 39.8377 97 42.6667 97C45.4956 97 48.2092 95.8762 50.2096 93.8758C52.21 91.8754 53.3333 89.1623 53.3333 86.3333C53.3333 83.5044 52.21 80.7912 50.2096 78.7909C48.2092 76.7905 45.4956 75.6667 42.6667 75.6667Z" fill="black" fill-opacity="0.15"/>
<path d="M32 33V38.3333C32 41.2667 34.4213 43.6667 37.3333 43.6667C50.0637 43.6667 62.273 48.7238 71.2747 57.7256C80.2765 66.7273 85.3333 78.9363 85.3333 91.6667C85.3333 94.6 87.7547 97 90.6667 97H96V91.6667C96 76.1073 89.8185 61.1852 78.8164 50.1831C67.8143 39.181 52.8927 33 37.3333 33H32ZM32 54.3333V59.6667C32 62.6 34.4213 65 37.3333 65C44.4058 65 51.1891 67.8096 56.1901 72.8105C61.1911 77.8115 64 84.5942 64 91.6667C64 94.6 66.4213 97 69.3333 97H74.6667V91.6667C74.6667 81.7653 70.7331 72.2694 63.7318 65.2681C56.7304 58.2667 47.2347 54.3333 37.3333 54.3333H32ZM42.6667 75.6667C39.8377 75.6667 37.1241 76.7905 35.1237 78.7909C33.1233 80.7912 32 83.5044 32 86.3333C32 89.1623 33.1233 91.8754 35.1237 93.8758C37.1241 95.8762 39.8377 97 42.6667 97C45.4956 97 48.2092 95.8762 50.2096 93.8758C52.21 91.8754 53.3333 89.1623 53.3333 86.3333C53.3333 83.5044 52.21 80.7912 50.2096 78.7909C48.2092 76.7905 45.4956 75.6667 42.6667 75.6667Z" fill="black" fill-opacity="0.15" stroke="black" stroke-opacity="0.07"/>
<path d="M32 32V37.3333C32 40.2667 34.4213 42.6667 37.3333 42.6667C50.0637 42.6667 62.273 47.7238 71.2747 56.7256C80.2765 65.7273 85.3333 77.9363 85.3333 90.6667C85.3333 93.6 87.7547 96 90.6667 96H96V90.6667C96 75.1073 89.8185 60.1852 78.8164 49.1831C67.8143 38.181 52.8927 32 37.3333 32H32ZM32 53.3333V58.6667C32 61.6 34.4213 64 37.3333 64C44.4058 64 51.1891 66.8096 56.1901 71.8105C61.1911 76.8115 64 83.5942 64 90.6667C64 93.6 66.4213 96 69.3333 96H74.6667V90.6667C74.6667 80.7653 70.7331 71.2694 63.7318 64.2681C56.7304 57.2667 47.2347 53.3333 37.3333 53.3333H32ZM42.6667 74.6667C39.8377 74.6667 37.1241 75.7905 35.1237 77.7909C33.1233 79.7912 32 82.5044 32 85.3333C32 88.1623 33.1233 90.8754 35.1237 92.8758C37.1241 94.8762 39.8377 96 42.6667 96C45.4956 96 48.2092 94.8762 50.2096 92.8758C52.21 90.8754 53.3333 88.1623 53.3333 85.3333C53.3333 82.5044 52.21 79.7912 50.2096 77.7909C48.2092 75.7905 45.4956 74.6667 42.6667 74.6667Z" fill="#333333"/>
<g filter="url(#filter0_dd)">
<path d="M93.1587 97.2294C91.9349 107.022 87.2096 110.49 85 111C112.026 109.47 116.615 80.9086 114.575 85.4988C112.535 90.089 103.357 92.1291 98.2578 92.1291C94.1785 92.1291 93.1587 95.5293 93.1587 97.2294Z" fill="url(#paint14_linear)"/>
<path d="M93.1587 97.2294C91.9349 107.022 87.2096 110.49 85 111C112.026 109.47 116.615 80.9086 114.575 85.4988C112.535 90.089 103.357 92.1291 98.2578 92.1291C94.1785 92.1291 93.1587 95.5293 93.1587 97.2294Z" stroke="#ADAEB2"/>
</g>
<defs>
<filter id="filter0_dd" x="77.8876" y="77.4998" width="43.6124" height="43.9994" filterUnits="userSpaceOnUse" color-interpolation-filters="sRGB">
<feFlood flood-opacity="0" result="BackgroundImageFix"/>
<feColorMatrix in="SourceAlpha" type="matrix" values="0 0 0 0 0 0 0 0 0 0 0 0 0 0 0 0 0 0 127 0" result="hardAlpha"/>
<feOffset dx="-2" dy="-2"/>
<feGaussianBlur stdDeviation="2.5"/>
<feComposite in2="hardAlpha" operator="out"/>
<feColorMatrix type="matrix" values="0 0 0 0 0 0 0 0 0 0 0 0 0 0 0 0 0 0 0.2 0"/>
<feBlend mode="normal" in2="BackgroundImageFix" result="effect1_dropShadow"/>
<feColorMatrix in="SourceAlpha" type="matrix" values="0 0 0 0 0 0 0 0 0 0 0 0 0 0 0 0 0 0 127 0" result="hardAlpha"/>
<feOffset dy="4"/>
<feGaussianBlur stdDeviation="3"/>
<feComposite in2="hardAlpha" operator="out"/>
<feColorMatrix type="matrix" values="0 0 0 0 0 0 0 0 0 0 0 0 0 0 0 0 0 0 0.4 0"/>
<feBlend mode="normal" in2="effect1_dropShadow" result="effect2_dropShadow"/>
<feBlend mode="normal" in="SourceGraphic" in2="effect2_dropShadow" result="shape"/>
</filter>
<radialGradient id="paint0_radial" cx="0" cy="0" r="1" gradientUnits="userSpaceOnUse" gradientTransform="translate(106.311 117) scale(16.0303 6)">
<stop stop-color="#181818"/>
<stop offset="1" stop-color="#181818" stop-opacity="0"/>
</radialGradient>
<radialGradient id="paint1_radial" cx="0" cy="0" r="1" gradientUnits="userSpaceOnUse" gradientTransform="translate(21.0225 117) rotate(180) scale(16.0303 6)">
<stop stop-color="#181818"/>
<stop offset="1" stop-color="#181818" stop-opacity="0"/>
</radialGradient>
<linearGradient id="paint2_linear" x1="66.8913" y1="123.048" x2="66.8913" y2="110.999" gradientUnits="userSpaceOnUse">
<stop stop-color="#181818" stop-opacity="0"/>
<stop offset="0.5" stop-color="#181818"/>
<stop offset="1" stop-color="#181818" stop-opacity="0"/>
</linearGradient>
<radialGradient id="paint3_radial" cx="0" cy="0" r="1" gradientUnits="userSpaceOnUse" gradientTransform="translate(64 118) scale(55 6)">
<stop/>
<stop offset="1" stop-opacity="0"/>
</radialGradient>
<linearGradient id="paint4_linear" x1="62.8716" y1="15.9073" x2="62.8716" y2="118.427" gradientUnits="userSpaceOnUse">
<stop stop-color="#FAFAFA"/>
<stop offset="1" stop-color="#D4D4D4"/>
</linearGradient>
<linearGradient id="paint5_linear" x1="64" y1="15.1351" x2="64" y2="118.865" gradientUnits="userSpaceOnUse">
<stop stop-color="white"/>
<stop offset="0.0631645" stop-color="white" stop-opacity="0.235294"/>
<stop offset="0.950563" stop-color="white" stop-opacity="0.156863"/>
<stop offset="1" stop-color="white" stop-opacity="0.392157"/>
</linearGradient>
<linearGradient id="paint6_linear" x1="62.8826" y1="15.4034" x2="62.8826" y2="116.928" gradientUnits="userSpaceOnUse">
<stop stop-color="#FAFAFA"/>
<stop offset="1" stop-color="#D4D4D4"/>
</linearGradient>
<linearGradient id="paint7_linear" x1="64" y1="14.6486" x2="64" y2="117.351" gradientUnits="userSpaceOnUse">
<stop stop-color="white"/>
<stop offset="0.0631645" stop-color="white" stop-opacity="0.235294"/>
<stop offset="0.950563" stop-color="white" stop-opacity="0.156863"/>
<stop offset="1" stop-color="white" stop-opacity="0.392157"/>
</linearGradient>
<linearGradient id="paint8_linear" x1="62.8826" y1="15.3955" x2="62.8826" y2="114.929" gradientUnits="userSpaceOnUse">
<stop stop-color="#FAFAFA"/>
<stop offset="1" stop-color="#D4D4D4"/>
</linearGradient>
<linearGradient id="paint9_linear" x1="64" y1="14.6757" x2="64" y2="115.324" gradientUnits="userSpaceOnUse">
<stop stop-color="white"/>
<stop offset="0.0631645" stop-color="white" stop-opacity="0.235294"/>
<stop offset="0.950563" stop-color="white" stop-opacity="0.156863"/>
<stop offset="1" stop-color="white" stop-opacity="0.392157"/>
</linearGradient>
<linearGradient id="paint10_linear" x1="62.8826" y1="16.3836" x2="62.8826" y2="112.931" gradientUnits="userSpaceOnUse">
<stop stop-color="#FAFAFA"/>
<stop offset="1" stop-color="#D4D4D4"/>
</linearGradient>
<linearGradient id="paint11_linear" x1="64" y1="15.7162" x2="64" y2="113.284" gradientUnits="userSpaceOnUse">
<stop stop-color="white"/>
<stop offset="0.0631645" stop-color="white" stop-opacity="0.235294"/>
<stop offset="0.950563" stop-color="white" stop-opacity="0.156863"/>
<stop offset="1" stop-color="white" stop-opacity="0.392157"/>
</linearGradient>
<linearGradient id="paint12_linear" x1="61.602" y1="15" x2="61.602" y2="111" gradientUnits="userSpaceOnUse">
<stop stop-color="#FAFAFA"/>
<stop offset="1" stop-color="#D4D4D4"/>
</linearGradient>
<linearGradient id="paint13_linear" x1="64" y1="14.7297" x2="64" y2="111.27" gradientUnits="userSpaceOnUse">
<stop stop-color="white"/>
<stop offset="0.0631645" stop-color="white" stop-opacity="0.235294"/>
<stop offset="0.950563" stop-color="white" stop-opacity="0.156863"/>
<stop offset="1" stop-color="white" stop-opacity="0.392157"/>
</linearGradient>
<linearGradient id="paint14_linear" x1="100" y1="85" x2="100" y2="111" gradientUnits="userSpaceOnUse">
<stop stop-color="#FAFAFA"/>
<stop offset="1" stop-color="#D4D4D4"/>
</linearGradient>
</defs>
</svg>
