<svg width="64" height="64" viewBox="0 0 64 64" fill="none" xmlns="http://www.w3.org/2000/svg">
<path d="M10.9746 4.27344C7.19056 4.27344 4.14453 7.32142 4.14453 11.1055V53.7812C4.14453 57.5653 7.19056 60.6113 10.9746 60.6113H53.5644C57.3485 60.6113 60.3945 57.5653 60.3945 53.7812V11.1055C60.3945 7.32142 57.3485 4.27344 53.5644 4.27344H10.9746ZM31.2441 13.3613C35.3261 13.3613 38.3887 14.1322 40.4297 15.6719C42.4706 17.2115 43.4902 19.4581 43.4902 22.4121C43.4902 25.0797 42.7929 27.2452 41.3965 28.9102C40 30.5573 37.8684 31.8294 35.0039 32.7246C36.1318 34.4433 37.1703 36.1075 38.1191 37.7187C39.068 39.3121 39.9463 40.7803 40.7519 42.123C41.5755 43.4479 42.3275 44.6201 43.0078 45.6406C43.6881 46.6611 44.3233 47.4678 44.9141 48.0586C45.2184 48.3629 45.5218 48.6305 45.8262 48.8633C46.1305 49.0781 46.4453 49.2572 46.7676 49.4004C47.1077 49.5436 47.4564 49.6699 47.8144 49.7773C48.1904 49.8848 48.6012 49.9922 49.0488 50.0996L49.1309 51.2812C47.8418 51.4424 46.7581 51.5215 45.8809 51.5215C45.1468 51.5215 44.5023 51.5046 43.9473 51.4687C43.3923 51.4329 42.9004 51.3613 42.4707 51.2539C42.041 51.1465 41.6471 51.0127 41.2891 50.8516C40.9489 50.6725 40.6077 50.4482 40.2676 50.1797C39.5335 49.6247 38.8099 48.8274 38.0937 47.7891C37.3955 46.7328 36.6605 45.5416 35.8906 44.2168C35.1387 42.892 34.3509 41.4879 33.5273 40.0019C32.7038 38.4981 31.8349 37.0299 30.9219 35.5977C30.6533 35.168 30.4215 34.8268 30.2246 34.5762C30.0456 34.3255 29.8402 34.1296 29.6074 33.9863C29.3926 33.8431 29.1325 33.7451 28.8281 33.6914C28.5417 33.6377 28.1647 33.6019 27.6992 33.584L25.8477 33.5293V42.8477V45.748C25.8656 46.6074 25.8825 47.3858 25.9004 48.084C25.9183 48.639 26.152 48.9896 26.5996 49.1328L29.5801 50.0176L29.6602 51.1738C27.5297 51.1201 25.4 51.0918 23.2695 51.0918C21.1032 51.0918 18.8831 51.1201 16.6094 51.1738L16.502 50.0176L19.8047 49.0254C20.2523 48.9001 20.4935 48.6211 20.5293 48.1914C20.5472 47.4753 20.5566 46.68 20.5566 45.8027C20.5745 44.9076 20.584 43.9218 20.584 42.8477V21.0684C20.584 20.1553 20.5745 19.3317 20.5566 18.5977C20.5566 17.8636 20.5472 17.2021 20.5293 16.6113C20.5114 16.1458 20.2965 15.8405 19.8848 15.6973L16.5547 14.6504L16.502 13.4961C18.8115 13.5677 21.058 13.6035 23.2422 13.6035C23.6719 13.6035 24.2184 13.5941 24.8809 13.5762C25.5433 13.5404 26.348 13.5046 27.2969 13.4687C28.2636 13.4329 29.0703 13.4066 29.7148 13.3887C30.3594 13.3708 30.8682 13.3613 31.2441 13.3613ZM29.3105 15.5898C28.8093 15.5898 28.2721 15.6087 27.6992 15.6445C27.1263 15.6803 26.5101 15.7331 25.8477 15.8047V31.5156C26.9398 31.5693 27.9499 31.5957 28.8809 31.5957C31.9781 31.5957 34.2435 30.9417 35.6758 29.6348C37.1259 28.3099 37.8516 26.2424 37.8516 23.4316C37.8516 20.7104 37.1617 18.7239 35.7832 17.4707C34.4047 16.2175 32.2467 15.5898 29.3105 15.5898Z" fill="#ABACAE"/>
</svg>
