<svg width="64" height="64" viewBox="0 0 64 64" fill="none" xmlns="http://www.w3.org/2000/svg">
<path opacity="0.2" d="M59.5 59.0009C59.4984 59.7965 56.6004 60.5593 51.4434 61.1218C46.2863 61.6843 39.2924 62.0003 32 62.0003C24.7076 62.0003 17.7137 61.6843 12.5566 61.1218C7.39955 60.5593 4.50156 59.7965 4.5 59.0009C4.49923 58.6069 5.20997 58.2167 6.59163 57.8527C7.97329 57.4886 9.9988 57.1578 12.5525 56.8792C15.1062 56.6005 18.138 56.3795 21.4749 56.2287C24.8117 56.0779 28.3882 56.0003 32 56.0003C35.6118 56.0003 39.1883 56.0779 42.5252 56.2287C45.862 56.3795 48.8938 56.6005 51.4475 56.8792C54.0012 57.1578 56.0267 57.4886 57.4084 57.8527C58.79 58.2167 59.5008 58.6069 59.5 59.0009Z" fill="url(#paint0_radial)"/>
<g opacity="0.4">
<path opacity="0.4" d="M59 58.0009H51.8947V60.5009H59V58.0009Z" fill="url(#paint1_radial)"/>
<path opacity="0.4" d="M5 60.5009H12.1053V58.0009H5V60.5009Z" fill="url(#paint2_radial)"/>
<path opacity="0.4" d="M51.8947 58.0009H12.1053V60.5009H51.8947V58.0009Z" fill="url(#paint3_linear)"/>
</g>
<path d="M54.7227 7.75092H9.27727C7.60536 7.75092 6.25 9.10627 6.25 10.7782V56.2236C6.25 57.8956 7.60536 59.2509 9.27727 59.2509H54.7227C56.3946 59.2509 57.75 57.8956 57.75 56.2236V10.7782C57.75 9.10627 56.3946 7.75092 54.7227 7.75092Z" fill="url(#paint4_radial)"/>
<path opacity="0.5" d="M54.75 8.25092H9.25C7.86929 8.25092 6.75 9.3702 6.75 10.7509V56.2509C6.75 57.6316 7.86929 58.7509 9.25 58.7509H54.75C56.1307 58.7509 57.25 57.6316 57.25 56.2509V10.7509C57.25 9.3702 56.1307 8.25092 54.75 8.25092Z" stroke="url(#paint5_linear)" stroke-linecap="round" stroke-linejoin="round"/>
<path opacity="0.8" d="M54.7227 7.75092H9.27727C7.60536 7.75092 6.25 9.10627 6.25 10.7782V56.2236C6.25 57.8956 7.60536 59.2509 9.27727 59.2509H54.7227C56.3946 59.2509 57.75 57.8956 57.75 56.2236V10.7782C57.75 9.10627 56.3946 7.75092 54.7227 7.75092Z" stroke="#0068A2" stroke-linecap="round" stroke-linejoin="round"/>
<path fill-rule="evenodd" clip-rule="evenodd" d="M39.9277 18.3105C37.8868 16.7709 34.8241 16 30.7422 16C30.3662 16 29.8574 16.0094 29.2129 16.0273C28.5684 16.0452 27.7617 16.0716 26.7949 16.1074C25.8461 16.1432 25.0413 16.179 24.3789 16.2148C23.7165 16.2327 23.1699 16.2422 22.7402 16.2422C20.556 16.2422 18.3095 16.2064 16 16.1348L16.0527 17.2891L19.3828 18.3359C19.7946 18.4792 20.0094 18.7845 20.0273 19.25C20.0452 19.8408 20.0547 20.5023 20.0547 21.2363C20.0726 21.9704 20.082 22.794 20.082 23.707V45.4863C20.082 46.5605 20.0726 47.5462 20.0547 48.4414C20.0547 49.3187 20.0452 50.1139 20.0273 50.8301C19.9915 51.2598 19.7503 51.5387 19.3027 51.6641L16 52.6562L16.1074 53.8125C18.3811 53.7588 20.6013 53.7305 22.7676 53.7305C24.8981 53.7305 27.0277 53.7588 29.1582 53.8125L29.0781 52.6562L26.0977 51.7715C25.6501 51.6283 25.4163 51.2777 25.3984 50.7227C25.3805 50.0244 25.3636 49.2461 25.3457 48.3867V45.4863V36.168L27.1973 36.2227C27.6627 36.2406 28.0397 36.2764 28.3262 36.3301C28.6305 36.3838 28.8906 36.4818 29.1055 36.625C29.3382 36.7682 29.5436 36.9642 29.7227 37.2148C29.9196 37.4655 30.1514 37.8067 30.4199 38.2363C31.333 39.6686 32.2018 41.1368 33.0254 42.6406C33.8489 44.1266 34.6367 45.5306 35.3887 46.8555C36.1585 48.1803 36.8936 49.3714 37.5918 50.4277C38.3079 51.4661 39.0316 52.2634 39.7656 52.8184C40.1058 53.0869 40.4469 53.3112 40.7871 53.4902C41.1452 53.6514 41.5391 53.7852 41.9687 53.8926C42.3984 54 42.8903 54.0716 43.4453 54.1074C44.0003 54.1432 44.6449 54.1602 45.3789 54.1602C46.2562 54.1602 47.3399 54.081 48.6289 53.9199L48.5469 52.7383C48.0993 52.6309 47.6885 52.5234 47.3125 52.416C46.9544 52.3086 46.6058 52.1823 46.2656 52.0391C45.9434 51.8958 45.6286 51.7168 45.3242 51.5019C45.0199 51.2692 44.7165 51.0016 44.4121 50.6973C43.8213 50.1065 43.1862 49.2998 42.5059 48.2793C41.8255 47.2588 41.0735 46.0866 40.25 44.7617C39.4444 43.419 38.5661 41.9508 37.6172 40.3574C36.6683 38.7461 35.6299 37.082 34.502 35.3633C37.3665 34.4681 39.4981 33.1959 40.8945 31.5488C42.291 29.8838 42.9883 27.7184 42.9883 25.0508C42.9883 22.0968 41.9687 19.8502 39.9277 18.3105ZM27.1973 18.2832C27.7702 18.2474 28.3073 18.2285 28.8086 18.2285C31.7447 18.2285 33.9027 18.8561 35.2812 20.1094C36.6598 21.3626 37.3496 23.349 37.3496 26.0703C37.3496 28.8811 36.624 30.9486 35.1738 32.2734C33.7416 33.5804 31.4762 34.2344 28.3789 34.2344C27.4479 34.2344 26.4378 34.208 25.3457 34.1543V18.4434C26.0081 18.3717 26.6244 18.319 27.1973 18.2832Z" fill="black" fill-opacity="0.15"/>
<path fill-rule="evenodd" clip-rule="evenodd" d="M39.9277 18.3105C37.8868 16.7709 34.8241 16 30.7422 16C30.3662 16 29.8574 16.0094 29.2129 16.0273C28.5684 16.0452 27.7617 16.0716 26.7949 16.1074C25.8461 16.1432 25.0413 16.179 24.3789 16.2148C23.7165 16.2327 23.1699 16.2422 22.7402 16.2422C20.556 16.2422 18.3095 16.2064 16 16.1348L16.0527 17.2891L19.3828 18.3359C19.7946 18.4792 20.0094 18.7845 20.0273 19.25C20.0452 19.8408 20.0547 20.5023 20.0547 21.2363C20.0726 21.9704 20.082 22.794 20.082 23.707V45.4863C20.082 46.5605 20.0726 47.5462 20.0547 48.4414C20.0547 49.3187 20.0452 50.1139 20.0273 50.8301C19.9915 51.2598 19.7503 51.5387 19.3027 51.6641L16 52.6562L16.1074 53.8125C18.3811 53.7588 20.6013 53.7305 22.7676 53.7305C24.8981 53.7305 27.0277 53.7588 29.1582 53.8125L29.0781 52.6562L26.0977 51.7715C25.6501 51.6283 25.4163 51.2777 25.3984 50.7227C25.3805 50.0244 25.3636 49.2461 25.3457 48.3867V45.4863V36.168L27.1973 36.2227C27.6627 36.2406 28.0397 36.2764 28.3262 36.3301C28.6305 36.3838 28.8906 36.4818 29.1055 36.625C29.3382 36.7682 29.5436 36.9642 29.7227 37.2148C29.9196 37.4655 30.1514 37.8067 30.4199 38.2363C31.333 39.6686 32.2018 41.1368 33.0254 42.6406C33.8489 44.1266 34.6367 45.5306 35.3887 46.8555C36.1585 48.1803 36.8936 49.3714 37.5918 50.4277C38.3079 51.4661 39.0316 52.2634 39.7656 52.8184C40.1058 53.0869 40.4469 53.3112 40.7871 53.4902C41.1452 53.6514 41.5391 53.7852 41.9687 53.8926C42.3984 54 42.8903 54.0716 43.4453 54.1074C44.0003 54.1432 44.6449 54.1602 45.3789 54.1602C46.2562 54.1602 47.3399 54.081 48.6289 53.9199L48.5469 52.7383C48.0993 52.6309 47.6885 52.5234 47.3125 52.416C46.9544 52.3086 46.6058 52.1823 46.2656 52.0391C45.9434 51.8958 45.6286 51.7168 45.3242 51.5019C45.0199 51.2692 44.7165 51.0016 44.4121 50.6973C43.8213 50.1065 43.1862 49.2998 42.5059 48.2793C41.8255 47.2588 41.0735 46.0866 40.25 44.7617C39.4444 43.419 38.5661 41.9508 37.6172 40.3574C36.6683 38.7461 35.6299 37.082 34.502 35.3633C37.3665 34.4681 39.4981 33.1959 40.8945 31.5488C42.291 29.8838 42.9883 27.7184 42.9883 25.0508C42.9883 22.0968 41.9687 19.8502 39.9277 18.3105ZM27.1973 18.2832C27.7702 18.2474 28.3073 18.2285 28.8086 18.2285C31.7447 18.2285 33.9027 18.8561 35.2812 20.1094C36.6598 21.3626 37.3496 23.349 37.3496 26.0703C37.3496 28.8811 36.624 30.9486 35.1738 32.2734C33.7416 33.5804 31.4762 34.2344 28.3789 34.2344C27.4479 34.2344 26.4378 34.208 25.3457 34.1543V18.4434C26.0081 18.3717 26.6244 18.319 27.1973 18.2832Z" fill="black" fill-opacity="0.15"/>
<path d="M39.9277 18.3105L40.2289 17.9114V17.9114L39.9277 18.3105ZM29.2129 16.0273L29.2268 16.5272L29.2129 16.0273ZM26.7949 16.1074L26.7764 15.6078L26.7761 15.6078L26.7949 16.1074ZM24.3789 16.2148L24.3924 16.7148L24.4059 16.7141L24.3789 16.2148ZM16 16.1348L16.0155 15.635L15.4759 15.6183L15.5005 16.1576L16 16.1348ZM16.0527 17.2891L15.5533 17.3119L15.5692 17.6612L15.9028 17.766L16.0527 17.2891ZM19.3828 18.3359L19.5471 17.8637L19.54 17.8612L19.5328 17.859L19.3828 18.3359ZM20.0273 19.25L20.5271 19.2349L20.527 19.2308L20.0273 19.25ZM20.0547 21.2363H19.5545L19.5548 21.2485L20.0547 21.2363ZM20.0547 48.4414L19.5547 48.4314V48.4414H20.0547ZM20.0273 50.8301L20.5256 50.8716L20.5268 50.8571L20.5272 50.8426L20.0273 50.8301ZM19.3027 51.6641L19.1679 51.1825L19.1589 51.1852L19.3027 51.6641ZM16 52.6562L15.8561 52.1774L15.4643 52.2951L15.5021 52.7025L16 52.6562ZM16.1074 53.8125L15.6096 53.8587L15.6527 54.3234L16.1192 54.3124L16.1074 53.8125ZM29.1582 53.8125L29.1456 54.3123L29.695 54.3262L29.657 53.778L29.1582 53.8125ZM29.0781 52.6562L29.5769 52.6217L29.553 52.2756L29.2204 52.1769L29.0781 52.6562ZM26.0977 51.7715L25.9452 52.2478L25.9554 52.2508L26.0977 51.7715ZM25.3984 50.7227L24.8986 50.7355L24.8987 50.7388L25.3984 50.7227ZM25.3457 48.3867H24.8456L24.8458 48.3971L25.3457 48.3867ZM25.3457 36.168L25.3605 35.6682L24.8457 35.653V36.168H25.3457ZM27.1973 36.2227L27.2165 35.723L27.212 35.7229L27.1973 36.2227ZM28.3262 36.3301L28.234 36.8215L28.2393 36.8225L28.3262 36.3301ZM29.1055 36.625L28.8281 37.041L28.8357 37.0461L28.8434 37.0508L29.1055 36.625ZM29.7227 37.2148L29.3158 37.5055L29.3224 37.5148L29.3295 37.5238L29.7227 37.2148ZM30.4199 38.2363L29.9959 38.5013L29.9983 38.5051L30.4199 38.2363ZM33.0254 42.6406L32.5868 42.8808L32.5881 42.883L33.0254 42.6406ZM35.3887 46.8555L34.9538 47.1023L34.9564 47.1067L35.3887 46.8555ZM37.5918 50.4277L37.1746 50.7035L37.1802 50.7116L37.5918 50.4277ZM39.7656 52.8184L40.0755 52.4258L40.0672 52.4195L39.7656 52.8184ZM40.7871 53.4902L40.5542 53.9327L40.5679 53.9399L40.5819 53.9462L40.7871 53.4902ZM41.9687 53.8926L42.09 53.4075L42.09 53.4075L41.9687 53.8926ZM43.4453 54.1074L43.4775 53.6085H43.4775L43.4453 54.1074ZM48.6289 53.9199L48.6909 54.4161L49.1605 54.3574L49.1277 53.8853L48.6289 53.9199ZM48.5469 52.7383L49.0457 52.7037L49.0203 52.3377L48.6636 52.2521L48.5469 52.7383ZM47.3125 52.416L47.1688 52.895L47.1751 52.8968L47.3125 52.416ZM46.2656 52.0391L46.0625 52.4961L46.0716 52.4999L46.2656 52.0391ZM45.3242 51.5019L45.0205 51.8991L45.0281 51.9049L45.0359 51.9104L45.3242 51.5019ZM44.4121 50.6973L44.7657 50.3437L44.4121 50.6973ZM42.5059 48.2793L42.9219 48.0019L42.5059 48.2793ZM40.25 44.7617L39.8212 45.019L39.8254 45.0257L40.25 44.7617ZM37.6172 40.3574L37.1863 40.6111L37.1876 40.6132L37.6172 40.3574ZM34.502 35.3633L34.3528 34.886L33.7204 35.0837L34.0839 35.6376L34.502 35.3633ZM40.8945 31.5488L41.2759 31.8722L41.2776 31.8701L40.8945 31.5488ZM27.1973 18.2832L27.1661 17.7842H27.1661L27.1973 18.2832ZM35.2812 20.1094L35.6176 19.7394L35.2812 20.1094ZM35.1738 32.2734L35.5109 32.6428L35.5111 32.6426L35.1738 32.2734ZM25.3457 34.1543H24.8457V34.6303L25.3211 34.6537L25.3457 34.1543ZM25.3457 18.4434L25.292 17.9463L24.8457 17.9945V18.4434H25.3457ZM30.7422 16.5C34.7755 16.5 37.7105 17.2642 39.6266 18.7097L40.2289 17.9114C38.0631 16.2775 34.8728 15.5 30.7422 15.5V16.5ZM29.2268 16.5272C29.8698 16.5093 30.3732 16.5 30.7422 16.5V15.5C30.3592 15.5 29.845 15.5096 29.199 15.5275L29.2268 16.5272ZM26.8134 16.6071C27.7791 16.5713 28.5842 16.545 29.2268 16.5272L29.199 15.5275C28.5526 15.5455 27.7443 15.5719 26.7764 15.6078L26.8134 16.6071ZM24.4059 16.7141C25.0647 16.6785 25.8666 16.6428 26.8138 16.6071L26.7761 15.6078C25.8255 15.6436 25.0179 15.6796 24.3519 15.7156L24.4059 16.7141ZM22.7402 16.7422C23.1764 16.7422 23.728 16.7326 24.3924 16.7147L24.3654 15.715C23.705 15.7329 23.1635 15.7422 22.7402 15.7422V16.7422ZM15.9845 16.6345C18.2989 16.7063 20.5506 16.7422 22.7402 16.7422V15.7422C20.5615 15.7422 18.3201 15.7065 16.0155 15.635L15.9845 16.6345ZM16.5522 17.2662L16.4995 16.1119L15.5005 16.1576L15.5533 17.3119L16.5522 17.2662ZM19.5328 17.859L16.2027 16.8121L15.9028 17.766L19.2329 18.8129L19.5328 17.859ZM20.527 19.2308C20.5152 18.9256 20.437 18.6331 20.2615 18.3841C20.0842 18.1326 19.8347 17.9637 19.5471 17.8637L19.2186 18.8082C19.3427 18.8514 19.4065 18.9068 19.4441 18.9602C19.4834 19.016 19.5215 19.1089 19.5277 19.2692L20.527 19.2308ZM20.5547 21.2363C20.5547 20.4981 20.5452 19.8315 20.5271 19.2349L19.5276 19.2651C19.5453 19.8501 19.5547 20.5065 19.5547 21.2363H20.5547ZM20.582 23.707C20.582 22.7906 20.5726 21.9629 20.5545 21.2241L19.5548 21.2485C19.5726 21.9778 19.582 22.7973 19.582 23.707H20.582ZM20.582 45.4863V23.707H19.582V45.4863H20.582ZM20.5546 48.4514C20.5726 47.5525 20.582 46.5634 20.582 45.4863H19.582C19.582 46.5576 19.5726 47.54 19.5548 48.4314L20.5546 48.4514ZM20.5272 50.8426C20.5452 50.1217 20.5547 49.3222 20.5547 48.4414H19.5547C19.5547 49.3151 19.5453 50.1062 19.5275 50.8176L20.5272 50.8426ZM19.4375 52.1455C19.7313 52.0633 19.9975 51.9189 20.1971 51.6889C20.3988 51.4564 20.5005 51.1734 20.5256 50.8716L19.5291 50.7886C19.5184 50.9165 19.4815 50.9877 19.4418 51.0335C19.4 51.0817 19.3217 51.1395 19.1679 51.1826L19.4375 52.1455ZM16.1439 53.1351L19.4466 52.1429L19.1589 51.1852L15.8561 52.1774L16.1439 53.1351ZM16.6053 53.7662L16.4979 52.61L15.5021 52.7025L15.6096 53.8587L16.6053 53.7662ZM22.7676 53.2305C20.597 53.2305 18.3728 53.2588 16.0956 53.3126L16.1192 54.3124C18.3894 54.2587 20.6056 54.2305 22.7676 54.2305V53.2305ZM29.1708 53.3127C27.0364 53.2588 24.9025 53.2305 22.7676 53.2305V54.2305C24.8936 54.2305 27.0191 54.2587 29.1456 54.3123L29.1708 53.3127ZM28.5793 52.6908L28.6594 53.847L29.657 53.778L29.5769 52.6217L28.5793 52.6908ZM25.9554 52.2508L28.9358 53.1356L29.2204 52.1769L26.2399 51.2922L25.9554 52.2508ZM24.8987 50.7388C24.9097 51.0804 24.9885 51.4053 25.1709 51.6788C25.3577 51.959 25.6269 52.1458 25.9453 52.2477L26.25 51.2953C26.1208 51.2539 26.0494 51.1938 26.0029 51.1241C25.9521 51.0478 25.9051 50.9199 25.8982 50.7065L24.8987 50.7388ZM24.8458 48.3971C24.8637 49.2566 24.8807 50.036 24.8986 50.7355L25.8983 50.7098C25.8804 50.0129 25.8635 49.2355 25.8456 48.3763L24.8458 48.3971ZM24.8457 45.4863V48.3867H25.8457V45.4863H24.8457ZM24.8457 36.168V45.4863H25.8457V36.168H24.8457ZM27.212 35.7229L25.3605 35.6682L25.3309 36.6677L27.1825 36.7224L27.212 35.7229ZM28.4183 35.8386C28.0979 35.7786 27.6937 35.7414 27.2165 35.723L27.178 36.7223C27.6318 36.7397 27.9816 36.7742 28.234 36.8215L28.4183 35.8386ZM29.3828 36.209C29.0997 36.0202 28.7715 35.9009 28.4131 35.8377L28.2393 36.8225C28.4896 36.8666 28.6816 36.9433 28.8281 37.041L29.3828 36.209ZM30.1295 36.9242C29.9164 36.6258 29.6635 36.3813 29.3675 36.1992L28.8434 37.0508C29.0129 37.1551 29.1709 37.3026 29.3158 37.5055L30.1295 36.9242ZM30.8439 37.9713C30.5714 37.5353 30.3288 37.177 30.1158 36.9059L29.3295 37.5238C29.5104 37.754 29.7313 38.078 29.9959 38.5013L30.8439 37.9713ZM33.4639 42.4005C32.6351 40.8869 31.7606 39.4092 30.8415 37.9675L29.9983 38.5051C30.9054 39.928 31.7686 41.3866 32.5868 42.8808L33.4639 42.4005ZM35.8235 46.6087C35.0724 45.2853 34.2855 43.8828 33.4627 42.3982L32.5881 42.883C33.4124 44.3704 34.201 45.7759 34.9538 47.1023L35.8235 46.6087ZM38.0089 50.152C37.3169 49.1051 36.5869 47.9223 35.821 46.6043L34.9564 47.1067C35.7301 48.4383 36.4703 49.6378 37.1747 50.7034L38.0089 50.152ZM40.0672 52.4195C39.3885 51.9064 38.6999 51.1538 38.0034 50.1439L37.1802 50.7116C37.9159 51.7784 38.6746 52.6203 39.4641 53.2172L40.0672 52.4195ZM41.02 53.0478C40.71 52.8846 40.3944 52.6778 40.0754 52.4259L39.4558 53.2108C39.8171 53.4961 40.1839 53.7378 40.5542 53.9327L41.02 53.0478ZM42.09 53.4075C41.6851 53.3063 41.3198 53.1817 40.9923 53.0343L40.5819 53.9462C40.9705 54.1211 41.393 54.264 41.8475 54.3776L42.09 53.4075ZM43.4775 53.6085C42.9454 53.5741 42.4842 53.5061 42.09 53.4075L41.8475 54.3776C42.3126 54.4939 42.8353 54.5691 43.4131 54.6064L43.4775 53.6085ZM45.3789 53.6602C44.6519 53.6602 44.0186 53.6434 43.4775 53.6085L43.4131 54.6064C43.982 54.6431 44.6379 54.6602 45.3789 54.6602V53.6602ZM48.5669 53.4238C47.2902 53.5834 46.2285 53.6602 45.3789 53.6602V54.6602C46.2838 54.6602 47.3895 54.5787 48.6909 54.4161L48.5669 53.4238ZM48.0481 52.7729L48.1301 53.9545L49.1277 53.8853L49.0457 52.7037L48.0481 52.7729ZM47.1751 52.8968C47.5589 53.0064 47.9767 53.1156 48.4302 53.2245L48.6636 52.2521C48.2219 52.1461 47.8181 52.0405 47.4499 51.9352L47.1751 52.8968ZM46.0716 52.4999C46.4275 52.6497 46.793 52.7822 47.1688 52.8949L47.4562 51.9371C47.1159 51.835 46.7841 51.7148 46.4597 51.5782L46.0716 52.4999ZM45.0359 51.9104C45.3661 52.1435 45.7093 52.339 46.0626 52.496L46.4687 51.5822C46.1774 51.4527 45.8911 51.2901 45.6126 51.0935L45.0359 51.9104ZM44.0586 51.0508C44.3767 51.369 44.6966 51.6515 45.0205 51.8991L45.6279 51.1048C45.3431 50.8869 45.0562 50.6343 44.7657 50.3437L44.0586 51.0508ZM42.0898 48.5566C42.7806 49.5928 43.4362 50.4285 44.0586 51.0508L44.7657 50.3437C44.2064 49.7844 43.5918 49.0068 42.9219 48.0019L42.0898 48.5566ZM39.8254 45.0257C40.651 46.3539 41.4059 47.5308 42.0898 48.5566L42.9219 48.0019C42.2451 46.9868 41.4961 45.8192 40.6746 44.4977L39.8254 45.0257ZM37.1876 40.6132C38.1368 42.2072 39.0154 43.6758 39.8213 45.019L40.6787 44.5045C39.8733 43.1621 38.9953 41.6944 38.0468 40.1016L37.1876 40.6132ZM34.0839 35.6376C35.2079 37.3503 36.242 39.0075 37.1863 40.6111L38.048 40.1037C37.0946 38.4847 36.0518 36.8137 34.92 35.089L34.0839 35.6376ZM40.5132 31.2255C39.1974 32.7774 37.1607 34.0086 34.3528 34.886L34.6511 35.8405C37.5722 34.9277 39.7987 33.6145 41.2759 31.8722L40.5132 31.2255ZM42.4883 25.0508C42.4883 27.6286 41.8162 29.6718 40.5114 31.2275L41.2776 31.8701C42.7657 30.0959 43.4883 27.8081 43.4883 25.0508H42.4883ZM39.6266 18.7097C41.5217 20.1393 42.4883 22.2258 42.4883 25.0508H43.4883C43.4883 21.9677 42.4157 19.5611 40.2289 17.9114L39.6266 18.7097ZM28.8086 17.7285C28.295 17.7285 27.7473 17.7479 27.1661 17.7842L27.2285 18.7822C27.7931 18.7469 28.3196 18.7285 28.8086 18.7285V17.7285ZM35.6176 19.7394C34.1066 18.3658 31.8008 17.7285 28.8086 17.7285V18.7285C31.6886 18.7285 33.6988 19.3465 34.9449 20.4793L35.6176 19.7394ZM37.8496 26.0703C37.8496 23.2738 37.1406 21.124 35.6176 19.7394L34.9449 20.4793C36.1789 21.6012 36.8496 23.4243 36.8496 26.0703H37.8496ZM35.5111 32.6426C37.1031 31.1882 37.8496 28.9599 37.8496 26.0703H36.8496C36.8496 28.8024 36.1449 30.709 34.8366 31.9043L35.5111 32.6426ZM28.3789 34.7344C31.5301 34.7344 33.945 34.0716 35.5109 32.6428L34.8368 31.9041C33.5382 33.0891 31.4222 33.7344 28.3789 33.7344V34.7344ZM25.3211 34.6537C26.4202 34.7077 27.4386 34.7344 28.3789 34.7344V33.7344C27.4573 33.7344 26.4554 33.7083 25.3703 33.6549L25.3211 34.6537ZM24.8457 18.4434V34.1543H25.8457V18.4434H24.8457ZM27.1661 17.7842C26.585 17.8205 25.9612 17.8739 25.292 17.9463L25.3994 18.9405C26.055 18.8696 26.6637 18.8175 27.2285 18.7822L27.1661 17.7842Z" fill="black" fill-opacity="0.07"/>
<path fill-rule="evenodd" clip-rule="evenodd" d="M39.9277 17.3105C37.8868 15.7709 34.8241 15 30.7422 15C30.3662 15 29.8574 15.0094 29.2129 15.0273C28.5684 15.0452 27.7617 15.0716 26.7949 15.1074C25.8461 15.1432 25.0413 15.179 24.3789 15.2148C23.7165 15.2327 23.1699 15.2422 22.7402 15.2422C20.556 15.2422 18.3095 15.2064 16 15.1348L16.0527 16.2891L19.3828 17.3359C19.7946 17.4792 20.0094 17.7845 20.0273 18.25C20.0452 18.8408 20.0547 19.5023 20.0547 20.2363C20.0726 20.9704 20.082 21.794 20.082 22.707V44.4863C20.082 45.5605 20.0726 46.5462 20.0547 47.4414C20.0547 48.3187 20.0452 49.1139 20.0273 49.8301C19.9915 50.2598 19.7503 50.5387 19.3027 50.6641L16 51.6562L16.1074 52.8125C18.3811 52.7588 20.6013 52.7305 22.7676 52.7305C24.8981 52.7305 27.0277 52.7588 29.1582 52.8125L29.0781 51.6562L26.0977 50.7715C25.6501 50.6283 25.4163 50.2777 25.3984 49.7227C25.3805 49.0244 25.3636 48.2461 25.3457 47.3867V44.4863V35.168L27.1973 35.2227C27.6627 35.2406 28.0397 35.2764 28.3262 35.3301C28.6305 35.3838 28.8906 35.4818 29.1055 35.625C29.3382 35.7682 29.5436 35.9642 29.7227 36.2148C29.9196 36.4655 30.1514 36.8067 30.4199 37.2363C31.333 38.6686 32.2018 40.1368 33.0254 41.6406C33.8489 43.1266 34.6367 44.5306 35.3887 45.8555C36.1585 47.1803 36.8936 48.3714 37.5918 49.4277C38.3079 50.4661 39.0316 51.2634 39.7656 51.8184C40.1058 52.0869 40.4469 52.3112 40.7871 52.4902C41.1452 52.6514 41.5391 52.7852 41.9687 52.8926C42.3984 53 42.8903 53.0716 43.4453 53.1074C44.0003 53.1432 44.6449 53.1602 45.3789 53.1602C46.2562 53.1602 47.3399 53.081 48.6289 52.9199L48.5469 51.7383C48.0993 51.6309 47.6885 51.5234 47.3125 51.416C46.9544 51.3086 46.6058 51.1823 46.2656 51.0391C45.9434 50.8958 45.6286 50.7168 45.3242 50.5019C45.0199 50.2692 44.7165 50.0016 44.4121 49.6973C43.8213 49.1065 43.1862 48.2998 42.5059 47.2793C41.8255 46.2588 41.0735 45.0866 40.25 43.7617C39.4444 42.419 38.5661 40.9508 37.6172 39.3574C36.6683 37.7461 35.6299 36.082 34.502 34.3633C37.3665 33.4681 39.4981 32.1959 40.8945 30.5488C42.291 28.8838 42.9883 26.7184 42.9883 24.0508C42.9883 21.0968 41.9687 18.8502 39.9277 17.3105ZM27.1973 17.2832C27.7702 17.2474 28.3073 17.2285 28.8086 17.2285C31.7447 17.2285 33.9027 17.8561 35.2812 19.1094C36.6598 20.3626 37.3496 22.349 37.3496 25.0703C37.3496 27.8811 36.624 29.9486 35.1738 31.2734C33.7416 32.5804 31.4762 33.2344 28.3789 33.2344C27.4479 33.2344 26.4378 33.208 25.3457 33.1543V17.4434C26.0081 17.3717 26.6244 17.319 27.1973 17.2832Z" fill="white"/>
<defs>
<radialGradient id="paint0_radial" cx="0" cy="0" r="1" gradientUnits="userSpaceOnUse" gradientTransform="translate(32 59.0009) scale(27.5 3)">
<stop/>
<stop offset="1" stop-opacity="0"/>
</radialGradient>
<radialGradient id="paint1_radial" cx="0" cy="0" r="1" gradientUnits="userSpaceOnUse" gradientTransform="translate(51.8848 59.2509) scale(7.11871 1.25)">
<stop stop-color="#181818"/>
<stop offset="1" stop-color="#181818" stop-opacity="0"/>
</radialGradient>
<radialGradient id="paint2_radial" cx="0" cy="0" r="1" gradientUnits="userSpaceOnUse" gradientTransform="translate(12.1152 59.2509) rotate(180) scale(7.11871 1.25)">
<stop stop-color="#181818"/>
<stop offset="1" stop-color="#181818" stop-opacity="0"/>
</radialGradient>
<linearGradient id="paint3_linear" x1="33.5036" y1="60.5108" x2="33.5036" y2="58.0007" gradientUnits="userSpaceOnUse">
<stop stop-color="#181818" stop-opacity="0"/>
<stop offset="0.5" stop-color="#181818"/>
<stop offset="1" stop-color="#181818" stop-opacity="0"/>
</linearGradient>
<radialGradient id="paint4_radial" cx="0" cy="0" r="1" gradientUnits="userSpaceOnUse" gradientTransform="translate(29.4643 29.8971) rotate(-138.189) scale(29.4804 29.4753)">
<stop stop-color="#82D7FD"/>
<stop offset="1" stop-color="#0E8DCD"/>
</radialGradient>
<linearGradient id="paint5_linear" x1="32" y1="7.56848" x2="32" y2="59.4334" gradientUnits="userSpaceOnUse">
<stop stop-color="white"/>
<stop offset="0.0631645" stop-color="white" stop-opacity="0.235294"/>
<stop offset="0.950563" stop-color="white" stop-opacity="0.156863"/>
<stop offset="1" stop-color="white" stop-opacity="0.392157"/>
</linearGradient>
</defs>
</svg>
