<svg width="64" height="64" viewBox="0 0 64 64" fill="none" xmlns="http://www.w3.org/2000/svg">
<path d="M32 40.25C36.5563 40.25 40.25 36.5563 40.25 32C40.25 27.4437 36.5563 23.75 32 23.75C27.4437 23.75 23.75 27.4437 23.75 32C23.75 36.5563 27.4437 40.25 32 40.25Z" fill="#ABACAE"/>
<path d="M31.2949 0.00976702C27.4009 0.093622 23.4881 0.889338 19.7539 2.43604C7.80443 7.38548 0 19.0658 0 32H6C6 21.4754 12.3266 12.0068 22.0498 7.97949C31.773 3.95217 42.9417 6.17412 50.3838 13.6162C57.8259 21.0583 60.0478 32.227 56.0205 41.9502C51.9932 51.6734 42.5246 58 32 58V64C44.9342 64 56.6145 56.1956 61.564 44.2461C66.5134 32.2966 63.7722 18.5192 54.6265 9.37354C48.3388 3.08587 39.8619 -0.174714 31.2949 0.00976702Z" fill="#BEBEBE"/>
<path d="M33.0928 10.5307C29.9652 10.3699 26.7822 10.8901 23.7725 12.1367C15.7465 15.461 10.5 23.3127 10.5 32H16.5C16.5 25.7222 20.2686 20.0824 26.0684 17.6802C31.8681 15.2779 38.5203 16.6014 42.9595 21.0405C47.3986 25.4796 48.722 32.1319 46.3198 37.9316C43.9176 43.7313 38.2778 47.5 32 47.5V53.5C40.6873 53.5 48.5389 48.2535 51.8633 40.2275C55.1876 32.2016 53.3449 22.9406 47.2021 16.7978C43.3629 12.9586 38.3054 10.7989 33.0928 10.5307Z" fill="#BEBEBE"/>
<path d="M32 0V6C46.3949 6 58 17.6051 58 32H64C64 14.3624 49.6376 0 32 0Z" fill="#ABACAE"/>
<path d="M32 10.5V16.5C40.5959 16.5 47.5 23.4041 47.5 32H53.5C53.5 20.1614 43.8386 10.5 32 10.5Z" fill="#ABACAE"/>
</svg>
