<svg width="16" height="16" viewBox="0 0 16 16" fill="none" xmlns="http://www.w3.org/2000/svg">
<path opacity="0.2" d="M14.6667 14.1668C14.6663 14.3878 13.9462 14.5997 12.6647 14.756C11.3833 14.9122 9.64538 15 7.83333 15C6.02128 15 4.2834 14.9122 3.00194 14.756C1.72049 14.5997 1.00039 14.3878 1 14.1668C0.999809 14.0574 1.17642 13.949 1.51974 13.8479C1.86306 13.7467 2.36637 13.6548 3.00092 13.5775C3.63548 13.5 4.38884 13.4386 5.21801 13.3968C6.04715 13.3549 6.93586 13.3333 7.83333 13.3333C8.73081 13.3333 9.61952 13.3549 10.4487 13.3968C11.2778 13.4386 12.0312 13.5 12.6657 13.5775C13.3003 13.6548 13.8036 13.7467 14.1469 13.8479C14.4902 13.949 14.6669 14.0574 14.6667 14.1668Z" fill="url(#paint0_radial)"/>
<g opacity="0.7">
<path opacity="0.4" d="M15.5 13.3125H13.4934V15.3333H15.5V13.3125Z" fill="url(#paint1_radial)"/>
<path opacity="0.4" d="M0.25 15.3333H2.25659V13.3125H0.25V15.3333Z" fill="url(#paint2_radial)"/>
<path opacity="0.4" d="M13.4934 13.3125H2.25659V15.3333H13.4934V13.3125Z" fill="url(#paint3_linear)"/>
</g>
<rect x="1" y="1" width="14" height="14" rx="1" fill="url(#paint4_linear)"/>
<rect x="0.5" y="0.5" width="15" height="15" rx="1.5" stroke="#555761" stroke-opacity="0.7"/>
<rect opacity="0.35" x="1.5" y="1.5" width="13" height="13" stroke="url(#paint5_linear)" stroke-linecap="round" stroke-linejoin="round"/>
<path d="M3.33333 3.33334V4.11112C3.33333 4.5389 3.68644 4.8889 4.11111 4.8889C5.96763 4.8889 7.74815 5.6264 9.0609 6.93916C10.3737 8.25191 11.1111 10.0324 11.1111 11.8889C11.1111 12.3167 11.4642 12.6667 11.8889 12.6667H12.6667V11.8889C12.6667 9.61983 11.7652 7.44369 10.1607 5.83921C8.55625 4.23474 6.38019 3.33334 4.11111 3.33334H3.33333ZM3.33333 6.44445V7.22223C3.33333 7.65001 3.68644 8.00001 4.11111 8.00001C5.14251 8.00001 6.13175 8.40974 6.86106 9.13905C7.59037 9.86836 8 10.8575 8 11.8889C8 12.3167 8.35311 12.6667 8.77778 12.6667H9.55556V11.8889C9.55556 10.4449 8.98191 9.06014 7.96088 8.0391C6.93985 7.01807 5.55507 6.44445 4.11111 6.44445H3.33333ZM4.88889 9.55557C4.47633 9.55557 4.0806 9.71945 3.78887 10.0112C3.49715 10.3029 3.33333 10.6986 3.33333 11.1111C3.33333 11.5237 3.49715 11.9193 3.78887 12.2111C4.0806 12.5028 4.47633 12.6667 4.88889 12.6667C5.30145 12.6667 5.69718 12.5028 5.98891 12.2111C6.28063 11.9193 6.44444 11.5237 6.44444 11.1111C6.44444 10.6986 6.28063 10.3029 5.98891 10.0112C5.69718 9.71945 5.30145 9.55557 4.88889 9.55557Z" fill="black" fill-opacity="0.15"/>
<path d="M3.33333 3.33334V4.11112C3.33333 4.5389 3.68644 4.8889 4.11111 4.8889C5.96763 4.8889 7.74815 5.6264 9.0609 6.93916C10.3737 8.25191 11.1111 10.0324 11.1111 11.8889C11.1111 12.3167 11.4642 12.6667 11.8889 12.6667H12.6667V11.8889C12.6667 9.61983 11.7652 7.44369 10.1607 5.83921C8.55625 4.23474 6.38019 3.33334 4.11111 3.33334H3.33333ZM3.33333 6.44445V7.22223C3.33333 7.65001 3.68644 8.00001 4.11111 8.00001C5.14251 8.00001 6.13175 8.40974 6.86106 9.13905C7.59037 9.86836 8 10.8575 8 11.8889C8 12.3167 8.35311 12.6667 8.77778 12.6667H9.55556V11.8889C9.55556 10.4449 8.98191 9.06014 7.96088 8.0391C6.93985 7.01807 5.55507 6.44445 4.11111 6.44445H3.33333ZM4.88889 9.55557C4.47633 9.55557 4.0806 9.71945 3.78887 10.0112C3.49715 10.3029 3.33333 10.6986 3.33333 11.1111C3.33333 11.5237 3.49715 11.9193 3.78887 12.2111C4.0806 12.5028 4.47633 12.6667 4.88889 12.6667C5.30145 12.6667 5.69718 12.5028 5.98891 12.2111C6.28063 11.9193 6.44444 11.5237 6.44444 11.1111C6.44444 10.6986 6.28063 10.3029 5.98891 10.0112C5.69718 9.71945 5.30145 9.55557 4.88889 9.55557Z" fill="black" fill-opacity="0.15" stroke="black" stroke-opacity="0.07"/>
<path d="M3.33333 3.33334V4.11112C3.33333 4.5389 3.68644 4.8889 4.11111 4.8889C5.96763 4.8889 7.74815 5.6264 9.0609 6.93916C10.3737 8.25191 11.1111 10.0324 11.1111 11.8889C11.1111 12.3167 11.4642 12.6667 11.8889 12.6667H12.6667V11.8889C12.6667 9.61983 11.7652 7.44369 10.1607 5.83921C8.55625 4.23474 6.38019 3.33334 4.11111 3.33334H3.33333ZM3.33333 6.44445V7.22223C3.33333 7.65001 3.68644 8.00001 4.11111 8.00001C5.14251 8.00001 6.13175 8.40974 6.86106 9.13905C7.59037 9.86836 8 10.8575 8 11.8889C8 12.3167 8.35311 12.6667 8.77778 12.6667H9.55556V11.8889C9.55556 10.4449 8.98191 9.06014 7.96088 8.0391C6.93985 7.01807 5.55507 6.44445 4.11111 6.44445H3.33333ZM4.88889 9.55557C4.47633 9.55557 4.0806 9.71945 3.78887 10.0112C3.49715 10.3029 3.33333 10.6986 3.33333 11.1111C3.33333 11.5237 3.49715 11.9193 3.78887 12.2111C4.0806 12.5028 4.47633 12.6667 4.88889 12.6667C5.30145 12.6667 5.69718 12.5028 5.98891 12.2111C6.28063 11.9193 6.44444 11.5237 6.44444 11.1111C6.44444 10.6986 6.28063 10.3029 5.98891 10.0112C5.69718 9.71945 5.30145 9.55557 4.88889 9.55557Z" fill="#333333"/>
<defs>
<radialGradient id="paint0_radial" cx="0" cy="0" r="1" gradientUnits="userSpaceOnUse" gradientTransform="translate(7.83333 14.1668) scale(6.83333 0.833333)">
<stop/>
<stop offset="1" stop-opacity="0"/>
</radialGradient>
<radialGradient id="paint1_radial" cx="0" cy="0" r="1" gradientUnits="userSpaceOnUse" gradientTransform="translate(13.4906 14.3229) scale(2.01038 1.0104)">
<stop stop-color="#181818"/>
<stop offset="1" stop-color="#181818" stop-opacity="0"/>
</radialGradient>
<radialGradient id="paint2_radial" cx="0" cy="0" r="1" gradientUnits="userSpaceOnUse" gradientTransform="translate(2.25938 14.3229) rotate(180) scale(2.01038 1.0104)">
<stop stop-color="#181818"/>
<stop offset="1" stop-color="#181818" stop-opacity="0"/>
</radialGradient>
<linearGradient id="paint3_linear" x1="8.29963" y1="15.3413" x2="8.29963" y2="13.3123" gradientUnits="userSpaceOnUse">
<stop stop-color="#181818" stop-opacity="0"/>
<stop offset="0.5" stop-color="#181818"/>
<stop offset="1" stop-color="#181818" stop-opacity="0"/>
</linearGradient>
<linearGradient id="paint4_linear" x1="7.84663" y1="1.05536" x2="7.84663" y2="14.9901" gradientUnits="userSpaceOnUse">
<stop stop-color="#FAFAFA"/>
<stop offset="1" stop-color="#D4D4D4"/>
</linearGradient>
<linearGradient id="paint5_linear" x1="8" y1="2.24" x2="8" y2="13.76" gradientUnits="userSpaceOnUse">
<stop stop-color="white"/>
<stop offset="0.0416667" stop-color="white" stop-opacity="0.235294"/>
<stop offset="0.958333" stop-color="white" stop-opacity="0.156863"/>
<stop offset="1" stop-color="white" stop-opacity="0.392157"/>
</linearGradient>
</defs>
</svg>
