<svg width="32" height="32" viewBox="0 0 32 32" fill="none" xmlns="http://www.w3.org/2000/svg">
<g clip-path="url(#clip0)">
<path opacity="0.2" d="M29.3333 28.3337C29.3325 28.7757 27.8923 29.1995 25.3294 29.512C22.7665 29.8245 19.2908 30 15.6667 30C12.0426 30 8.56681 29.8245 6.00389 29.512C3.44099 29.1995 2.00078 28.7757 2 28.3337C1.99962 28.1148 2.35283 27.898 3.03948 27.6958C3.72612 27.4935 4.73274 27.3097 6.00185 27.155C7.27096 27.0001 8.77767 26.8774 10.436 26.7936C12.0943 26.7098 13.8717 26.6667 15.6667 26.6667C17.4616 26.6667 19.239 26.7098 20.8974 26.7936C22.5557 26.8774 24.0624 27.0001 25.3315 27.155C26.6006 27.3097 27.6072 27.4935 28.2939 27.6958C28.9805 27.898 29.3337 28.1148 29.3333 28.3337Z" fill="url(#paint0_radial)"/>
<g opacity="0.7">
<path opacity="0.4" d="M31 26.6251H26.9868V30.6667H31V26.6251Z" fill="url(#paint1_radial)"/>
<path opacity="0.4" d="M0.5 30.6667H4.51317V26.6251H0.5V30.6667Z" fill="url(#paint2_radial)"/>
<path opacity="0.4" d="M26.9868 26.6251H4.51318V30.6667H26.9868V26.6251Z" fill="url(#paint3_linear)"/>
</g>
<rect x="3" y="3" width="26" height="26" rx="3" fill="url(#paint4_linear)"/>
<rect x="2.5" y="2.5" width="27" height="27" rx="3.5" stroke="#555761" stroke-opacity="0.5"/>
<rect x="3" y="3" width="26" height="24" rx="3" fill="url(#paint5_linear)"/>
<rect x="2.5" y="2.5" width="27" height="25" rx="3.5" stroke="#555761" stroke-opacity="0.5"/>
<rect opacity="0.35" x="3.5" y="3.5" width="25" height="23" rx="2.5" stroke="url(#paint6_linear)" stroke-linecap="round" stroke-linejoin="round"/>
<path d="M8 6.75V8.08333C8 8.81667 8.60533 9.41667 9.33333 9.41667C12.5159 9.41667 15.5682 10.681 17.8187 12.9314C20.0691 15.1818 21.3333 18.2341 21.3333 21.4167C21.3333 22.15 21.9387 22.75 22.6667 22.75H24V21.4167C24 17.5268 22.4546 13.7963 19.7041 11.0458C16.9536 8.29524 13.2232 6.75 9.33333 6.75H8ZM8 12.0833V13.4167C8 14.15 8.60533 14.75 9.33333 14.75C11.1014 14.75 12.7973 15.4524 14.0475 16.7026C15.2978 17.9529 16 19.6486 16 21.4167C16 22.15 16.6053 22.75 17.3333 22.75H18.6667V21.4167C18.6667 18.9413 17.6833 16.5674 15.9329 14.817C14.1826 13.0667 11.8087 12.0833 9.33333 12.0833H8ZM10.6667 17.4167C9.95942 17.4167 9.28102 17.6976 8.78092 18.1977C8.28083 18.6978 8 19.3761 8 20.0833C8 20.7906 8.28083 21.4689 8.78092 21.969C9.28102 22.4691 9.95942 22.75 10.6667 22.75C11.3739 22.75 12.0523 22.4691 12.5524 21.969C13.0525 21.4689 13.3333 20.7906 13.3333 20.0833C13.3333 19.3761 13.0525 18.6978 12.5524 18.1977C12.0523 17.6976 11.3739 17.4167 10.6667 17.4167Z" fill="black" fill-opacity="0.15"/>
<path d="M8 6.75V8.08333C8 8.81667 8.60533 9.41667 9.33333 9.41667C12.5159 9.41667 15.5682 10.681 17.8187 12.9314C20.0691 15.1818 21.3333 18.2341 21.3333 21.4167C21.3333 22.15 21.9387 22.75 22.6667 22.75H24V21.4167C24 17.5268 22.4546 13.7963 19.7041 11.0458C16.9536 8.29524 13.2232 6.75 9.33333 6.75H8ZM8 12.0833V13.4167C8 14.15 8.60533 14.75 9.33333 14.75C11.1014 14.75 12.7973 15.4524 14.0475 16.7026C15.2978 17.9529 16 19.6486 16 21.4167C16 22.15 16.6053 22.75 17.3333 22.75H18.6667V21.4167C18.6667 18.9413 17.6833 16.5674 15.9329 14.817C14.1826 13.0667 11.8087 12.0833 9.33333 12.0833H8ZM10.6667 17.4167C9.95942 17.4167 9.28102 17.6976 8.78092 18.1977C8.28083 18.6978 8 19.3761 8 20.0833C8 20.7906 8.28083 21.4689 8.78092 21.969C9.28102 22.4691 9.95942 22.75 10.6667 22.75C11.3739 22.75 12.0523 22.4691 12.5524 21.969C13.0525 21.4689 13.3333 20.7906 13.3333 20.0833C13.3333 19.3761 13.0525 18.6978 12.5524 18.1977C12.0523 17.6976 11.3739 17.4167 10.6667 17.4167Z" fill="black" fill-opacity="0.15" stroke="black" stroke-opacity="0.07"/>
<path d="M8 6.5V7.83333C8 8.56667 8.60533 9.16667 9.33333 9.16667C12.5159 9.16667 15.5682 10.431 17.8187 12.6814C20.0691 14.9318 21.3333 17.9841 21.3333 21.1667C21.3333 21.9 21.9387 22.5 22.6667 22.5H24V21.1667C24 17.2768 22.4546 13.5463 19.7041 10.7958C16.9536 8.04524 13.2232 6.5 9.33333 6.5H8ZM8 11.8333V13.1667C8 13.9 8.60533 14.5 9.33333 14.5C11.1014 14.5 12.7973 15.2024 14.0475 16.4526C15.2978 17.7029 16 19.3986 16 21.1667C16 21.9 16.6053 22.5 17.3333 22.5H18.6667V21.1667C18.6667 18.6913 17.6833 16.3174 15.9329 14.567C14.1826 12.8167 11.8087 11.8333 9.33333 11.8333H8ZM10.6667 17.1667C9.95942 17.1667 9.28102 17.4476 8.78092 17.9477C8.28083 18.4478 8 19.1261 8 19.8333C8 20.5406 8.28083 21.2189 8.78092 21.719C9.28102 22.2191 9.95942 22.5 10.6667 22.5C11.3739 22.5 12.0523 22.2191 12.5524 21.719C13.0525 21.2189 13.3333 20.5406 13.3333 19.8333C13.3333 19.1261 13.0525 18.4478 12.5524 17.9477C12.0523 17.4476 11.3739 17.1667 10.6667 17.1667Z" fill="#333333"/>
<g opacity="0.4" filter="url(#filter0_f)">
<path d="M21.9476 21.2629C21.5805 24.2759 20.1629 25.3431 19.5 25.5C27.6077 25.0292 28.9844 16.2411 28.3725 17.6535C27.7606 19.0659 25.0071 19.6936 23.4773 19.6936C22.2535 19.6936 21.9476 20.7398 21.9476 21.2629Z" fill="#555761"/>
<path d="M21.9476 21.2629C21.5805 24.2759 20.1629 25.3431 19.5 25.5C27.6077 25.0292 28.9844 16.2411 28.3725 17.6535C27.7606 19.0659 25.0071 19.6936 23.4773 19.6936C22.2535 19.6936 21.9476 20.7398 21.9476 21.2629Z" stroke="#555761"/>
</g>
<g opacity="0.4" filter="url(#filter1_f)">
<path d="M23.4037 22.587C23.1181 24.6585 22.0156 25.3921 21.5 25.5C27.806 25.1763 28.8768 19.1345 28.4009 20.1055C27.9249 21.0765 25.7833 21.5081 24.5935 21.5081C23.6416 21.5081 23.4037 22.2273 23.4037 22.587Z" fill="#555761"/>
<path d="M23.4037 22.587C23.1181 24.6585 22.0156 25.3921 21.5 25.5C27.806 25.1763 28.8768 19.1345 28.4009 20.1055C27.9249 21.0765 25.7833 21.5081 24.5935 21.5081C23.6416 21.5081 23.4037 22.2273 23.4037 22.587Z" stroke="#555761"/>
</g>
<path d="M23.1756 22.7629C22.8493 25.7759 21.5892 26.8431 21 27C28.2068 26.5292 29.4306 17.7411 28.8867 19.1535C28.3428 20.5659 25.8952 21.1936 24.5354 21.1936C23.4476 21.1936 23.1756 22.2398 23.1756 22.7629Z" fill="url(#paint7_linear)"/>
<path d="M20.8713 26.5168L21.0326 27.4989C24.8705 27.2482 27.1038 24.7737 28.2884 22.6107C28.8811 21.5286 29.2234 20.5054 29.3837 19.8334C29.4596 19.5151 29.5069 19.2263 29.4991 19.0446L29.499 19.0428C29.4976 19.009 29.4928 18.8939 29.4332 18.7793C29.4002 18.7157 29.3086 18.5738 29.1159 18.5193C28.9143 18.4623 28.755 18.5428 28.6846 18.591C28.5696 18.6697 28.5103 18.7797 28.494 18.81C28.4935 18.8108 28.4931 18.8116 28.4927 18.8123C28.4651 18.8633 28.4411 18.9193 28.4201 18.9738C28.226 19.4779 27.6476 19.9186 26.8344 20.2377C26.0431 20.5482 25.1532 20.6936 24.5354 20.6936C23.7964 20.6936 23.306 21.0643 23.0234 21.5174C22.7652 21.9312 22.6806 22.4058 22.6759 22.7337C22.3549 25.6394 21.1656 26.4385 20.8713 26.5168Z" stroke="#555761" stroke-opacity="0.5"/>
</g>
<defs>
<filter id="filter0_f" x="14.3848" y="11.9998" width="19.6151" height="18.9994" filterUnits="userSpaceOnUse" color-interpolation-filters="sRGB">
<feFlood flood-opacity="0" result="BackgroundImageFix"/>
<feBlend mode="normal" in="SourceGraphic" in2="BackgroundImageFix" result="shape"/>
<feGaussianBlur stdDeviation="2.5" result="effect1_foregroundBlur"/>
</filter>
<filter id="filter1_f" x="16.3976" y="14.4999" width="17.6024" height="16.4995" filterUnits="userSpaceOnUse" color-interpolation-filters="sRGB">
<feFlood flood-opacity="0" result="BackgroundImageFix"/>
<feBlend mode="normal" in="SourceGraphic" in2="BackgroundImageFix" result="shape"/>
<feGaussianBlur stdDeviation="2.5" result="effect1_foregroundBlur"/>
</filter>
<radialGradient id="paint0_radial" cx="0" cy="0" r="1" gradientUnits="userSpaceOnUse" gradientTransform="translate(15.6667 28.3337) scale(13.6667 1.66667)">
<stop/>
<stop offset="1" stop-opacity="0"/>
</radialGradient>
<radialGradient id="paint1_radial" cx="0" cy="0" r="1" gradientUnits="userSpaceOnUse" gradientTransform="translate(26.9812 28.6459) scale(4.02075 2.0208)">
<stop stop-color="#181818"/>
<stop offset="1" stop-color="#181818" stop-opacity="0"/>
</radialGradient>
<radialGradient id="paint2_radial" cx="0" cy="0" r="1" gradientUnits="userSpaceOnUse" gradientTransform="translate(4.51876 28.6459) rotate(180) scale(4.02075 2.0208)">
<stop stop-color="#181818"/>
<stop offset="1" stop-color="#181818" stop-opacity="0"/>
</radialGradient>
<linearGradient id="paint3_linear" x1="16.5993" y1="30.6827" x2="16.5993" y2="26.6247" gradientUnits="userSpaceOnUse">
<stop stop-color="#181818" stop-opacity="0"/>
<stop offset="0.5" stop-color="#181818"/>
<stop offset="1" stop-color="#181818" stop-opacity="0"/>
</linearGradient>
<linearGradient id="paint4_linear" x1="15.7152" y1="3.10282" x2="15.7152" y2="28.9816" gradientUnits="userSpaceOnUse">
<stop stop-color="#FAFAFA"/>
<stop offset="1" stop-color="#D4D4D4"/>
</linearGradient>
<linearGradient id="paint5_linear" x1="15.7152" y1="3.09491" x2="15.7152" y2="26.983" gradientUnits="userSpaceOnUse">
<stop stop-color="#FAFAFA"/>
<stop offset="1" stop-color="#D4D4D4"/>
</linearGradient>
<linearGradient id="paint6_linear" x1="16" y1="4.44" x2="16" y2="25.56" gradientUnits="userSpaceOnUse">
<stop stop-color="white"/>
<stop offset="0.0416667" stop-color="white" stop-opacity="0.235294"/>
<stop offset="0.958333" stop-color="white" stop-opacity="0.156863"/>
<stop offset="1" stop-color="white" stop-opacity="0.392157"/>
</linearGradient>
<linearGradient id="paint7_linear" x1="24.9124" y1="19.0316" x2="24.9124" y2="26.9943" gradientUnits="userSpaceOnUse">
<stop stop-color="#FAFAFA"/>
<stop offset="1" stop-color="#D4D4D4"/>
</linearGradient>
<clipPath id="clip0">
<rect width="32" height="32" fill="white"/>
</clipPath>
</defs>
</svg>
