<svg width="32" height="32" viewBox="0 0 32 32" fill="none" xmlns="http://www.w3.org/2000/svg">
<g clip-path="url(#clip0)">
<g opacity="0.6">
<path opacity="0.6" d="M30.5833 27.75H26.5833V30.75H30.5833V27.75Z" fill="url(#paint0_radial)"/>
<path opacity="0.6" d="M1.25 30.75H5.25V27.75H1.25V30.75Z" fill="url(#paint1_radial)"/>
<path opacity="0.6" d="M26.5833 27.75H5.25V30.75H26.5833V27.75Z" fill="url(#paint2_linear)"/>
</g>
<path opacity="0.2" d="M29.75 29.5C29.7494 29.8978 28.3004 30.2793 25.7219 30.5605C23.1433 30.8418 19.6463 30.9998 16 30.9998C12.3537 30.9998 8.85667 30.8418 6.27811 30.5605C3.69955 30.2793 2.25062 29.8978 2.25 29.5C2.24969 29.303 2.60512 29.1079 3.29598 28.9259C3.98685 28.7439 4.99962 28.5785 6.27645 28.4392C7.55329 28.2999 9.06918 28.1894 10.7376 28.114C12.4059 28.0386 14.1941 27.9998 16 27.9998C17.8059 27.9998 19.5941 28.0386 21.2624 28.114C22.9308 28.1894 24.4467 28.2999 25.7235 28.4392C27.0004 28.5785 28.0132 28.7439 28.704 28.9259C29.3949 29.1079 29.7503 29.303 29.75 29.5Z" fill="url(#paint3_radial)"/>
<path d="M26.375 3.875H5.625C4.24429 3.875 3.125 4.99429 3.125 6.375V27.125C3.125 28.5057 4.24429 29.625 5.625 29.625H26.375C27.7557 29.625 28.875 28.5057 28.875 27.125V6.375C28.875 4.99429 27.7557 3.875 26.375 3.875Z" fill="url(#paint4_linear)"/>
<path opacity="0.3" d="M26.375 4.125H5.625C4.38236 4.125 3.375 5.13236 3.375 6.375V27.125C3.375 28.3676 4.38236 29.375 5.625 29.375H26.375C27.6176 29.375 28.625 28.3676 28.625 27.125V6.375C28.625 5.13236 27.6176 4.125 26.375 4.125Z" stroke="url(#paint5_linear)" stroke-width="0.5" stroke-linecap="round" stroke-linejoin="round"/>
<path opacity="0.5" d="M26.375 3.875H5.625C4.24429 3.875 3.125 4.99429 3.125 6.375V27.125C3.125 28.5057 4.24429 29.625 5.625 29.625H26.375C27.7557 29.625 28.875 28.5057 28.875 27.125V6.375C28.875 4.99429 27.7557 3.875 26.375 3.875Z" stroke="#7E8087" stroke-width="0.5" stroke-linecap="round" stroke-linejoin="round"/>
<path d="M26.2743 3.75H5.72573C4.35842 3.75 3.25 4.85842 3.25 6.22573V26.7743C3.25 28.1416 4.35842 29.25 5.72573 29.25H26.2743C27.6416 29.25 28.75 28.1416 28.75 26.7743V6.22573C28.75 4.85842 27.6416 3.75 26.2743 3.75Z" fill="url(#paint6_linear)"/>
<path opacity="0.3" d="M26.2723 4H5.72772C4.49739 4 3.5 4.99739 3.5 6.22772V26.7723C3.5 28.0026 4.49739 29 5.72772 29H26.2723C27.5026 29 28.5 28.0026 28.5 26.7723V6.22772C28.5 4.99739 27.5026 4 26.2723 4Z" stroke="url(#paint7_linear)" stroke-width="0.5" stroke-linecap="round" stroke-linejoin="round"/>
<path opacity="0.5" d="M26.2743 3.75H5.72573C4.35842 3.75 3.25 4.85842 3.25 6.22573V26.7743C3.25 28.1416 4.35842 29.25 5.72573 29.25H26.2743C27.6416 29.25 28.75 28.1416 28.75 26.7743V6.22573C28.75 4.85842 27.6416 3.75 26.2743 3.75Z" stroke="#7E8087" stroke-linecap="round" stroke-linejoin="round"/>
<path d="M26.2743 3.75H5.72573C4.35842 3.75 3.25 4.83669 3.25 6.17718V26.3228C3.25 27.6633 4.35842 28.75 5.72573 28.75H26.2743C27.6416 28.75 28.75 27.6633 28.75 26.3228V6.17718C28.75 4.83669 27.6416 3.75 26.2743 3.75Z" fill="url(#paint8_linear)"/>
<path opacity="0.3" d="M26.2723 4H5.72772C4.49739 4 3.5 4.97744 3.5 6.18317V26.3168C3.5 27.5226 4.49739 28.5 5.72772 28.5H26.2723C27.5026 28.5 28.5 27.5226 28.5 26.3168V6.18317C28.5 4.97744 27.5026 4 26.2723 4Z" stroke="url(#paint9_linear)" stroke-width="0.5" stroke-linecap="round" stroke-linejoin="round"/>
<path opacity="0.5" d="M26.2743 3.75H5.72573C4.35842 3.75 3.25 4.83669 3.25 6.17718V26.3228C3.25 27.6633 4.35842 28.75 5.72573 28.75H26.2743C27.6416 28.75 28.75 27.6633 28.75 26.3228V6.17718C28.75 4.83669 27.6416 3.75 26.2743 3.75Z" stroke="#7E8087" stroke-linecap="round" stroke-linejoin="round"/>
<path d="M26.2743 4H5.72573C4.35842 4 3.25 5.05409 3.25 6.35437V25.8956C3.25 27.1959 4.35842 28.25 5.72573 28.25H26.2743C27.6416 28.25 28.75 27.1959 28.75 25.8956V6.35437C28.75 5.05409 27.6416 4 26.2743 4Z" fill="url(#paint10_linear)"/>
<path opacity="0.3" d="M26.2723 4.25H5.72772C4.49739 4.25 3.5 5.19752 3.5 6.36634V25.8837C3.5 27.0525 4.49739 28 5.72772 28H26.2723C27.5026 28 28.5 27.0525 28.5 25.8837V6.36634C28.5 5.19752 27.5026 4.25 26.2723 4.25Z" stroke="url(#paint11_linear)" stroke-width="0.5" stroke-linecap="round" stroke-linejoin="round"/>
<path opacity="0.5" d="M26.2743 4H5.72573C4.35842 4 3.25 5.05409 3.25 6.35437V25.8956C3.25 27.1959 4.35842 28.25 5.72573 28.25H26.2743C27.6416 28.25 28.75 27.1959 28.75 25.8956V6.35437C28.75 5.05409 27.6416 4 26.2743 4Z" stroke="#7E8087" stroke-width="0.5" stroke-linecap="round" stroke-linejoin="round"/>
<path d="M26.2743 3.75H5.72573C4.35842 3.75 3.25 4.79322 3.25 6.0801V25.4199C3.25 26.7068 4.35842 27.75 5.72573 27.75H26.2743C27.6416 27.75 28.75 26.7068 28.75 25.4199V6.0801C28.75 4.79322 27.6416 3.75 26.2743 3.75Z" fill="url(#paint12_linear)"/>
<path opacity="0.3" d="M26.2723 4H5.72772C4.49739 4 3.5 4.93754 3.5 6.09406V25.4059C3.5 26.5625 4.49739 27.5 5.72772 27.5H26.2723C27.5026 27.5 28.5 26.5625 28.5 25.4059V6.09406C28.5 4.93754 27.5026 4 26.2723 4Z" stroke="url(#paint13_linear)" stroke-linecap="round" stroke-linejoin="round"/>
<path opacity="0.8" d="M26.2743 3.75H5.72573C4.35842 3.75 3.25 4.79322 3.25 6.0801V25.4199C3.25 26.7068 4.35842 27.75 5.72573 27.75H21.4727C22.8458 27.75 23.5468 25.3162 24.3443 24.1985C25.4153 22.6976 28.75 22.6373 28.75 20.7935V6.0801C28.75 4.79322 27.6416 3.75 26.2743 3.75Z" stroke="#7E8087" stroke-linecap="round" stroke-linejoin="round"/>
<path d="M8 8.25V9.58333C8 10.3167 8.60533 10.9167 9.33333 10.9167C12.5159 10.9167 15.5682 12.181 17.8187 14.4314C20.0691 16.6818 21.3333 19.7341 21.3333 22.9167C21.3333 23.65 21.9387 24.25 22.6667 24.25H24V22.9167C24 19.0268 22.4546 15.2963 19.7041 12.5458C16.9536 9.79524 13.2232 8.25 9.33333 8.25H8ZM8 13.5833V14.9167C8 15.65 8.60533 16.25 9.33333 16.25C11.1014 16.25 12.7973 16.9524 14.0475 18.2026C15.2978 19.4529 16 21.1486 16 22.9167C16 23.65 16.6053 24.25 17.3333 24.25H18.6667V22.9167C18.6667 20.4413 17.6833 18.0674 15.9329 16.317C14.1826 14.5667 11.8087 13.5833 9.33333 13.5833H8ZM10.6667 18.9167C9.95942 18.9167 9.28102 19.1976 8.78092 19.6977C8.28083 20.1978 8 20.8761 8 21.5833C8 22.2906 8.28083 22.9689 8.78092 23.469C9.28102 23.9691 9.95942 24.25 10.6667 24.25C11.3739 24.25 12.0523 23.9691 12.5524 23.469C13.0525 22.9689 13.3333 22.2906 13.3333 21.5833C13.3333 20.8761 13.0525 20.1978 12.5524 19.6977C12.0523 19.1976 11.3739 18.9167 10.6667 18.9167Z" fill="black" fill-opacity="0.15"/>
<path d="M8 8.25V9.58333C8 10.3167 8.60533 10.9167 9.33333 10.9167C12.5159 10.9167 15.5682 12.181 17.8187 14.4314C20.0691 16.6818 21.3333 19.7341 21.3333 22.9167C21.3333 23.65 21.9387 24.25 22.6667 24.25H24V22.9167C24 19.0268 22.4546 15.2963 19.7041 12.5458C16.9536 9.79524 13.2232 8.25 9.33333 8.25H8ZM8 13.5833V14.9167C8 15.65 8.60533 16.25 9.33333 16.25C11.1014 16.25 12.7973 16.9524 14.0475 18.2026C15.2978 19.4529 16 21.1486 16 22.9167C16 23.65 16.6053 24.25 17.3333 24.25H18.6667V22.9167C18.6667 20.4413 17.6833 18.0674 15.9329 16.317C14.1826 14.5667 11.8087 13.5833 9.33333 13.5833H8ZM10.6667 18.9167C9.95942 18.9167 9.28102 19.1976 8.78092 19.6977C8.28083 20.1978 8 20.8761 8 21.5833C8 22.2906 8.28083 22.9689 8.78092 23.469C9.28102 23.9691 9.95942 24.25 10.6667 24.25C11.3739 24.25 12.0523 23.9691 12.5524 23.469C13.0525 22.9689 13.3333 22.2906 13.3333 21.5833C13.3333 20.8761 13.0525 20.1978 12.5524 19.6977C12.0523 19.1976 11.3739 18.9167 10.6667 18.9167Z" fill="black" fill-opacity="0.15" stroke="black" stroke-opacity="0.07"/>
<path d="M8 8V9.33333C8 10.0667 8.60533 10.6667 9.33333 10.6667C12.5159 10.6667 15.5682 11.931 17.8187 14.1814C20.0691 16.4318 21.3333 19.4841 21.3333 22.6667C21.3333 23.4 21.9387 24 22.6667 24H24V22.6667C24 18.7768 22.4546 15.0463 19.7041 12.2958C16.9536 9.54524 13.2232 8 9.33333 8H8ZM8 13.3333V14.6667C8 15.4 8.60533 16 9.33333 16C11.1014 16 12.7973 16.7024 14.0475 17.9526C15.2978 19.2029 16 20.8986 16 22.6667C16 23.4 16.6053 24 17.3333 24H18.6667V22.6667C18.6667 20.1913 17.6833 17.8174 15.9329 16.067C14.1826 14.3167 11.8087 13.3333 9.33333 13.3333H8ZM10.6667 18.6667C9.95942 18.6667 9.28102 18.9476 8.78092 19.4477C8.28083 19.9478 8 20.6261 8 21.3333C8 22.0406 8.28083 22.7189 8.78092 23.219C9.28102 23.7191 9.95942 24 10.6667 24C11.3739 24 12.0523 23.7191 12.5524 23.219C13.0525 22.7189 13.3333 22.0406 13.3333 21.3333C13.3333 20.6261 13.0525 19.9478 12.5524 19.4477C12.0523 18.9476 11.3739 18.6667 10.6667 18.6667Z" fill="#333333"/>
<g filter="url(#filter0_dd)">
<path d="M23.2897 24.3073C22.9837 26.7555 21.8024 27.6225 21.25 27.75C28.0064 27.3675 29.1537 20.2271 28.6438 21.3747C28.1339 22.5223 25.8392 23.0323 24.5645 23.0323C23.5446 23.0323 23.2897 23.8823 23.2897 24.3073Z" fill="url(#paint14_linear)"/>
<path d="M23.2897 24.3073C22.9837 26.7555 21.8024 27.6225 21.25 27.75C28.0064 27.3675 29.1537 20.2271 28.6438 21.3747C28.1339 22.5223 25.8392 23.0323 24.5645 23.0323C23.5446 23.0323 23.2897 23.8823 23.2897 24.3073Z" stroke="#818389"/>
</g>
</g>
<defs>
<filter id="filter0_dd" x="14.1376" y="13.7498" width="21.1124" height="24.4994" filterUnits="userSpaceOnUse" color-interpolation-filters="sRGB">
<feFlood flood-opacity="0" result="BackgroundImageFix"/>
<feColorMatrix in="SourceAlpha" type="matrix" values="0 0 0 0 0 0 0 0 0 0 0 0 0 0 0 0 0 0 127 0" result="hardAlpha"/>
<feOffset dx="-2" dy="-2"/>
<feGaussianBlur stdDeviation="2.5"/>
<feComposite in2="hardAlpha" operator="out"/>
<feColorMatrix type="matrix" values="0 0 0 0 0 0 0 0 0 0 0 0 0 0 0 0 0 0 0.2 0"/>
<feBlend mode="normal" in2="BackgroundImageFix" result="effect1_dropShadow"/>
<feColorMatrix in="SourceAlpha" type="matrix" values="0 0 0 0 0 0 0 0 0 0 0 0 0 0 0 0 0 0 127 0" result="hardAlpha"/>
<feOffset dy="4"/>
<feGaussianBlur stdDeviation="3"/>
<feComposite in2="hardAlpha" operator="out"/>
<feColorMatrix type="matrix" values="0 0 0 0 0 0 0 0 0 0 0 0 0 0 0 0 0 0 0.4 0"/>
<feBlend mode="normal" in2="effect1_dropShadow" result="effect2_dropShadow"/>
<feBlend mode="normal" in="SourceGraphic" in2="effect2_dropShadow" result="shape"/>
</filter>
<radialGradient id="paint0_radial" cx="0" cy="0" r="1" gradientUnits="userSpaceOnUse" gradientTransform="translate(26.5777 29.25) scale(4.00757 1.5)">
<stop stop-color="#181818"/>
<stop offset="1" stop-color="#181818" stop-opacity="0"/>
</radialGradient>
<radialGradient id="paint1_radial" cx="0" cy="0" r="1" gradientUnits="userSpaceOnUse" gradientTransform="translate(5.25562 29.25) rotate(180) scale(4.00757 1.5)">
<stop stop-color="#181818"/>
<stop offset="1" stop-color="#181818" stop-opacity="0"/>
</radialGradient>
<linearGradient id="paint2_linear" x1="16.7228" y1="30.7619" x2="16.7228" y2="27.7498" gradientUnits="userSpaceOnUse">
<stop stop-color="#181818" stop-opacity="0"/>
<stop offset="0.5" stop-color="#181818"/>
<stop offset="1" stop-color="#181818" stop-opacity="0"/>
</linearGradient>
<radialGradient id="paint3_radial" cx="0" cy="0" r="1" gradientUnits="userSpaceOnUse" gradientTransform="translate(16 29.5) scale(13.75 1.5)">
<stop/>
<stop offset="1" stop-opacity="0"/>
</radialGradient>
<linearGradient id="paint4_linear" x1="15.7179" y1="3.97683" x2="15.7179" y2="29.6067" gradientUnits="userSpaceOnUse">
<stop stop-color="#FAFAFA"/>
<stop offset="1" stop-color="#D4D4D4"/>
</linearGradient>
<linearGradient id="paint5_linear" x1="16" y1="3.78378" x2="16" y2="29.7162" gradientUnits="userSpaceOnUse">
<stop stop-color="white"/>
<stop offset="0.0631645" stop-color="white" stop-opacity="0.235294"/>
<stop offset="0.950563" stop-color="white" stop-opacity="0.156863"/>
<stop offset="1" stop-color="white" stop-opacity="0.392157"/>
</linearGradient>
<linearGradient id="paint6_linear" x1="15.7206" y1="3.85084" x2="15.7206" y2="29.2319" gradientUnits="userSpaceOnUse">
<stop stop-color="#FAFAFA"/>
<stop offset="1" stop-color="#D4D4D4"/>
</linearGradient>
<linearGradient id="paint7_linear" x1="16" y1="3.66216" x2="16" y2="29.3378" gradientUnits="userSpaceOnUse">
<stop stop-color="white"/>
<stop offset="0.0631645" stop-color="white" stop-opacity="0.235294"/>
<stop offset="0.950563" stop-color="white" stop-opacity="0.156863"/>
<stop offset="1" stop-color="white" stop-opacity="0.392157"/>
</linearGradient>
<linearGradient id="paint8_linear" x1="15.7206" y1="3.84886" x2="15.7206" y2="28.7323" gradientUnits="userSpaceOnUse">
<stop stop-color="#FAFAFA"/>
<stop offset="1" stop-color="#D4D4D4"/>
</linearGradient>
<linearGradient id="paint9_linear" x1="16" y1="3.66892" x2="16" y2="28.8311" gradientUnits="userSpaceOnUse">
<stop stop-color="white"/>
<stop offset="0.0631645" stop-color="white" stop-opacity="0.235294"/>
<stop offset="0.950563" stop-color="white" stop-opacity="0.156863"/>
<stop offset="1" stop-color="white" stop-opacity="0.392157"/>
</linearGradient>
<linearGradient id="paint10_linear" x1="15.7206" y1="4.0959" x2="15.7206" y2="28.2328" gradientUnits="userSpaceOnUse">
<stop stop-color="#FAFAFA"/>
<stop offset="1" stop-color="#D4D4D4"/>
</linearGradient>
<linearGradient id="paint11_linear" x1="16" y1="3.92905" x2="16" y2="28.321" gradientUnits="userSpaceOnUse">
<stop stop-color="white"/>
<stop offset="0.0631645" stop-color="white" stop-opacity="0.235294"/>
<stop offset="0.950563" stop-color="white" stop-opacity="0.156863"/>
<stop offset="1" stop-color="white" stop-opacity="0.392157"/>
</linearGradient>
<linearGradient id="paint12_linear" x1="15.4005" y1="3.75" x2="15.4005" y2="27.75" gradientUnits="userSpaceOnUse">
<stop stop-color="#FAFAFA"/>
<stop offset="1" stop-color="#D4D4D4"/>
</linearGradient>
<linearGradient id="paint13_linear" x1="16" y1="3.68243" x2="16" y2="27.8176" gradientUnits="userSpaceOnUse">
<stop stop-color="white"/>
<stop offset="0.0631645" stop-color="white" stop-opacity="0.235294"/>
<stop offset="0.950563" stop-color="white" stop-opacity="0.156863"/>
<stop offset="1" stop-color="white" stop-opacity="0.392157"/>
</linearGradient>
<linearGradient id="paint14_linear" x1="25" y1="21.25" x2="25" y2="27.75" gradientUnits="userSpaceOnUse">
<stop stop-color="#FAFAFA"/>
<stop offset="1" stop-color="#D4D4D4"/>
</linearGradient>
<clipPath id="clip0">
<rect width="32" height="32" fill="white"/>
</clipPath>
</defs>
</svg>
