<svg width="64" height="64" viewBox="0 0 64 64" fill="none" xmlns="http://www.w3.org/2000/svg">
<path opacity="0.2" d="M59.5 59.0009C59.4984 59.7965 56.6004 60.5593 51.4434 61.1218C46.2863 61.6843 39.2924 62.0003 32 62.0003C24.7076 62.0003 17.7137 61.6843 12.5566 61.1218C7.39955 60.5593 4.50156 59.7965 4.5 59.0009C4.49923 58.6069 5.20997 58.2167 6.59163 57.8527C7.97329 57.4886 9.9988 57.1578 12.5525 56.8792C15.1062 56.6005 18.138 56.3795 21.4749 56.2287C24.8117 56.0779 28.3882 56.0003 32 56.0003C35.6118 56.0003 39.1883 56.0779 42.5252 56.2287C45.862 56.3795 48.8938 56.6005 51.4475 56.8792C54.0012 57.1578 56.0267 57.4886 57.4084 57.8527C58.79 58.2167 59.5008 58.6069 59.5 59.0009Z" fill="url(#paint0_radial)"/>
<g opacity="0.4">
<path opacity="0.4" d="M59 58.0009H51.8947V60.5009H59V58.0009Z" fill="url(#paint1_radial)"/>
<path opacity="0.4" d="M5 60.5009H12.1053V58.0009H5V60.5009Z" fill="url(#paint2_radial)"/>
<path opacity="0.4" d="M51.8947 58.0009H12.1053V60.5009H51.8947V58.0009Z" fill="url(#paint3_linear)"/>
</g>
<path d="M54.7227 7.75092H9.27727C7.60536 7.75092 6.25 9.10627 6.25 10.7782V56.2236C6.25 57.8956 7.60536 59.2509 9.27727 59.2509H54.7227C56.3946 59.2509 57.75 57.8956 57.75 56.2236V10.7782C57.75 9.10627 56.3946 7.75092 54.7227 7.75092Z" fill="url(#paint4_linear)"/>
<path opacity="0.5" d="M54.75 8.25092H9.25C7.86929 8.25092 6.75 9.3702 6.75 10.7509V56.2509C6.75 57.6316 7.86929 58.7509 9.25 58.7509H54.75C56.1307 58.7509 57.25 57.6316 57.25 56.2509V10.7509C57.25 9.3702 56.1307 8.25092 54.75 8.25092Z" stroke="url(#paint5_linear)" stroke-linecap="round" stroke-linejoin="round"/>
<path opacity="0.8" d="M54.7227 7.75092H9.27727C7.60536 7.75092 6.25 9.10627 6.25 10.7782V56.2236C6.25 57.8956 7.60536 59.2509 9.27727 59.2509H54.7227C56.3946 59.2509 57.75 57.8956 57.75 56.2236V10.7782C57.75 9.10627 56.3946 7.75092 54.7227 7.75092Z" stroke="#ABACAE" stroke-linecap="round" stroke-linejoin="round"/>
<path d="M22.2344 21.8047L22.0078 20.3359C21.9922 20.2578 21.9609 20.1901 21.9141 20.1328C21.8672 20.0755 21.8073 20.0469 21.7344 20.0469H18.3281V24.2109H20.7734C20.8464 24.2109 20.9089 24.1771 20.9609 24.1094C21.0182 24.0417 21.0521 23.9792 21.0625 23.9219L21.2109 22.7969H22.0078V26.3984H21.2109L21.0625 25.2812C21.0521 25.224 21.0182 25.1615 20.9609 25.0938C20.9036 25.026 20.8411 24.9922 20.7734 24.9922H18.3281V28.8984C18.3281 28.9766 18.3542 29.0521 18.4062 29.125C18.4635 29.1979 18.5495 29.2396 18.6641 29.25L19.7344 29.3125V30H15.5312V29.3125L16.375 29.25C16.4896 29.2396 16.5729 29.1979 16.625 29.125C16.6823 29.0521 16.7109 28.9766 16.7109 28.8984V20.3672C16.7109 20.2891 16.6823 20.2135 16.625 20.1406C16.5729 20.0677 16.4896 20.026 16.375 20.0156L15.3984 19.9531V19.2656H23.1797V21.8047H22.2344ZM30.9531 29.2031C30.7292 29.3438 30.4948 29.474 30.25 29.5938C30.0104 29.7135 29.7604 29.8177 29.5 29.9062C29.2448 29.9948 28.9844 30.0651 28.7188 30.1172C28.4531 30.1693 28.1849 30.1953 27.9141 30.1953C27.4297 30.1953 26.9635 30.1146 26.5156 29.9531C26.0677 29.7865 25.6719 29.5391 25.3281 29.2109C24.9896 28.8828 24.7161 28.4714 24.5078 27.9766C24.3047 27.4766 24.2031 26.8932 24.2031 26.2266C24.2031 25.6016 24.2969 25.0365 24.4844 24.5312C24.6719 24.0208 24.9323 23.5859 25.2656 23.2266C25.599 22.862 25.9948 22.5833 26.4531 22.3906C26.9115 22.1927 27.4141 22.0938 27.9609 22.0938C28.4557 22.0938 28.8906 22.1771 29.2656 22.3438C29.6406 22.5052 29.9531 22.7318 30.2031 23.0234C30.4531 23.3099 30.6406 23.6562 30.7656 24.0625C30.8906 24.4635 30.9531 24.901 30.9531 25.375V25.5859C30.9531 25.6693 30.9479 25.7474 30.9375 25.8203H25.75C25.75 26.2266 25.7917 26.6328 25.875 27.0391C25.9635 27.4453 26.1094 27.8099 26.3125 28.1328C26.5156 28.4557 26.7891 28.7188 27.1328 28.9219C27.4766 29.1198 27.9062 29.2188 28.4219 29.2188C28.651 29.2188 28.8776 29.1901 29.1016 29.1328C29.3255 29.0703 29.5443 28.9922 29.7578 28.8984C29.9766 28.8047 30.1849 28.7005 30.3828 28.5859C30.5807 28.4661 30.7708 28.3464 30.9531 28.2266V29.2031ZM29.3516 24.75C29.3516 24.4844 29.3203 24.2396 29.2578 24.0156C29.1953 23.7865 29.099 23.5885 28.9688 23.4219C28.8438 23.2552 28.6823 23.125 28.4844 23.0312C28.2917 22.9323 28.0625 22.8828 27.7969 22.8828C27.5312 22.8828 27.2839 22.9349 27.0547 23.0391C26.8255 23.138 26.6224 23.2839 26.4453 23.4766C26.2734 23.6693 26.1328 23.9036 26.0234 24.1797C25.9193 24.4505 25.8568 24.7578 25.8359 25.1016H29.3516V24.75ZM38.7969 29.2031C38.5729 29.3438 38.3385 29.474 38.0938 29.5938C37.8542 29.7135 37.6042 29.8177 37.3438 29.9062C37.0885 29.9948 36.8281 30.0651 36.5625 30.1172C36.2969 30.1693 36.0286 30.1953 35.7578 30.1953C35.2734 30.1953 34.8073 30.1146 34.3594 29.9531C33.9115 29.7865 33.5156 29.5391 33.1719 29.2109C32.8333 28.8828 32.5599 28.4714 32.3516 27.9766C32.1484 27.4766 32.0469 26.8932 32.0469 26.2266C32.0469 25.6016 32.1406 25.0365 32.3281 24.5312C32.5156 24.0208 32.776 23.5859 33.1094 23.2266C33.4427 22.862 33.8385 22.5833 34.2969 22.3906C34.7552 22.1927 35.2578 22.0938 35.8047 22.0938C36.2995 22.0938 36.7344 22.1771 37.1094 22.3438C37.4844 22.5052 37.7969 22.7318 38.0469 23.0234C38.2969 23.3099 38.4844 23.6562 38.6094 24.0625C38.7344 24.4635 38.7969 24.901 38.7969 25.375V25.5859C38.7969 25.6693 38.7917 25.7474 38.7812 25.8203H33.5938C33.5938 26.2266 33.6354 26.6328 33.7188 27.0391C33.8073 27.4453 33.9531 27.8099 34.1562 28.1328C34.3594 28.4557 34.6328 28.7188 34.9766 28.9219C35.3203 29.1198 35.75 29.2188 36.2656 29.2188C36.4948 29.2188 36.7214 29.1901 36.9453 29.1328C37.1693 29.0703 37.388 28.9922 37.6016 28.8984C37.8203 28.8047 38.0286 28.7005 38.2266 28.5859C38.4245 28.4661 38.6146 28.3464 38.7969 28.2266V29.2031ZM37.1953 24.75C37.1953 24.4844 37.1641 24.2396 37.1016 24.0156C37.0391 23.7865 36.9427 23.5885 36.8125 23.4219C36.6875 23.2552 36.526 23.125 36.3281 23.0312C36.1354 22.9323 35.9062 22.8828 35.6406 22.8828C35.375 22.8828 35.1276 22.9349 34.8984 23.0391C34.6693 23.138 34.4661 23.2839 34.2891 23.4766C34.1172 23.6693 33.9766 23.9036 33.8672 24.1797C33.763 24.4505 33.7005 24.7578 33.6797 25.1016H37.1953V24.75ZM45.4375 30V29.1484C45.2552 29.2891 45.0651 29.4245 44.8672 29.5547C44.6745 29.6797 44.474 29.7891 44.2656 29.8828C44.0625 29.9766 43.8516 30.0521 43.6328 30.1094C43.4193 30.1667 43.1953 30.1953 42.9609 30.1953C42.4245 30.1953 41.9609 30.0807 41.5703 29.8516C41.1849 29.6172 40.8672 29.3177 40.6172 28.9531C40.3672 28.5833 40.1823 28.1719 40.0625 27.7188C39.9479 27.2604 39.8906 26.8047 39.8906 26.3516C39.8906 25.8099 39.974 25.2839 40.1406 24.7734C40.3073 24.2578 40.5599 23.8021 40.8984 23.4062C41.237 23.0104 41.6615 22.6927 42.1719 22.4531C42.6823 22.2135 43.2812 22.0938 43.9688 22.0938C44.0938 22.0938 44.2292 22.1016 44.375 22.1172C44.5208 22.1328 44.6615 22.151 44.7969 22.1719C44.9375 22.1875 45.0625 22.2083 45.1719 22.2344C45.2865 22.2552 45.375 22.2734 45.4375 22.2891V19.3594H44.2266V18.8281L46.2891 18.2109H46.9297V28.9766C46.9297 29.0755 46.9609 29.1562 47.0234 29.2188C47.0859 29.2812 47.1667 29.3177 47.2656 29.3281L47.9531 29.375V30H45.4375ZM45.4375 23.1016C45.3698 23.0807 45.2812 23.0573 45.1719 23.0312C45.0677 23 44.9531 22.974 44.8281 22.9531C44.7083 22.9271 44.5807 22.9062 44.4453 22.8906C44.3151 22.875 44.1927 22.8672 44.0781 22.8672C43.6823 22.8672 43.3229 22.9453 43 23.1016C42.6771 23.2526 42.401 23.4688 42.1719 23.75C41.9479 24.026 41.7734 24.362 41.6484 24.7578C41.5286 25.1536 41.4688 25.5938 41.4688 26.0781C41.4688 26.5156 41.5208 26.9193 41.625 27.2891C41.7292 27.6536 41.8802 27.9714 42.0781 28.2422C42.276 28.513 42.5182 28.724 42.8047 28.875C43.0911 29.026 43.4193 29.1016 43.7891 29.1016C43.9505 29.1016 44.1068 29.0859 44.2578 29.0547C44.4089 29.0182 44.5547 28.974 44.6953 28.9219C44.8359 28.8646 44.9688 28.8047 45.0938 28.7422C45.2188 28.6745 45.3333 28.6094 45.4375 28.5469V23.1016Z" fill="black" fill-opacity="0.15"/>
<path d="M18.62 34.38L17.04 34.14V33.14H22.48V34.14L20.76 34.38V39.76H27.8V34.38L26.18 34.14V33.14H31.54V34.14L29.96 34.38V46.82L31.54 47.02V48H26.16V47.02L27.8 46.82V41H20.76V46.82L22.5 47.02V48H17V47.02L18.62 46.82V34.38ZM48.7425 51.96C48.1425 51.96 47.5758 51.86 47.0425 51.66C46.5092 51.46 46.0225 51.2133 45.5825 50.92C45.1558 50.64 44.6425 50.2667 44.0425 49.8C43.3892 49.2933 42.8358 48.9 42.3825 48.62C41.9425 48.34 41.4892 48.1533 41.0225 48.06C40.5292 48.1667 40.0492 48.22 39.5825 48.22C38.2358 48.22 37.0892 47.9067 36.1425 47.28C35.1958 46.6533 34.4825 45.7733 34.0025 44.64C33.5225 43.4933 33.2825 42.1667 33.2825 40.66C33.2825 39.1267 33.5692 37.78 34.1425 36.62C34.7292 35.46 35.5292 34.5667 36.5425 33.94C37.5558 33.3 38.7025 32.98 39.9825 32.98C42.0625 32.98 43.6492 33.64 44.7425 34.96C45.8358 36.2667 46.3825 38.08 46.3825 40.4C46.3825 42.12 46.0225 43.6067 45.3025 44.86C44.5958 46.1133 43.6358 47.0267 42.4225 47.6C43.0225 47.6533 43.6025 47.8 44.1625 48.04C44.7225 48.28 45.3825 48.62 46.1425 49.06C46.9825 49.5133 47.6625 49.8467 48.1825 50.06C48.7025 50.2733 49.2358 50.38 49.7825 50.38C50.0092 50.38 50.2158 50.3667 50.4025 50.34L50.6425 51.2C50.4025 51.4533 50.1158 51.64 49.7825 51.76C49.4492 51.8933 49.1025 51.96 48.7425 51.96ZM39.8025 47.16C41.0958 47.16 42.1158 46.5867 42.8625 45.44C43.6092 44.28 43.9825 42.6067 43.9825 40.42C43.9825 38.4067 43.6225 36.84 42.9025 35.72C42.1825 34.5867 41.1692 34.02 39.8625 34.02C38.5692 34.02 37.5425 34.58 36.7825 35.7C36.0358 36.82 35.6625 38.4733 35.6625 40.66C35.6625 42.66 36.0225 44.2467 36.7425 45.42C37.4758 46.58 38.4958 47.16 39.8025 47.16Z" fill="black" fill-opacity="0.15"/>
<path d="M22.2344 21.8047L22.0078 20.3359C21.9922 20.2578 21.9609 20.1901 21.9141 20.1328C21.8672 20.0755 21.8073 20.0469 21.7344 20.0469H18.3281V24.2109H20.7734C20.8464 24.2109 20.9089 24.1771 20.9609 24.1094C21.0182 24.0417 21.0521 23.9792 21.0625 23.9219L21.2109 22.7969H22.0078V26.3984H21.2109L21.0625 25.2812C21.0521 25.224 21.0182 25.1615 20.9609 25.0938C20.9036 25.026 20.8411 24.9922 20.7734 24.9922H18.3281V28.8984C18.3281 28.9766 18.3542 29.0521 18.4062 29.125C18.4635 29.1979 18.5495 29.2396 18.6641 29.25L19.7344 29.3125V30H15.5312V29.3125L16.375 29.25C16.4896 29.2396 16.5729 29.1979 16.625 29.125C16.6823 29.0521 16.7109 28.9766 16.7109 28.8984V20.3672C16.7109 20.2891 16.6823 20.2135 16.625 20.1406C16.5729 20.0677 16.4896 20.026 16.375 20.0156L15.3984 19.9531V19.2656H23.1797V21.8047H22.2344ZM30.9531 29.2031C30.7292 29.3438 30.4948 29.474 30.25 29.5938C30.0104 29.7135 29.7604 29.8177 29.5 29.9062C29.2448 29.9948 28.9844 30.0651 28.7188 30.1172C28.4531 30.1693 28.1849 30.1953 27.9141 30.1953C27.4297 30.1953 26.9635 30.1146 26.5156 29.9531C26.0677 29.7865 25.6719 29.5391 25.3281 29.2109C24.9896 28.8828 24.7161 28.4714 24.5078 27.9766C24.3047 27.4766 24.2031 26.8932 24.2031 26.2266C24.2031 25.6016 24.2969 25.0365 24.4844 24.5312C24.6719 24.0208 24.9323 23.5859 25.2656 23.2266C25.599 22.862 25.9948 22.5833 26.4531 22.3906C26.9115 22.1927 27.4141 22.0938 27.9609 22.0938C28.4557 22.0938 28.8906 22.1771 29.2656 22.3438C29.6406 22.5052 29.9531 22.7318 30.2031 23.0234C30.4531 23.3099 30.6406 23.6562 30.7656 24.0625C30.8906 24.4635 30.9531 24.901 30.9531 25.375V25.5859C30.9531 25.6693 30.9479 25.7474 30.9375 25.8203H25.75C25.75 26.2266 25.7917 26.6328 25.875 27.0391C25.9635 27.4453 26.1094 27.8099 26.3125 28.1328C26.5156 28.4557 26.7891 28.7188 27.1328 28.9219C27.4766 29.1198 27.9062 29.2188 28.4219 29.2188C28.651 29.2188 28.8776 29.1901 29.1016 29.1328C29.3255 29.0703 29.5443 28.9922 29.7578 28.8984C29.9766 28.8047 30.1849 28.7005 30.3828 28.5859C30.5807 28.4661 30.7708 28.3464 30.9531 28.2266V29.2031ZM29.3516 24.75C29.3516 24.4844 29.3203 24.2396 29.2578 24.0156C29.1953 23.7865 29.099 23.5885 28.9688 23.4219C28.8438 23.2552 28.6823 23.125 28.4844 23.0312C28.2917 22.9323 28.0625 22.8828 27.7969 22.8828C27.5312 22.8828 27.2839 22.9349 27.0547 23.0391C26.8255 23.138 26.6224 23.2839 26.4453 23.4766C26.2734 23.6693 26.1328 23.9036 26.0234 24.1797C25.9193 24.4505 25.8568 24.7578 25.8359 25.1016H29.3516V24.75ZM38.7969 29.2031C38.5729 29.3438 38.3385 29.474 38.0938 29.5938C37.8542 29.7135 37.6042 29.8177 37.3438 29.9062C37.0885 29.9948 36.8281 30.0651 36.5625 30.1172C36.2969 30.1693 36.0286 30.1953 35.7578 30.1953C35.2734 30.1953 34.8073 30.1146 34.3594 29.9531C33.9115 29.7865 33.5156 29.5391 33.1719 29.2109C32.8333 28.8828 32.5599 28.4714 32.3516 27.9766C32.1484 27.4766 32.0469 26.8932 32.0469 26.2266C32.0469 25.6016 32.1406 25.0365 32.3281 24.5312C32.5156 24.0208 32.776 23.5859 33.1094 23.2266C33.4427 22.862 33.8385 22.5833 34.2969 22.3906C34.7552 22.1927 35.2578 22.0938 35.8047 22.0938C36.2995 22.0938 36.7344 22.1771 37.1094 22.3438C37.4844 22.5052 37.7969 22.7318 38.0469 23.0234C38.2969 23.3099 38.4844 23.6562 38.6094 24.0625C38.7344 24.4635 38.7969 24.901 38.7969 25.375V25.5859C38.7969 25.6693 38.7917 25.7474 38.7812 25.8203H33.5938C33.5938 26.2266 33.6354 26.6328 33.7188 27.0391C33.8073 27.4453 33.9531 27.8099 34.1562 28.1328C34.3594 28.4557 34.6328 28.7188 34.9766 28.9219C35.3203 29.1198 35.75 29.2188 36.2656 29.2188C36.4948 29.2188 36.7214 29.1901 36.9453 29.1328C37.1693 29.0703 37.388 28.9922 37.6016 28.8984C37.8203 28.8047 38.0286 28.7005 38.2266 28.5859C38.4245 28.4661 38.6146 28.3464 38.7969 28.2266V29.2031ZM37.1953 24.75C37.1953 24.4844 37.1641 24.2396 37.1016 24.0156C37.0391 23.7865 36.9427 23.5885 36.8125 23.4219C36.6875 23.2552 36.526 23.125 36.3281 23.0312C36.1354 22.9323 35.9062 22.8828 35.6406 22.8828C35.375 22.8828 35.1276 22.9349 34.8984 23.0391C34.6693 23.138 34.4661 23.2839 34.2891 23.4766C34.1172 23.6693 33.9766 23.9036 33.8672 24.1797C33.763 24.4505 33.7005 24.7578 33.6797 25.1016H37.1953V24.75ZM45.4375 30V29.1484C45.2552 29.2891 45.0651 29.4245 44.8672 29.5547C44.6745 29.6797 44.474 29.7891 44.2656 29.8828C44.0625 29.9766 43.8516 30.0521 43.6328 30.1094C43.4193 30.1667 43.1953 30.1953 42.9609 30.1953C42.4245 30.1953 41.9609 30.0807 41.5703 29.8516C41.1849 29.6172 40.8672 29.3177 40.6172 28.9531C40.3672 28.5833 40.1823 28.1719 40.0625 27.7188C39.9479 27.2604 39.8906 26.8047 39.8906 26.3516C39.8906 25.8099 39.974 25.2839 40.1406 24.7734C40.3073 24.2578 40.5599 23.8021 40.8984 23.4062C41.237 23.0104 41.6615 22.6927 42.1719 22.4531C42.6823 22.2135 43.2812 22.0938 43.9688 22.0938C44.0938 22.0938 44.2292 22.1016 44.375 22.1172C44.5208 22.1328 44.6615 22.151 44.7969 22.1719C44.9375 22.1875 45.0625 22.2083 45.1719 22.2344C45.2865 22.2552 45.375 22.2734 45.4375 22.2891V19.3594H44.2266V18.8281L46.2891 18.2109H46.9297V28.9766C46.9297 29.0755 46.9609 29.1562 47.0234 29.2188C47.0859 29.2812 47.1667 29.3177 47.2656 29.3281L47.9531 29.375V30H45.4375ZM45.4375 23.1016C45.3698 23.0807 45.2812 23.0573 45.1719 23.0312C45.0677 23 44.9531 22.974 44.8281 22.9531C44.7083 22.9271 44.5807 22.9062 44.4453 22.8906C44.3151 22.875 44.1927 22.8672 44.0781 22.8672C43.6823 22.8672 43.3229 22.9453 43 23.1016C42.6771 23.2526 42.401 23.4688 42.1719 23.75C41.9479 24.026 41.7734 24.362 41.6484 24.7578C41.5286 25.1536 41.4688 25.5938 41.4688 26.0781C41.4688 26.5156 41.5208 26.9193 41.625 27.2891C41.7292 27.6536 41.8802 27.9714 42.0781 28.2422C42.276 28.513 42.5182 28.724 42.8047 28.875C43.0911 29.026 43.4193 29.1016 43.7891 29.1016C43.9505 29.1016 44.1068 29.0859 44.2578 29.0547C44.4089 29.0182 44.5547 28.974 44.6953 28.9219C44.8359 28.8646 44.9688 28.8047 45.0938 28.7422C45.2188 28.6745 45.3333 28.6094 45.4375 28.5469V23.1016Z" fill="black" fill-opacity="0.15"/>
<path d="M22.2344 21.8047L21.7402 21.8809L21.8056 22.3047H22.2344V21.8047ZM22.0078 20.3359L22.502 20.2597L22.5003 20.2488L22.4981 20.2379L22.0078 20.3359ZM18.3281 20.0469V19.5469H17.8281V20.0469H18.3281ZM18.3281 24.2109H17.8281V24.7109H18.3281V24.2109ZM20.9609 24.1094L20.5792 23.7864L20.5717 23.7953L20.5646 23.8045L20.9609 24.1094ZM21.0625 23.9219L21.5544 24.0113L21.5566 23.9993L21.5582 23.9873L21.0625 23.9219ZM21.2109 22.7969V22.2969H20.7726L20.7152 22.7315L21.2109 22.7969ZM22.0078 22.7969H22.5078V22.2969H22.0078V22.7969ZM22.0078 26.3984V26.8984H22.5078V26.3984H22.0078ZM21.2109 26.3984L20.7153 26.4643L20.773 26.8984H21.2109V26.3984ZM21.0625 25.2812L21.5581 25.2154L21.5566 25.2036L21.5544 25.1918L21.0625 25.2812ZM18.3281 24.9922V24.4922H17.8281V24.9922H18.3281ZM18.4062 29.125L17.9994 29.4156L18.006 29.4249L18.0131 29.4339L18.4062 29.125ZM18.6641 29.25L18.6188 29.7479L18.6268 29.7487L18.6349 29.7491L18.6641 29.25ZM19.7344 29.3125H20.2344V28.8408L19.7635 28.8134L19.7344 29.3125ZM19.7344 30V30.5H20.2344V30H19.7344ZM15.5312 30H15.0312V30.5H15.5312V30ZM15.5312 29.3125L15.4943 28.8139L15.0312 28.8482V29.3125H15.5312ZM16.375 29.25L16.4119 29.7487L16.4203 29.7479L16.375 29.25ZM16.625 29.125L16.2318 28.8161L16.2248 28.8251L16.2181 28.8344L16.625 29.125ZM16.625 20.1406L16.2181 20.4312L16.2248 20.4405L16.2318 20.4495L16.625 20.1406ZM16.375 20.0156L16.4203 19.5175L16.4069 19.5166L16.375 20.0156ZM15.3984 19.9531H14.8984V20.4221L15.3665 20.4521L15.3984 19.9531ZM15.3984 19.2656V18.7656H14.8984V19.2656H15.3984ZM23.1797 19.2656H23.6797V18.7656H23.1797V19.2656ZM23.1797 21.8047V22.3047H23.6797V21.8047H23.1797ZM22.7285 21.7285L22.502 20.2597L21.5137 20.4122L21.7402 21.8809L22.7285 21.7285ZM22.4981 20.2379C22.4677 20.0858 22.4036 19.9416 22.301 19.8162L21.5271 20.4494C21.5236 20.4451 21.5206 20.4403 21.5187 20.4361C21.5168 20.432 21.5169 20.4308 21.5175 20.434L22.4981 20.2379ZM22.301 19.8162C22.1609 19.6449 21.9599 19.5469 21.7344 19.5469V20.5469C21.7036 20.5469 21.6621 20.5404 21.6183 20.5194C21.5747 20.4986 21.5448 20.4711 21.5271 20.4494L22.301 19.8162ZM21.7344 19.5469H18.3281V20.5469H21.7344V19.5469ZM17.8281 20.0469V24.2109H18.8281V20.0469H17.8281ZM18.3281 24.7109H20.7734V23.7109H18.3281V24.7109ZM20.7734 24.7109C21.0293 24.7109 21.2288 24.5812 21.3572 24.4142L20.5646 23.8045C20.5728 23.7939 20.5954 23.7684 20.6369 23.7459C20.6807 23.7222 20.729 23.7109 20.7734 23.7109V24.7109ZM21.3426 24.4323C21.4293 24.33 21.5222 24.1884 21.5544 24.0113L20.5706 23.8324C20.5766 23.799 20.5867 23.7789 20.5897 23.7736C20.5925 23.7683 20.5909 23.7726 20.5792 23.7864L21.3426 24.4323ZM21.5582 23.9873L21.7066 22.8623L20.7152 22.7315L20.5668 23.8565L21.5582 23.9873ZM21.2109 23.2969H22.0078V22.2969H21.2109V23.2969ZM21.5078 22.7969V26.3984H22.5078V22.7969H21.5078ZM22.0078 25.8984H21.2109V26.8984H22.0078V25.8984ZM21.7066 26.3326L21.5581 25.2154L20.5669 25.3471L20.7153 26.4643L21.7066 26.3326ZM21.5544 25.1918C21.5222 25.0147 21.4293 24.8732 21.3426 24.7708L20.5792 25.4167C20.5909 25.4305 20.5925 25.4348 20.5897 25.4295C20.5867 25.4242 20.5766 25.4041 20.5706 25.3707L21.5544 25.1918ZM21.3426 24.7708C21.2218 24.628 21.0308 24.4922 20.7734 24.4922V25.4922C20.7199 25.4922 20.6711 25.4779 20.633 25.4572C20.5978 25.4382 20.5812 25.419 20.5792 25.4167L21.3426 24.7708ZM20.7734 24.4922H18.3281V25.4922H20.7734V24.4922ZM17.8281 24.9922V28.8984H18.8281V24.9922H17.8281ZM17.8281 28.8984C17.8281 29.0956 17.896 29.2708 17.9994 29.4156L18.8131 28.8344C18.8117 28.8324 18.8159 28.8378 18.8203 28.8507C18.825 28.8642 18.8281 28.8808 18.8281 28.8984H17.8281ZM18.0131 29.4339C18.175 29.64 18.4024 29.7283 18.6188 29.7479L18.7093 28.7521C18.7001 28.7512 18.7107 28.7508 18.7318 28.761C18.755 28.7723 18.7797 28.7911 18.7994 28.8161L18.0131 29.4339ZM18.6349 29.7491L19.7052 29.8116L19.7635 28.8134L18.6932 28.7509L18.6349 29.7491ZM19.2344 29.3125V30H20.2344V29.3125H19.2344ZM19.7344 29.5H15.5312V30.5H19.7344V29.5ZM16.0312 30V29.3125H15.0312V30H16.0312ZM15.5682 29.8111L16.4119 29.7486L16.3381 28.7514L15.4943 28.8139L15.5682 29.8111ZM16.4203 29.7479C16.6357 29.7284 16.8724 29.6388 17.0319 29.4156L16.2181 28.8344C16.2414 28.8018 16.2716 28.7779 16.2998 28.7637C16.3253 28.751 16.339 28.7512 16.3297 28.7521L16.4203 29.7479ZM17.0182 29.4339C17.1312 29.29 17.2109 29.1086 17.2109 28.8984H16.2109C16.2109 28.8749 16.2155 28.8533 16.222 28.8363C16.228 28.8203 16.2337 28.8137 16.2318 28.8161L17.0182 29.4339ZM17.2109 28.8984V20.3672H16.2109V28.8984H17.2109ZM17.2109 20.3672C17.2109 20.1571 17.1312 19.9756 17.0182 19.8317L16.2318 20.4495C16.2337 20.4519 16.228 20.4453 16.222 20.4293C16.2155 20.4123 16.2109 20.3908 16.2109 20.3672H17.2109ZM17.0319 19.85C16.8724 19.6268 16.6357 19.5373 16.4203 19.5177L16.3297 20.5136C16.339 20.5144 16.3253 20.5146 16.2998 20.5019C16.2716 20.4878 16.2414 20.4638 16.2181 20.4312L17.0319 19.85ZM16.4069 19.5166L15.4304 19.4541L15.3665 20.4521L16.3431 20.5146L16.4069 19.5166ZM15.8984 19.9531V19.2656H14.8984V19.9531H15.8984ZM15.3984 19.7656H23.1797V18.7656H15.3984V19.7656ZM22.6797 19.2656V21.8047H23.6797V19.2656H22.6797ZM23.1797 21.3047H22.2344V22.3047H23.1797V21.3047ZM30.9531 29.2031L31.219 29.6266L31.4531 29.4796V29.2031H30.9531ZM30.25 29.5938L30.0302 29.1446L30.0264 29.1465L30.25 29.5938ZM29.5 29.9062L29.339 29.4329L29.3361 29.4339L29.5 29.9062ZM26.5156 29.9531L26.3412 30.4218L26.3461 30.4235L26.5156 29.9531ZM25.3281 29.2109L24.9801 29.57L24.9829 29.5726L25.3281 29.2109ZM24.5078 27.9766L24.0445 28.1648L24.047 28.1706L24.5078 27.9766ZM24.4844 24.5312L24.9531 24.7052L24.9537 24.7037L24.4844 24.5312ZM25.2656 23.2266L25.6322 23.5666L25.6346 23.5639L25.2656 23.2266ZM26.4531 22.3906L26.6469 22.8516L26.6513 22.8497L26.4531 22.3906ZM29.2656 22.3438L29.0625 22.8007L29.0679 22.803L29.2656 22.3438ZM30.2031 23.0234L29.8235 23.3488L29.8264 23.3522L30.2031 23.0234ZM30.7656 24.0625L30.2877 24.2095L30.2883 24.2113L30.7656 24.0625ZM30.9375 25.8203V26.3203H31.3711L31.4325 25.891L30.9375 25.8203ZM25.75 25.8203V25.3203H25.25V25.8203H25.75ZM25.875 27.0391L25.3852 27.1395L25.3865 27.1455L25.875 27.0391ZM27.1328 28.9219L26.8784 29.3524L26.8833 29.3552L27.1328 28.9219ZM29.1016 29.1328L29.2255 29.6173L29.236 29.6144L29.1016 29.1328ZM29.7578 28.8984L29.5608 28.4388L29.5568 28.4406L29.7578 28.8984ZM30.3828 28.5859L30.6334 29.0187L30.6417 29.0137L30.3828 28.5859ZM30.9531 28.2266H31.4531V27.2997L30.6785 27.8087L30.9531 28.2266ZM29.2578 24.0156L28.7754 24.1472L28.7762 24.15L29.2578 24.0156ZM28.9688 23.4219L28.5687 23.7219L28.5747 23.7297L28.9688 23.4219ZM28.4844 23.0312L28.256 23.476L28.2631 23.4797L28.2703 23.4831L28.4844 23.0312ZM27.0547 23.0391L27.2529 23.4982L27.2616 23.4942L27.0547 23.0391ZM26.4453 23.4766L26.0771 23.1382L26.0722 23.1438L26.4453 23.4766ZM26.0234 24.1797L25.5586 23.9955L25.5568 24.0002L26.0234 24.1797ZM25.8359 25.1016L25.3369 25.0713L25.3047 25.6016H25.8359V25.1016ZM29.3516 25.1016V25.6016H29.8516V25.1016H29.3516ZM30.6872 28.7797C30.4786 28.9107 30.2597 29.0324 30.0302 29.1446L30.4698 30.0429C30.7299 29.9156 30.9797 29.7768 31.219 29.6266L30.6872 28.7797ZM30.0264 29.1465C29.8076 29.2559 29.5786 29.3514 29.339 29.4329L29.661 30.3796C29.9422 30.284 30.2132 30.1712 30.4736 30.041L30.0264 29.1465ZM29.3361 29.4339C29.1031 29.5147 28.8653 29.5789 28.6225 29.6265L28.815 30.6078C29.1035 30.5513 29.3865 30.4749 29.6639 30.3786L29.3361 29.4339ZM28.6225 29.6265C28.3886 29.6724 28.1526 29.6953 27.9141 29.6953V30.6953C28.2172 30.6953 28.5176 30.6661 28.815 30.6078L28.6225 29.6265ZM27.9141 29.6953C27.4865 29.6953 27.0778 29.6243 26.6852 29.4828L26.3461 30.4235C26.8493 30.6049 27.3729 30.6953 27.9141 30.6953V29.6953ZM26.69 29.4845C26.3053 29.3414 25.9677 29.1302 25.6734 28.8493L24.9829 29.5726C25.376 29.9479 25.8301 30.2315 26.3413 30.4217L26.69 29.4845ZM25.6761 28.8519C25.3922 28.5767 25.1545 28.2239 24.9686 27.7825L24.047 28.1706C24.2778 28.7189 24.587 29.1889 24.9801 29.57L25.6761 28.8519ZM24.971 27.7884C24.7972 27.3604 24.7031 26.8434 24.7031 26.2266H23.7031C23.7031 26.943 23.8122 27.5927 24.0446 28.1648L24.971 27.7884ZM24.7031 26.2266C24.7031 25.6516 24.7893 25.1466 24.9531 24.7052L24.0156 24.3573C23.8044 24.9263 23.7031 25.5515 23.7031 26.2266H24.7031ZM24.9537 24.7037C25.1209 24.2486 25.3486 23.8724 25.6322 23.5666L24.899 22.8865C24.516 23.2995 24.2229 23.7931 24.015 24.3588L24.9537 24.7037ZM25.6346 23.5639C25.9189 23.2531 26.2548 23.0164 26.6469 22.8515L26.2593 21.9297C25.7348 22.1503 25.2791 22.4709 24.8966 22.8892L25.6346 23.5639ZM26.6513 22.8497C27.0413 22.6812 27.4757 22.5938 27.9609 22.5938V21.5938C27.3524 21.5938 26.7816 21.7042 26.2549 21.9316L26.6513 22.8497ZM27.9609 22.5938C28.3999 22.5938 28.7632 22.6676 29.0626 22.8007L29.4687 21.8868C29.018 21.6865 28.5116 21.5938 27.9609 21.5938V22.5938ZM29.0679 22.803C29.3774 22.9362 29.6262 23.1187 29.8235 23.3488L30.5828 22.698C30.28 22.3449 29.9039 22.0742 29.4634 21.8845L29.0679 22.803ZM29.8264 23.3522C30.0252 23.5799 30.1809 23.8624 30.2877 24.2095L31.2435 23.9155C31.1003 23.4501 30.8811 23.0399 30.5798 22.6947L29.8264 23.3522ZM30.2883 24.2113C30.3965 24.5584 30.4531 24.9451 30.4531 25.375H31.4531C31.4531 24.857 31.3848 24.3687 31.243 23.9137L30.2883 24.2113ZM30.4531 25.375V25.5859H31.4531V25.375H30.4531ZM30.4531 25.5859C30.4531 25.6486 30.4492 25.7029 30.4425 25.7496L31.4325 25.891C31.4466 25.7919 31.4531 25.6899 31.4531 25.5859H30.4531ZM30.9375 25.3203H25.75V26.3203H30.9375V25.3203ZM25.25 25.8203C25.25 26.261 25.2952 26.7009 25.3852 27.1395L26.3648 26.9386C26.2881 26.5647 26.25 26.1921 26.25 25.8203H25.25ZM25.3865 27.1455C25.4862 27.6033 25.6526 28.0228 25.8893 28.399L26.7357 27.8666C26.5661 27.597 26.4408 27.2873 26.3635 26.9326L25.3865 27.1455ZM25.8893 28.399C26.1368 28.7925 26.4694 29.1106 26.8784 29.3523L27.3872 28.4914C27.1087 28.3269 26.8945 28.1189 26.7357 27.8666L25.8893 28.399ZM26.8833 29.3552C27.3224 29.608 27.8443 29.7188 28.4219 29.7188V28.7188C27.9682 28.7188 27.6307 28.6316 27.3823 28.4886L26.8833 29.3552ZM28.4219 29.7188C28.6932 29.7188 28.9614 29.6848 29.2255 29.6172L28.9776 28.6484C28.7938 28.6954 28.6089 28.7188 28.4219 28.7188V29.7188ZM29.236 29.6144C29.4827 29.5455 29.7237 29.4595 29.9588 29.3563L29.5568 28.4406C29.3648 28.5249 29.1683 28.5951 28.9672 28.6512L29.236 29.6144ZM29.9548 29.358C30.1912 29.2567 30.4174 29.1436 30.6333 29.0187L30.1323 28.1532C29.9524 28.2574 29.762 28.3527 29.5609 28.4389L29.9548 29.358ZM30.6417 29.0137C30.8446 28.8909 31.04 28.7678 31.2277 28.6444L30.6785 27.8087C30.5017 27.9249 30.3169 28.0414 30.1239 28.1582L30.6417 29.0137ZM30.4531 28.2266V29.2031H31.4531V28.2266H30.4531ZM29.8516 24.75C29.8516 24.4453 29.8157 24.1546 29.7394 23.8812L28.7762 24.15C28.8249 24.3245 28.8516 24.5235 28.8516 24.75H29.8516ZM29.7402 23.8841C29.6624 23.5987 29.5386 23.3391 29.3628 23.1141L28.5747 23.7297C28.6593 23.838 28.7282 23.9742 28.7754 24.1472L29.7402 23.8841ZM29.3687 23.1219C29.1925 22.8869 28.9659 22.7061 28.6984 22.5794L28.2703 23.4831C28.3987 23.5439 28.495 23.6235 28.5688 23.7219L29.3687 23.1219ZM28.7128 22.5865C28.4352 22.4439 28.1242 22.3828 27.7969 22.3828V23.3828C28.0008 23.3828 28.1482 23.4207 28.256 23.476L28.7128 22.5865ZM27.7969 22.3828C27.4639 22.3828 27.1455 22.4486 26.8478 22.5839L27.2616 23.4942C27.4222 23.4212 27.5986 23.3828 27.7969 23.3828V22.3828ZM26.8565 22.58C26.5597 22.7082 26.2994 22.8964 26.0771 23.1382L26.8135 23.8149C26.9454 23.6713 27.0914 23.5679 27.2529 23.4981L26.8565 22.58ZM26.0722 23.1438C25.8559 23.3863 25.6864 23.673 25.5586 23.9955L26.4883 24.3639C26.5792 24.1343 26.691 23.9523 26.8185 23.8094L26.0722 23.1438ZM25.5568 24.0002C25.4312 24.3268 25.3602 24.6857 25.3369 25.0713L26.335 25.1318C26.3533 24.8299 26.4074 24.5743 26.4901 24.3592L25.5568 24.0002ZM25.8359 25.6016H29.3516V24.6016H25.8359V25.6016ZM29.8516 25.1016V24.75H28.8516V25.1016H29.8516ZM38.7969 29.2031L39.0628 29.6266L39.2969 29.4796V29.2031H38.7969ZM38.0938 29.5938L37.874 29.1446L37.8701 29.1465L38.0938 29.5938ZM37.3438 29.9062L37.1828 29.4329L37.1799 29.4339L37.3438 29.9062ZM34.3594 29.9531L34.185 30.4218L34.1898 30.4235L34.3594 29.9531ZM33.1719 29.2109L32.8239 29.57L32.8266 29.5726L33.1719 29.2109ZM32.3516 27.9766L31.8883 28.1648L31.8907 28.1706L32.3516 27.9766ZM32.3281 24.5312L32.7969 24.7052L32.7975 24.7037L32.3281 24.5312ZM33.1094 23.2266L33.476 23.5666L33.4784 23.5639L33.1094 23.2266ZM34.2969 22.3906L34.4907 22.8516L34.4951 22.8497L34.2969 22.3906ZM37.1094 22.3438L36.9063 22.8007L36.9116 22.803L37.1094 22.3438ZM38.0469 23.0234L37.6672 23.3488L37.6702 23.3522L38.0469 23.0234ZM38.6094 24.0625L38.1315 24.2095L38.132 24.2113L38.6094 24.0625ZM38.7812 25.8203V26.3203H39.2149L39.2762 25.891L38.7812 25.8203ZM33.5938 25.8203V25.3203H33.0938V25.8203H33.5938ZM33.7188 27.0391L33.2289 27.1395L33.2302 27.1455L33.7188 27.0391ZM34.9766 28.9219L34.7222 29.3524L34.7271 29.3552L34.9766 28.9219ZM36.9453 29.1328L37.0693 29.6173L37.0797 29.6144L36.9453 29.1328ZM37.6016 28.8984L37.4046 28.4388L37.4006 28.4406L37.6016 28.8984ZM38.2266 28.5859L38.4771 29.0187L38.4855 29.0137L38.2266 28.5859ZM38.7969 28.2266H39.2969V27.2997L38.5223 27.8087L38.7969 28.2266ZM37.1016 24.0156L36.6192 24.1472L36.62 24.15L37.1016 24.0156ZM36.8125 23.4219L36.4124 23.7219L36.4185 23.7297L36.8125 23.4219ZM36.3281 23.0312L36.0997 23.476L36.1068 23.4797L36.1141 23.4831L36.3281 23.0312ZM34.8984 23.0391L35.0967 23.4982L35.1053 23.4942L34.8984 23.0391ZM34.2891 23.4766L33.9209 23.1382L33.9159 23.1438L34.2891 23.4766ZM33.8672 24.1797L33.4023 23.9955L33.4005 24.0002L33.8672 24.1797ZM33.6797 25.1016L33.1806 25.0713L33.1485 25.6016H33.6797V25.1016ZM37.1953 25.1016V25.6016H37.6953V25.1016H37.1953ZM38.531 28.7797C38.3224 28.9107 38.1034 29.0324 37.874 29.1446L38.3135 30.0429C38.5736 29.9156 38.8234 29.7768 39.0628 29.6266L38.531 28.7797ZM37.8701 29.1465C37.6514 29.2559 37.4223 29.3514 37.1828 29.4329L37.5047 30.3796C37.786 30.284 38.057 30.1712 38.3174 30.041L37.8701 29.1465ZM37.1799 29.4339C36.9468 29.5147 36.709 29.5789 36.4663 29.6265L36.6587 30.6078C36.9472 30.5513 37.2303 30.4749 37.5076 30.3786L37.1799 29.4339ZM36.4663 29.6265C36.2324 29.6724 35.9964 29.6953 35.7578 29.6953V30.6953C36.0609 30.6953 36.3614 30.6661 36.6587 30.6078L36.4663 29.6265ZM35.7578 29.6953C35.3302 29.6953 34.9215 29.6243 34.5289 29.4828L34.1898 30.4235C34.6931 30.6049 35.2167 30.6953 35.7578 30.6953V29.6953ZM34.5337 29.4845C34.1491 29.3414 33.8115 29.1302 33.5171 28.8493L32.8266 29.5726C33.2198 29.9479 33.6738 30.2315 34.185 30.4217L34.5337 29.4845ZM33.5199 28.8519C33.2359 28.5767 32.9982 28.2239 32.8124 27.7825L31.8907 28.1706C32.1216 28.7189 32.4308 29.1889 32.8239 29.57L33.5199 28.8519ZM32.8148 27.7884C32.6409 27.3604 32.5469 26.8434 32.5469 26.2266H31.5469C31.5469 26.943 31.6559 27.5927 31.8883 28.1648L32.8148 27.7884ZM32.5469 26.2266C32.5469 25.6516 32.6331 25.1466 32.7969 24.7052L31.8594 24.3573C31.6482 24.9263 31.5469 25.5515 31.5469 26.2266H32.5469ZM32.7975 24.7037C32.9646 24.2486 33.1923 23.8724 33.476 23.5666L32.7428 22.8865C32.3598 23.2995 32.0666 23.7931 31.8588 24.3588L32.7975 24.7037ZM33.4784 23.5639C33.7626 23.2531 34.0985 23.0164 34.4907 22.8515L34.1031 21.9297C33.5785 22.1503 33.1228 22.4709 32.7404 22.8892L33.4784 23.5639ZM34.4951 22.8497C34.8851 22.6812 35.3194 22.5938 35.8047 22.5938V21.5938C35.1962 21.5938 34.6253 21.7042 34.0987 21.9316L34.4951 22.8497ZM35.8047 22.5938C36.2436 22.5938 36.607 22.6676 36.9063 22.8007L37.3124 21.8868C36.8618 21.6865 36.3553 21.5938 35.8047 21.5938V22.5938ZM36.9116 22.803C37.2211 22.9362 37.47 23.1187 37.6672 23.3488L38.4265 22.698C38.1238 22.3449 37.7476 22.0742 37.3071 21.8845L36.9116 22.803ZM37.6702 23.3522C37.8689 23.5799 38.0247 23.8624 38.1315 24.2095L39.0873 23.9155C38.9441 23.4501 38.7248 23.0399 38.4236 22.6947L37.6702 23.3522ZM38.132 24.2113C38.2402 24.5584 38.2969 24.9451 38.2969 25.375H39.2969C39.2969 24.857 39.2285 24.3687 39.0867 23.9137L38.132 24.2113ZM38.2969 25.375V25.5859H39.2969V25.375H38.2969ZM38.2969 25.5859C38.2969 25.6486 38.2929 25.7029 38.2863 25.7496L39.2762 25.891C39.2904 25.7919 39.2969 25.6899 39.2969 25.5859H38.2969ZM38.7812 25.3203H33.5938V26.3203H38.7812V25.3203ZM33.0938 25.8203C33.0938 26.261 33.139 26.7009 33.2289 27.1395L34.2086 26.9386C34.1319 26.5647 34.0938 26.1921 34.0938 25.8203H33.0938ZM33.2302 27.1455C33.33 27.6033 33.4964 28.0228 33.733 28.399L34.5795 27.8666C34.4099 27.597 34.2846 27.2873 34.2073 26.9326L33.2302 27.1455ZM33.733 28.399C33.9805 28.7925 34.3132 29.1106 34.7222 29.3523L35.2309 28.4914C34.9524 28.3269 34.7382 28.1189 34.5795 27.8666L33.733 28.399ZM34.7271 29.3552C35.1662 29.608 35.688 29.7188 36.2656 29.7188V28.7188C35.812 28.7188 35.4744 28.6316 35.226 28.4886L34.7271 29.3552ZM36.2656 29.7188C36.537 29.7188 36.8051 29.6848 37.0692 29.6172L36.8214 28.6484C36.6376 28.6954 36.4526 28.7188 36.2656 28.7188V29.7188ZM37.0797 29.6144C37.3265 29.5455 37.5675 29.4595 37.8026 29.3563L37.4006 28.4406C37.2086 28.5249 37.0121 28.5951 36.8109 28.6512L37.0797 29.6144ZM37.7985 29.358C38.0349 29.2567 38.2612 29.1436 38.4771 29.0187L37.976 28.1532C37.7961 28.2574 37.6057 28.3527 37.4046 28.4389L37.7985 29.358ZM38.4855 29.0137C38.6884 28.8909 38.8837 28.7678 39.0715 28.6444L38.5223 27.8087C38.3455 27.9249 38.1606 28.0414 37.9677 28.1582L38.4855 29.0137ZM38.2969 28.2266V29.2031H39.2969V28.2266H38.2969ZM37.6953 24.75C37.6953 24.4453 37.6595 24.1546 37.5832 23.8812L36.62 24.15C36.6687 24.3245 36.6953 24.5235 36.6953 24.75H37.6953ZM37.5839 23.8841C37.5061 23.5987 37.3823 23.3391 37.2065 23.1141L36.4185 23.7297C36.5031 23.838 36.572 23.9742 36.6192 24.1472L37.5839 23.8841ZM37.2125 23.1219C37.0363 22.8869 36.8096 22.7061 36.5422 22.5794L36.1141 23.4831C36.2425 23.5439 36.3387 23.6235 36.4125 23.7219L37.2125 23.1219ZM36.5565 22.5865C36.2789 22.4439 35.968 22.3828 35.6406 22.3828V23.3828C35.8445 23.3828 35.9919 23.4207 36.0997 23.476L36.5565 22.5865ZM35.6406 22.3828C35.3076 22.3828 34.9892 22.4486 34.6915 22.5839L35.1053 23.4942C35.266 23.4212 35.4424 23.3828 35.6406 23.3828V22.3828ZM34.7002 22.58C34.4034 22.7082 34.1432 22.8964 33.9209 23.1382L34.6572 23.8149C34.7891 23.6713 34.9351 23.5679 35.0967 23.4981L34.7002 22.58ZM33.9159 23.1438C33.6996 23.3863 33.5301 23.673 33.4023 23.9955L34.332 24.3639C34.423 24.1343 34.5348 23.9523 34.6622 23.8094L33.9159 23.1438ZM33.4005 24.0002C33.2749 24.3268 33.204 24.6857 33.1806 25.0713L34.1788 25.1318C34.1971 24.8299 34.2511 24.5743 34.3339 24.3592L33.4005 24.0002ZM33.6797 25.6016H37.1953V24.6016H33.6797V25.6016ZM37.6953 25.1016V24.75H36.6953V25.1016H37.6953ZM45.4375 30H44.9375V30.5H45.4375V30ZM45.4375 29.1484H45.9375V28.1312L45.1321 28.7525L45.4375 29.1484ZM44.8672 29.5547L45.1393 29.9742L45.142 29.9724L44.8672 29.5547ZM44.2656 29.8828L44.0604 29.4268L44.0561 29.4288L44.2656 29.8828ZM43.6328 30.1094L43.5061 29.6257L43.5032 29.6265L43.6328 30.1094ZM41.5703 29.8516L41.3105 30.2788L41.3173 30.2828L41.5703 29.8516ZM40.6172 28.9531L40.203 29.2332L40.2048 29.2359L40.6172 28.9531ZM40.0625 27.7188L39.5774 27.84L39.5791 27.8465L40.0625 27.7188ZM40.1406 24.7734L40.6159 24.9286L40.6164 24.9272L40.1406 24.7734ZM44.7969 22.1719L44.7208 22.6661L44.7312 22.6677L44.7417 22.6688L44.7969 22.1719ZM45.1719 22.2344L45.0561 22.7208L45.0692 22.7239L45.0824 22.7263L45.1719 22.2344ZM45.4375 22.2891L45.3162 22.7741L45.9375 22.9295V22.2891H45.4375ZM45.4375 19.3594H45.9375V18.8594H45.4375V19.3594ZM44.2266 19.3594H43.7266V19.8594H44.2266V19.3594ZM44.2266 18.8281L44.0832 18.3491L43.7266 18.4558V18.8281H44.2266ZM46.2891 18.2109V17.7109H46.2159L46.1457 17.7319L46.2891 18.2109ZM46.9297 18.2109H47.4297V17.7109H46.9297V18.2109ZM47.2656 29.3281L47.2133 29.8254L47.2224 29.8263L47.2316 29.827L47.2656 29.3281ZM47.9531 29.375H48.4531V28.9079L47.9871 28.8762L47.9531 29.375ZM47.9531 30V30.5H48.4531V30H47.9531ZM45.4375 23.1016H45.9375V22.7323L45.5845 22.6237L45.4375 23.1016ZM45.1719 23.0312L45.0282 23.5102L45.042 23.5143L45.0561 23.5177L45.1719 23.0312ZM44.8281 22.9531L44.7219 23.4417L44.7339 23.4443L44.7459 23.4463L44.8281 22.9531ZM44.4453 22.8906L44.3857 23.3871L44.388 23.3873L44.4453 22.8906ZM43 23.1016L43.2119 23.5545L43.2178 23.5516L43 23.1016ZM42.1719 23.75L41.7843 23.4342L41.7836 23.435L42.1719 23.75ZM41.6484 24.7578L41.1716 24.6072L41.1699 24.613L41.6484 24.7578ZM41.625 27.2891L41.1437 27.4246L41.1442 27.4264L41.625 27.2891ZM42.0781 28.2422L41.6744 28.5372L42.0781 28.2422ZM42.8047 28.875L42.5715 29.3173L42.8047 28.875ZM44.2578 29.0547L44.3591 29.5443L44.3672 29.5427L44.3751 29.5407L44.2578 29.0547ZM44.6953 28.9219L44.869 29.3907L44.8765 29.388L44.884 29.3849L44.6953 28.9219ZM45.0938 28.7422L45.3174 29.1894L45.3247 29.1857L45.3319 29.1818L45.0938 28.7422ZM45.4375 28.5469L45.6947 28.9756L45.9375 28.83V28.5469H45.4375ZM45.9375 30V29.1484H44.9375V30H45.9375ZM45.1321 28.7525C44.96 28.8853 44.7801 29.0135 44.5924 29.137L45.142 29.9724C45.3501 29.8355 45.5504 29.6928 45.7429 29.5443L45.1321 28.7525ZM44.5951 29.1352C44.4236 29.2464 44.2454 29.3436 44.0604 29.4269L44.4708 30.3388C44.7025 30.2345 44.9253 30.1129 45.1393 29.9742L44.5951 29.1352ZM44.0561 29.4288C43.8799 29.5101 43.6968 29.5758 43.5061 29.6257L43.7595 30.5931C44.0064 30.5284 44.2451 30.443 44.4752 30.3368L44.0561 29.4288ZM43.5032 29.6265C43.3344 29.6717 43.1542 29.6953 42.9609 29.6953V30.6953C43.2364 30.6953 43.5041 30.6616 43.7624 30.5923L43.5032 29.6265ZM42.9609 29.6953C42.4969 29.6953 42.1241 29.5968 41.8233 29.4203L41.3173 30.2828C41.7977 30.5647 42.3521 30.6953 42.9609 30.6953V29.6953ZM41.8301 29.4244C41.5039 29.226 41.2387 28.9753 41.0296 28.6704L40.2048 29.2359C40.4957 29.6601 40.8659 30.0084 41.3105 30.2788L41.8301 29.4244ZM41.0314 28.6731C40.8144 28.3521 40.6521 27.9925 40.5459 27.591L39.5791 27.8465C39.7125 28.3512 39.92 28.8146 40.203 29.2332L41.0314 28.6731ZM40.5476 27.5975C40.4425 27.1771 40.3906 26.7621 40.3906 26.3516H39.3906C39.3906 26.8473 39.4534 27.3437 39.5774 27.84L40.5476 27.5975ZM40.3906 26.3516C40.3906 25.8621 40.4658 25.3885 40.6159 24.9286L39.6653 24.6182C39.4821 25.1792 39.3906 25.7577 39.3906 26.3516H40.3906ZM40.6164 24.9272C40.7636 24.4718 40.9845 24.0749 41.2784 23.7312L40.5185 23.0813C40.1353 23.5293 39.851 24.0438 39.6649 24.6197L40.6164 24.9272ZM41.2784 23.7312C41.5671 23.3937 41.9328 23.1177 42.3843 22.9057L41.9594 22.0005C41.3901 22.2677 40.9069 22.6271 40.5185 23.0813L41.2784 23.7312ZM42.3843 22.9057C42.8153 22.7034 43.3389 22.5938 43.9688 22.5938V21.5938C43.2236 21.5938 42.5493 21.7236 41.9594 22.0005L42.3843 22.9057ZM43.9688 22.5938C44.0732 22.5938 44.1907 22.6003 44.3217 22.6143L44.4283 21.62C44.2677 21.6028 44.1143 21.5938 43.9688 21.5938V22.5938ZM44.3217 22.6143C44.4605 22.6292 44.5935 22.6465 44.7208 22.6661L44.8729 21.6777C44.7294 21.6556 44.5812 21.6364 44.4283 21.62L44.3217 22.6143ZM44.7417 22.6688C44.8668 22.6827 44.971 22.7005 45.0561 22.7208L45.2877 21.748C45.154 21.7161 45.0082 21.6923 44.8521 21.6749L44.7417 22.6688ZM45.0824 22.7263C45.1934 22.7465 45.2695 22.7624 45.3162 22.7741L45.5588 21.804C45.4805 21.7844 45.3795 21.7639 45.2613 21.7424L45.0824 22.7263ZM45.9375 22.2891V19.3594H44.9375V22.2891H45.9375ZM45.4375 18.8594H44.2266V19.8594H45.4375V18.8594ZM44.7266 19.3594V18.8281H43.7266V19.3594H44.7266ZM44.3699 19.3071L46.4324 18.69L46.1457 17.7319L44.0832 18.3491L44.3699 19.3071ZM46.2891 18.7109H46.9297V17.7109H46.2891V18.7109ZM46.4297 18.2109V28.9766H47.4297V18.2109H46.4297ZM46.4297 28.9766C46.4297 29.1908 46.502 29.4045 46.6699 29.5723L47.377 28.8652C47.3939 28.8821 47.4094 28.9049 47.4194 28.9308C47.429 28.9557 47.4297 28.9731 47.4297 28.9766H46.4297ZM46.6699 29.5723C46.8235 29.7259 47.0156 29.8046 47.2133 29.8254L47.318 28.8309C47.3151 28.8306 47.3228 28.831 47.3367 28.8373C47.3512 28.8438 47.3655 28.8537 47.377 28.8652L46.6699 29.5723ZM47.2316 29.827L47.9191 29.8738L47.9871 28.8762L47.2996 28.8293L47.2316 29.827ZM47.4531 29.375V30H48.4531V29.375H47.4531ZM47.9531 29.5H45.4375V30.5H47.9531V29.5ZM45.5845 22.6237C45.5024 22.5984 45.4023 22.5721 45.2877 22.5448L45.0561 23.5177C45.1602 23.5425 45.2372 23.5631 45.2905 23.5795L45.5845 22.6237ZM45.3155 22.5523C45.1882 22.5141 45.0528 22.4837 44.9103 22.4599L44.7459 23.4463C44.8535 23.4642 44.9472 23.4859 45.0282 23.5102L45.3155 22.5523ZM44.9343 22.4645C44.7967 22.4346 44.6527 22.4112 44.5026 22.3939L44.388 23.3873C44.5088 23.4013 44.6199 23.4195 44.7219 23.4417L44.9343 22.4645ZM44.5049 22.3942C44.3577 22.3765 44.2152 22.3672 44.0781 22.3672V23.3672C44.1702 23.3672 44.2725 23.3735 44.3857 23.3871L44.5049 22.3942ZM44.0781 22.3672C43.6148 22.3672 43.1798 22.4591 42.7822 22.6515L43.2178 23.5516C43.466 23.4315 43.7498 23.3672 44.0781 23.3672V22.3672ZM42.7882 22.6487C42.3958 22.8322 42.0601 23.0956 41.7843 23.4342L42.5595 24.0658C42.742 23.8419 42.9583 23.6731 43.2118 23.5545L42.7882 22.6487ZM41.7836 23.435C41.514 23.7672 41.3124 24.1614 41.1716 24.6072L42.1252 24.9084C42.2344 24.5625 42.3818 24.2848 42.5602 24.065L41.7836 23.435ZM41.1699 24.613C41.0337 25.063 40.9688 25.5529 40.9688 26.0781H41.9688C41.9688 25.6346 42.0236 25.2443 42.127 24.9026L41.1699 24.613ZM40.9688 26.0781C40.9688 26.5552 41.0256 27.0051 41.1437 27.4246L42.1063 27.1535C42.0161 26.8334 41.9688 26.476 41.9688 26.0781H40.9688ZM41.1442 27.4264C41.2625 27.8404 41.4375 28.213 41.6744 28.5372L42.4818 27.9472C42.3229 27.7297 42.1958 27.4669 42.1058 27.1517L41.1442 27.4264ZM41.6744 28.5372C41.9156 28.8672 42.2153 29.1295 42.5715 29.3173L43.0379 28.4327C42.8212 28.3184 42.6365 28.1589 42.4818 27.9472L41.6744 28.5372ZM42.5715 29.3173C42.9395 29.5113 43.3496 29.6016 43.7891 29.6016V28.6016C43.4889 28.6016 43.2428 28.5408 43.0379 28.4327L42.5715 29.3173ZM43.7891 29.6016C43.983 29.6016 44.1732 29.5828 44.3591 29.5443L44.1565 28.5651C44.0403 28.5891 43.9181 28.6016 43.7891 28.6016V29.6016ZM44.3751 29.5407C44.5446 29.4998 44.7093 29.4499 44.869 29.3907L44.5217 28.453C44.4001 28.498 44.2731 28.5366 44.1405 28.5686L44.3751 29.5407ZM44.884 29.3849C45.0354 29.3232 45.18 29.2581 45.3174 29.1894L44.8701 28.295C44.7575 28.3513 44.6364 28.406 44.5067 28.4588L44.884 29.3849ZM45.3319 29.1818C45.4623 29.1112 45.5833 29.0425 45.6947 28.9756L45.1803 28.1181C45.0833 28.1763 44.9752 28.2378 44.8556 28.3025L45.3319 29.1818ZM45.9375 28.5469V23.1016H44.9375V28.5469H45.9375Z" fill="black" fill-opacity="0.07"/>
<path d="M18.62 34.38L17.04 34.14V33.14H22.48V34.14L20.76 34.38V39.76H27.8V34.38L26.18 34.14V33.14H31.54V34.14L29.96 34.38V46.82L31.54 47.02V48H26.16V47.02L27.8 46.82V41H20.76V46.82L22.5 47.02V48H17V47.02L18.62 46.82V34.38ZM48.7425 51.96C48.1425 51.96 47.5758 51.86 47.0425 51.66C46.5092 51.46 46.0225 51.2133 45.5825 50.92C45.1558 50.64 44.6425 50.2667 44.0425 49.8C43.3892 49.2933 42.8358 48.9 42.3825 48.62C41.9425 48.34 41.4892 48.1533 41.0225 48.06C40.5292 48.1667 40.0492 48.22 39.5825 48.22C38.2358 48.22 37.0892 47.9067 36.1425 47.28C35.1958 46.6533 34.4825 45.7733 34.0025 44.64C33.5225 43.4933 33.2825 42.1667 33.2825 40.66C33.2825 39.1267 33.5692 37.78 34.1425 36.62C34.7292 35.46 35.5292 34.5667 36.5425 33.94C37.5558 33.3 38.7025 32.98 39.9825 32.98C42.0625 32.98 43.6492 33.64 44.7425 34.96C45.8358 36.2667 46.3825 38.08 46.3825 40.4C46.3825 42.12 46.0225 43.6067 45.3025 44.86C44.5958 46.1133 43.6358 47.0267 42.4225 47.6C43.0225 47.6533 43.6025 47.8 44.1625 48.04C44.7225 48.28 45.3825 48.62 46.1425 49.06C46.9825 49.5133 47.6625 49.8467 48.1825 50.06C48.7025 50.2733 49.2358 50.38 49.7825 50.38C50.0092 50.38 50.2158 50.3667 50.4025 50.34L50.6425 51.2C50.4025 51.4533 50.1158 51.64 49.7825 51.76C49.4492 51.8933 49.1025 51.96 48.7425 51.96ZM39.8025 47.16C41.0958 47.16 42.1158 46.5867 42.8625 45.44C43.6092 44.28 43.9825 42.6067 43.9825 40.42C43.9825 38.4067 43.6225 36.84 42.9025 35.72C42.1825 34.5867 41.1692 34.02 39.8625 34.02C38.5692 34.02 37.5425 34.58 36.7825 35.7C36.0358 36.82 35.6625 38.4733 35.6625 40.66C35.6625 42.66 36.0225 44.2467 36.7425 45.42C37.4758 46.58 38.4958 47.16 39.8025 47.16Z" fill="black" fill-opacity="0.15"/>
<path d="M18.62 34.38H19.12V33.9502L18.6951 33.8857L18.62 34.38ZM17.04 34.14H16.54V34.5698L16.9649 34.6343L17.04 34.14ZM17.04 33.14V32.64H16.54V33.14H17.04ZM22.48 33.14H22.98V32.64H22.48V33.14ZM22.48 34.14L22.5491 34.6352L22.98 34.5751V34.14H22.48ZM20.76 34.38L20.6909 33.8848L20.26 33.9449V34.38H20.76ZM20.76 39.76H20.26V40.26H20.76V39.76ZM27.8 39.76V40.26H28.3V39.76H27.8ZM27.8 34.38H28.3V33.9486L27.8733 33.8854L27.8 34.38ZM26.18 34.14H25.68V34.5714L26.1067 34.6346L26.18 34.14ZM26.18 33.14V32.64H25.68V33.14H26.18ZM31.54 33.14H32.04V32.64H31.54V33.14ZM31.54 34.14L31.6151 34.6343L32.04 34.5698V34.14H31.54ZM29.96 34.38L29.8849 33.8857L29.46 33.9502V34.38H29.96ZM29.96 46.82H29.46V47.2607L29.8972 47.316L29.96 46.82ZM31.54 47.02H32.04V46.5793L31.6028 46.524L31.54 47.02ZM31.54 48V48.5H32.04V48H31.54ZM26.16 48H25.66V48.5H26.16V48ZM26.16 47.02L26.0995 46.5237L25.66 46.5773V47.02H26.16ZM27.8 46.82L27.8605 47.3163L28.3 47.2627V46.82H27.8ZM27.8 41H28.3V40.5H27.8V41ZM20.76 41V40.5H20.26V41H20.76ZM20.76 46.82H20.26V47.2658L20.7029 47.3167L20.76 46.82ZM22.5 47.02H23V46.5742L22.5571 46.5233L22.5 47.02ZM22.5 48V48.5H23V48H22.5ZM17 48H16.5V48.5H17V48ZM17 47.02L16.9387 46.5238L16.5 46.5779V47.02H17ZM18.62 46.82L18.6813 47.3162L19.12 47.2621V46.82H18.62ZM18.6951 33.8857L17.1151 33.6457L16.9649 34.6343L18.5449 34.8743L18.6951 33.8857ZM17.54 34.14V33.14H16.54V34.14H17.54ZM17.04 33.64H22.48V32.64H17.04V33.64ZM21.98 33.14V34.14H22.98V33.14H21.98ZM22.4109 33.6448L20.6909 33.8848L20.8291 34.8752L22.5491 34.6352L22.4109 33.6448ZM20.26 34.38V39.76H21.26V34.38H20.26ZM20.76 40.26H27.8V39.26H20.76V40.26ZM28.3 39.76V34.38H27.3V39.76H28.3ZM27.8733 33.8854L26.2533 33.6454L26.1067 34.6346L27.7267 34.8746L27.8733 33.8854ZM26.68 34.14V33.14H25.68V34.14H26.68ZM26.18 33.64H31.54V32.64H26.18V33.64ZM31.04 33.14V34.14H32.04V33.14H31.04ZM31.4649 33.6457L29.8849 33.8857L30.0351 34.8743L31.6151 34.6343L31.4649 33.6457ZM29.46 34.38V46.82H30.46V34.38H29.46ZM29.8972 47.316L31.4772 47.516L31.6028 46.524L30.0228 46.324L29.8972 47.316ZM31.04 47.02V48H32.04V47.02H31.04ZM31.54 47.5H26.16V48.5H31.54V47.5ZM26.66 48V47.02H25.66V48H26.66ZM26.2205 47.5163L27.8605 47.3163L27.7395 46.3237L26.0995 46.5237L26.2205 47.5163ZM28.3 46.82V41H27.3V46.82H28.3ZM27.8 40.5H20.76V41.5H27.8V40.5ZM20.26 41V46.82H21.26V41H20.26ZM20.7029 47.3167L22.4429 47.5167L22.5571 46.5233L20.8171 46.3233L20.7029 47.3167ZM22 47.02V48H23V47.02H22ZM22.5 47.5H17V48.5H22.5V47.5ZM17.5 48V47.02H16.5V48H17.5ZM17.0613 47.5162L18.6813 47.3162L18.5587 46.3238L16.9387 46.5238L17.0613 47.5162ZM19.12 46.82V34.38H18.12V46.82H19.12ZM45.5825 50.92L45.8599 50.504L45.8568 50.502L45.5825 50.92ZM44.0425 49.8L44.3495 49.4053L44.3489 49.4049L44.0425 49.8ZM42.3825 48.62L42.114 49.0419L42.1198 49.0454L42.3825 48.62ZM41.0225 48.06L41.1206 47.5697L41.0185 47.5493L40.9168 47.5713L41.0225 48.06ZM36.1425 47.28L36.4185 46.8631L36.1425 47.28ZM34.0025 44.64L33.5413 44.8331L33.5421 44.835L34.0025 44.64ZM34.1425 36.62L33.6963 36.3943L33.6943 36.3985L34.1425 36.62ZM36.5425 33.94L36.8055 34.3653L36.8095 34.3627L36.5425 33.94ZM44.7425 34.96L44.3574 35.2789L44.359 35.2809L44.7425 34.96ZM45.3025 44.86L44.8689 44.6109L44.867 44.6144L45.3025 44.86ZM42.4225 47.6L42.2089 47.1479L40.5434 47.9349L42.3782 48.098L42.4225 47.6ZM44.1625 48.04L44.3595 47.5804L44.1625 48.04ZM46.1425 49.06L45.892 49.4927L45.8985 49.4965L45.905 49.5L46.1425 49.06ZM48.1825 50.06L47.9927 50.5226L48.1825 50.06ZM50.4025 50.34L50.8841 50.2056L50.7662 49.783L50.3318 49.845L50.4025 50.34ZM50.6425 51.2L51.0055 51.5439L51.2002 51.3383L51.1241 51.0656L50.6425 51.2ZM49.7825 51.76L49.6131 51.2896L49.6049 51.2925L49.5968 51.2958L49.7825 51.76ZM42.8625 45.44L43.2815 45.7128L43.2829 45.7106L42.8625 45.44ZM42.9025 35.72L42.4805 35.9881L42.4819 35.9904L42.9025 35.72ZM36.7825 35.7L36.3687 35.4192L36.3665 35.4226L36.7825 35.7ZM36.7425 45.42L36.3163 45.6815L36.3199 45.6872L36.7425 45.42ZM48.7425 51.46C48.1992 51.46 47.6923 51.3697 47.2181 51.1918L46.8669 52.1282C47.4594 52.3503 48.0858 52.46 48.7425 52.46V51.46ZM47.2181 51.1918C46.7178 51.0042 46.2657 50.7745 45.8598 50.504L45.3052 51.336C45.7793 51.6521 46.3005 51.9158 46.8669 52.1282L47.2181 51.1918ZM45.8568 50.502C45.4453 50.2319 44.9435 49.8673 44.3495 49.4053L43.7355 50.1947C44.3415 50.666 44.8663 51.0481 45.3082 51.338L45.8568 50.502ZM44.3489 49.4049C43.6883 48.8926 43.1195 48.4875 42.6452 48.1946L42.1198 49.0454C42.5522 49.3125 43.09 49.6941 43.7361 50.1951L44.3489 49.4049ZM42.6509 48.1982C42.1639 47.8882 41.6533 47.6763 41.1206 47.5697L40.9244 48.5503C41.325 48.6304 41.7211 48.7918 42.1141 49.0418L42.6509 48.1982ZM40.9168 47.5713C40.4554 47.6711 40.0109 47.72 39.5825 47.72V48.72C40.0874 48.72 40.6029 48.6623 41.1282 48.5487L40.9168 47.5713ZM39.5825 47.72C38.3154 47.72 37.2691 47.4261 36.4185 46.8631L35.8665 47.6969C36.9093 48.3872 38.1563 48.72 39.5825 48.72V47.72ZM36.4185 46.8631C35.5607 46.2952 34.908 45.4958 34.4629 44.445L33.5421 44.835C34.057 46.0509 34.831 47.0114 35.8665 47.6969L36.4185 46.8631ZM34.4637 44.4469C34.0141 43.3729 33.7825 42.1141 33.7825 40.66H32.7825C32.7825 42.2192 33.0309 43.6138 33.5413 44.8331L34.4637 44.4469ZM33.7825 40.66C33.7825 39.1894 34.0572 37.921 34.5907 36.8415L33.6943 36.3985C33.0811 37.639 32.7825 39.0639 32.7825 40.66H33.7825ZM34.5887 36.8457C35.1377 35.76 35.8775 34.9391 36.8055 34.3653L36.2795 33.5147C35.1809 34.1942 34.3206 35.16 33.6963 36.3943L34.5887 36.8457ZM36.8095 34.3627C37.7374 33.7767 38.7903 33.48 39.9825 33.48V32.48C38.6147 32.48 37.3742 32.8233 36.2755 33.5173L36.8095 34.3627ZM39.9825 33.48C41.9486 33.48 43.3794 34.0981 44.3574 35.2789L45.1276 34.6411C43.919 33.1819 42.1764 32.48 39.9825 32.48V33.48ZM44.359 35.2809C45.3537 36.4697 45.8825 38.1549 45.8825 40.4H46.8825C46.8825 38.0051 46.3179 36.0637 45.126 34.6391L44.359 35.2809ZM45.8825 40.4C45.8825 42.0493 45.5378 43.4466 44.8689 44.6109L45.7361 45.1091C46.5072 43.7667 46.8825 42.1907 46.8825 40.4H45.8825ZM44.867 44.6144C44.2072 45.7845 43.3218 46.6221 42.2089 47.1479L42.6361 48.0521C43.9499 47.4313 44.9844 46.4422 45.738 45.1056L44.867 44.6144ZM42.3782 48.098C42.925 48.1466 43.4535 48.2801 43.9655 48.4996L44.3595 47.5804C43.7515 47.3199 43.12 47.16 42.4668 47.102L42.3782 48.098ZM43.9655 48.4996C44.5011 48.7291 45.1424 49.0588 45.892 49.4927L46.393 48.6273C45.6226 48.1812 44.9439 47.8309 44.3595 47.5804L43.9655 48.4996ZM45.905 49.5C46.7515 49.9568 47.4491 50.2996 47.9927 50.5226L48.3723 49.5974C47.8759 49.3938 47.2136 49.0699 46.38 48.62L45.905 49.5ZM47.9927 50.5226C48.5712 50.7599 49.1689 50.88 49.7825 50.88V49.88C49.3028 49.88 48.8338 49.7868 48.3723 49.5974L47.9927 50.5226ZM49.7825 50.88C50.0283 50.88 50.259 50.8656 50.4732 50.835L50.3318 49.845C50.1727 49.8678 49.9901 49.88 49.7825 49.88V50.88ZM49.9209 50.4744L50.1609 51.3344L51.1241 51.0656L50.8841 50.2056L49.9209 50.4744ZM50.2795 50.8561C50.0941 51.0518 49.8741 51.1956 49.6131 51.2896L49.9519 52.2304C50.3576 52.0844 50.7109 51.8548 51.0055 51.5439L50.2795 50.8561ZM49.5968 51.2958C49.3227 51.4054 49.0391 51.46 48.7425 51.46V52.46C49.1659 52.46 49.5756 52.3813 49.9682 52.2242L49.5968 51.2958ZM39.8025 47.66C41.2763 47.66 42.449 46.9914 43.2815 45.7128L42.4435 45.1672C41.7827 46.182 40.9153 46.66 39.8025 46.66V47.66ZM43.2829 45.7106C44.1037 44.4355 44.4825 42.6513 44.4825 40.42H43.4825C43.4825 42.562 43.1146 44.1245 42.4421 45.1694L43.2829 45.7106ZM44.4825 40.42C44.4825 38.3565 44.1151 36.6816 43.3231 35.4496L42.4819 35.9904C43.1299 36.9984 43.4825 38.4568 43.4825 40.42H44.4825ZM43.3245 35.4519C42.5159 34.179 41.3459 33.52 39.8625 33.52V34.52C40.9924 34.52 41.8491 34.9944 42.4805 35.9881L43.3245 35.4519ZM39.8625 33.52C38.3945 33.52 37.2167 34.1697 36.3688 35.4192L37.1962 35.9808C37.8683 34.9903 38.7439 34.52 39.8625 34.52V33.52ZM36.3665 35.4226C35.5406 36.6615 35.1625 38.4306 35.1625 40.66H36.1625C36.1625 38.516 36.5311 36.9785 37.1985 35.9773L36.3665 35.4226ZM35.1625 40.66C35.1625 42.7129 35.5309 44.4016 36.3163 45.6815L37.1687 45.1585C36.5141 44.0917 36.1625 42.6071 36.1625 40.66H35.1625ZM36.3199 45.6872C37.1393 46.9833 38.3142 47.66 39.8025 47.66V46.66C38.6775 46.66 37.8124 46.1767 37.1651 45.1528L36.3199 45.6872Z" fill="black" fill-opacity="0.07"/>
<path d="M22.2344 20.8047L22.0078 19.3359C21.9922 19.2578 21.9609 19.1901 21.9141 19.1328C21.8672 19.0755 21.8073 19.0469 21.7344 19.0469H18.3281V23.2109H20.7734C20.8464 23.2109 20.9089 23.1771 20.9609 23.1094C21.0182 23.0417 21.0521 22.9792 21.0625 22.9219L21.2109 21.7969H22.0078V25.3984H21.2109L21.0625 24.2812C21.0521 24.224 21.0182 24.1615 20.9609 24.0938C20.9036 24.026 20.8411 23.9922 20.7734 23.9922H18.3281V27.8984C18.3281 27.9766 18.3542 28.0521 18.4062 28.125C18.4635 28.1979 18.5495 28.2396 18.6641 28.25L19.7344 28.3125V29H15.5312V28.3125L16.375 28.25C16.4896 28.2396 16.5729 28.1979 16.625 28.125C16.6823 28.0521 16.7109 27.9766 16.7109 27.8984V19.3672C16.7109 19.2891 16.6823 19.2135 16.625 19.1406C16.5729 19.0677 16.4896 19.026 16.375 19.0156L15.3984 18.9531V18.2656H23.1797V20.8047H22.2344ZM30.9531 28.2031C30.7292 28.3438 30.4948 28.474 30.25 28.5938C30.0104 28.7135 29.7604 28.8177 29.5 28.9062C29.2448 28.9948 28.9844 29.0651 28.7188 29.1172C28.4531 29.1693 28.1849 29.1953 27.9141 29.1953C27.4297 29.1953 26.9635 29.1146 26.5156 28.9531C26.0677 28.7865 25.6719 28.5391 25.3281 28.2109C24.9896 27.8828 24.7161 27.4714 24.5078 26.9766C24.3047 26.4766 24.2031 25.8932 24.2031 25.2266C24.2031 24.6016 24.2969 24.0365 24.4844 23.5312C24.6719 23.0208 24.9323 22.5859 25.2656 22.2266C25.599 21.862 25.9948 21.5833 26.4531 21.3906C26.9115 21.1927 27.4141 21.0938 27.9609 21.0938C28.4557 21.0938 28.8906 21.1771 29.2656 21.3438C29.6406 21.5052 29.9531 21.7318 30.2031 22.0234C30.4531 22.3099 30.6406 22.6562 30.7656 23.0625C30.8906 23.4635 30.9531 23.901 30.9531 24.375V24.5859C30.9531 24.6693 30.9479 24.7474 30.9375 24.8203H25.75C25.75 25.2266 25.7917 25.6328 25.875 26.0391C25.9635 26.4453 26.1094 26.8099 26.3125 27.1328C26.5156 27.4557 26.7891 27.7188 27.1328 27.9219C27.4766 28.1198 27.9062 28.2188 28.4219 28.2188C28.651 28.2188 28.8776 28.1901 29.1016 28.1328C29.3255 28.0703 29.5443 27.9922 29.7578 27.8984C29.9766 27.8047 30.1849 27.7005 30.3828 27.5859C30.5807 27.4661 30.7708 27.3464 30.9531 27.2266V28.2031ZM29.3516 23.75C29.3516 23.4844 29.3203 23.2396 29.2578 23.0156C29.1953 22.7865 29.099 22.5885 28.9688 22.4219C28.8438 22.2552 28.6823 22.125 28.4844 22.0312C28.2917 21.9323 28.0625 21.8828 27.7969 21.8828C27.5312 21.8828 27.2839 21.9349 27.0547 22.0391C26.8255 22.138 26.6224 22.2839 26.4453 22.4766C26.2734 22.6693 26.1328 22.9036 26.0234 23.1797C25.9193 23.4505 25.8568 23.7578 25.8359 24.1016H29.3516V23.75ZM38.7969 28.2031C38.5729 28.3438 38.3385 28.474 38.0938 28.5938C37.8542 28.7135 37.6042 28.8177 37.3438 28.9062C37.0885 28.9948 36.8281 29.0651 36.5625 29.1172C36.2969 29.1693 36.0286 29.1953 35.7578 29.1953C35.2734 29.1953 34.8073 29.1146 34.3594 28.9531C33.9115 28.7865 33.5156 28.5391 33.1719 28.2109C32.8333 27.8828 32.5599 27.4714 32.3516 26.9766C32.1484 26.4766 32.0469 25.8932 32.0469 25.2266C32.0469 24.6016 32.1406 24.0365 32.3281 23.5312C32.5156 23.0208 32.776 22.5859 33.1094 22.2266C33.4427 21.862 33.8385 21.5833 34.2969 21.3906C34.7552 21.1927 35.2578 21.0938 35.8047 21.0938C36.2995 21.0938 36.7344 21.1771 37.1094 21.3438C37.4844 21.5052 37.7969 21.7318 38.0469 22.0234C38.2969 22.3099 38.4844 22.6562 38.6094 23.0625C38.7344 23.4635 38.7969 23.901 38.7969 24.375V24.5859C38.7969 24.6693 38.7917 24.7474 38.7812 24.8203H33.5938C33.5938 25.2266 33.6354 25.6328 33.7188 26.0391C33.8073 26.4453 33.9531 26.8099 34.1562 27.1328C34.3594 27.4557 34.6328 27.7188 34.9766 27.9219C35.3203 28.1198 35.75 28.2188 36.2656 28.2188C36.4948 28.2188 36.7214 28.1901 36.9453 28.1328C37.1693 28.0703 37.388 27.9922 37.6016 27.8984C37.8203 27.8047 38.0286 27.7005 38.2266 27.5859C38.4245 27.4661 38.6146 27.3464 38.7969 27.2266V28.2031ZM37.1953 23.75C37.1953 23.4844 37.1641 23.2396 37.1016 23.0156C37.0391 22.7865 36.9427 22.5885 36.8125 22.4219C36.6875 22.2552 36.526 22.125 36.3281 22.0312C36.1354 21.9323 35.9062 21.8828 35.6406 21.8828C35.375 21.8828 35.1276 21.9349 34.8984 22.0391C34.6693 22.138 34.4661 22.2839 34.2891 22.4766C34.1172 22.6693 33.9766 22.9036 33.8672 23.1797C33.763 23.4505 33.7005 23.7578 33.6797 24.1016H37.1953V23.75ZM45.4375 29V28.1484C45.2552 28.2891 45.0651 28.4245 44.8672 28.5547C44.6745 28.6797 44.474 28.7891 44.2656 28.8828C44.0625 28.9766 43.8516 29.0521 43.6328 29.1094C43.4193 29.1667 43.1953 29.1953 42.9609 29.1953C42.4245 29.1953 41.9609 29.0807 41.5703 28.8516C41.1849 28.6172 40.8672 28.3177 40.6172 27.9531C40.3672 27.5833 40.1823 27.1719 40.0625 26.7188C39.9479 26.2604 39.8906 25.8047 39.8906 25.3516C39.8906 24.8099 39.974 24.2839 40.1406 23.7734C40.3073 23.2578 40.5599 22.8021 40.8984 22.4062C41.237 22.0104 41.6615 21.6927 42.1719 21.4531C42.6823 21.2135 43.2812 21.0938 43.9688 21.0938C44.0938 21.0938 44.2292 21.1016 44.375 21.1172C44.5208 21.1328 44.6615 21.151 44.7969 21.1719C44.9375 21.1875 45.0625 21.2083 45.1719 21.2344C45.2865 21.2552 45.375 21.2734 45.4375 21.2891V18.3594H44.2266V17.8281L46.2891 17.2109H46.9297V27.9766C46.9297 28.0755 46.9609 28.1562 47.0234 28.2188C47.0859 28.2812 47.1667 28.3177 47.2656 28.3281L47.9531 28.375V29H45.4375ZM45.4375 22.1016C45.3698 22.0807 45.2812 22.0573 45.1719 22.0312C45.0677 22 44.9531 21.974 44.8281 21.9531C44.7083 21.9271 44.5807 21.9062 44.4453 21.8906C44.3151 21.875 44.1927 21.8672 44.0781 21.8672C43.6823 21.8672 43.3229 21.9453 43 22.1016C42.6771 22.2526 42.401 22.4688 42.1719 22.75C41.9479 23.026 41.7734 23.362 41.6484 23.7578C41.5286 24.1536 41.4688 24.5938 41.4688 25.0781C41.4688 25.5156 41.5208 25.9193 41.625 26.2891C41.7292 26.6536 41.8802 26.9714 42.0781 27.2422C42.276 27.513 42.5182 27.724 42.8047 27.875C43.0911 28.026 43.4193 28.1016 43.7891 28.1016C43.9505 28.1016 44.1068 28.0859 44.2578 28.0547C44.4089 28.0182 44.5547 27.974 44.6953 27.9219C44.8359 27.8646 44.9688 27.8047 45.0938 27.7422C45.2188 27.6745 45.3333 27.6094 45.4375 27.5469V22.1016Z" fill="black"/>
<path d="M18.62 33.38L17.04 33.14V32.14H22.48V33.14L20.76 33.38V38.76H27.8V33.38L26.18 33.14V32.14H31.54V33.14L29.96 33.38V45.82L31.54 46.02V47H26.16V46.02L27.8 45.82V40H20.76V45.82L22.5 46.02V47H17V46.02L18.62 45.82V33.38ZM48.7425 50.96C48.1425 50.96 47.5758 50.86 47.0425 50.66C46.5092 50.46 46.0225 50.2133 45.5825 49.92C45.1558 49.64 44.6425 49.2667 44.0425 48.8C43.3892 48.2933 42.8358 47.9 42.3825 47.62C41.9425 47.34 41.4892 47.1533 41.0225 47.06C40.5292 47.1667 40.0492 47.22 39.5825 47.22C38.2358 47.22 37.0892 46.9067 36.1425 46.28C35.1958 45.6533 34.4825 44.7733 34.0025 43.64C33.5225 42.4933 33.2825 41.1667 33.2825 39.66C33.2825 38.1267 33.5692 36.78 34.1425 35.62C34.7292 34.46 35.5292 33.5667 36.5425 32.94C37.5558 32.3 38.7025 31.98 39.9825 31.98C42.0625 31.98 43.6492 32.64 44.7425 33.96C45.8358 35.2667 46.3825 37.08 46.3825 39.4C46.3825 41.12 46.0225 42.6067 45.3025 43.86C44.5958 45.1133 43.6358 46.0267 42.4225 46.6C43.0225 46.6533 43.6025 46.8 44.1625 47.04C44.7225 47.28 45.3825 47.62 46.1425 48.06C46.9825 48.5133 47.6625 48.8467 48.1825 49.06C48.7025 49.2733 49.2358 49.38 49.7825 49.38C50.0092 49.38 50.2158 49.3667 50.4025 49.34L50.6425 50.2C50.4025 50.4533 50.1158 50.64 49.7825 50.76C49.4492 50.8933 49.1025 50.96 48.7425 50.96ZM39.8025 46.16C41.0958 46.16 42.1158 45.5867 42.8625 44.44C43.6092 43.28 43.9825 41.6067 43.9825 39.42C43.9825 37.4067 43.6225 35.84 42.9025 34.72C42.1825 33.5867 41.1692 33.02 39.8625 33.02C38.5692 33.02 37.5425 33.58 36.7825 34.7C36.0358 35.82 35.6625 37.4733 35.6625 39.66C35.6625 41.66 36.0225 43.2467 36.7425 44.42C37.4758 45.58 38.4958 46.16 39.8025 46.16Z" fill="black"/>
<defs>
<radialGradient id="paint0_radial" cx="0" cy="0" r="1" gradientUnits="userSpaceOnUse" gradientTransform="translate(32 59.0009) scale(27.5 3)">
<stop/>
<stop offset="1" stop-opacity="0"/>
</radialGradient>
<radialGradient id="paint1_radial" cx="0" cy="0" r="1" gradientUnits="userSpaceOnUse" gradientTransform="translate(51.8848 59.2509) scale(7.11871 1.25)">
<stop stop-color="#181818"/>
<stop offset="1" stop-color="#181818" stop-opacity="0"/>
</radialGradient>
<radialGradient id="paint2_radial" cx="0" cy="0" r="1" gradientUnits="userSpaceOnUse" gradientTransform="translate(12.1152 59.2509) rotate(180) scale(7.11871 1.25)">
<stop stop-color="#181818"/>
<stop offset="1" stop-color="#181818" stop-opacity="0"/>
</radialGradient>
<linearGradient id="paint3_linear" x1="33.5036" y1="60.5108" x2="33.5036" y2="58.0007" gradientUnits="userSpaceOnUse">
<stop stop-color="#181818" stop-opacity="0"/>
<stop offset="0.5" stop-color="#181818"/>
<stop offset="1" stop-color="#181818" stop-opacity="0"/>
</linearGradient>
<linearGradient id="paint4_linear" x1="31.3771" y1="8.52102" x2="31.3771" y2="58.8984" gradientUnits="userSpaceOnUse">
<stop stop-color="#FAFAFA"/>
<stop offset="1" stop-color="#D4D4D4"/>
</linearGradient>
<linearGradient id="paint5_linear" x1="32" y1="7.56848" x2="32" y2="59.4334" gradientUnits="userSpaceOnUse">
<stop stop-color="white"/>
<stop offset="0.0631645" stop-color="white" stop-opacity="0.235294"/>
<stop offset="0.950563" stop-color="white" stop-opacity="0.156863"/>
<stop offset="1" stop-color="white" stop-opacity="0.392157"/>
</linearGradient>
</defs>
</svg>
