<svg width="64" height="64" viewBox="0 0 64 64" fill="none" xmlns="http://www.w3.org/2000/svg">
<g clip-path="url(#clip0)">
<path d="M15.6602 12.6582L15.2637 10.0879C15.2363 9.95117 15.1816 9.83268 15.0996 9.73242C15.0176 9.63216 14.9128 9.58203 14.7852 9.58203H8.82422V16.8691H13.1035C13.2311 16.8691 13.3405 16.8099 13.4316 16.6914C13.5319 16.5729 13.5911 16.4635 13.6094 16.3633L13.8691 14.3945H15.2637V20.6973H13.8691L13.6094 18.7422C13.5911 18.6419 13.5319 18.5326 13.4316 18.4141C13.3314 18.2956 13.222 18.2363 13.1035 18.2363H8.82422V25.0723C8.82422 25.209 8.86979 25.3411 8.96094 25.4688C9.0612 25.5964 9.21159 25.6693 9.41211 25.6875L11.2852 25.7969V27H3.92969V25.7969L5.40625 25.6875C5.60677 25.6693 5.7526 25.5964 5.84375 25.4688C5.94401 25.3411 5.99414 25.209 5.99414 25.0723V10.1426C5.99414 10.0059 5.94401 9.8737 5.84375 9.74609C5.7526 9.61849 5.60677 9.54557 5.40625 9.52734L3.69727 9.41797V8.21484H17.3145V12.6582H15.6602ZM30.918 25.6055C30.526 25.8516 30.1159 26.0794 29.6875 26.2891C29.2682 26.4987 28.8307 26.681 28.375 26.8359C27.9284 26.9909 27.4727 27.1139 27.0078 27.2051C26.543 27.2962 26.0736 27.3418 25.5996 27.3418C24.752 27.3418 23.9362 27.2005 23.1523 26.918C22.3685 26.6263 21.6758 26.1934 21.0742 25.6191C20.4818 25.0449 20.0033 24.3249 19.6387 23.459C19.2832 22.584 19.1055 21.5632 19.1055 20.3965C19.1055 19.3027 19.2695 18.3138 19.5977 17.4297C19.9258 16.5365 20.3815 15.7754 20.9648 15.1465C21.5482 14.5085 22.2409 14.0208 23.043 13.6836C23.8451 13.3372 24.7246 13.1641 25.6816 13.1641C26.5475 13.1641 27.3086 13.3099 27.9648 13.6016C28.6211 13.8841 29.168 14.2806 29.6055 14.791C30.043 15.2923 30.3711 15.8984 30.5898 16.6094C30.8086 17.3112 30.918 18.0768 30.918 18.9062V19.2754C30.918 19.4212 30.9089 19.5579 30.8906 19.6855H21.8125C21.8125 20.3965 21.8854 21.1074 22.0312 21.8184C22.1862 22.5293 22.4414 23.1673 22.7969 23.7324C23.1523 24.2975 23.6309 24.7578 24.2324 25.1133C24.834 25.4596 25.5859 25.6328 26.4883 25.6328C26.8893 25.6328 27.2858 25.5827 27.6777 25.4824C28.0697 25.373 28.4525 25.2363 28.8262 25.0723C29.209 24.9082 29.5736 24.7259 29.9199 24.5254C30.2663 24.3158 30.599 24.1061 30.918 23.8965V25.6055ZM28.1152 17.8125C28.1152 17.3477 28.0605 16.9193 27.9512 16.5273C27.8418 16.1263 27.6732 15.7799 27.4453 15.4883C27.2266 15.1966 26.944 14.9688 26.5977 14.8047C26.2604 14.6315 25.8594 14.5449 25.3945 14.5449C24.9297 14.5449 24.4967 14.6361 24.0957 14.8184C23.6947 14.9915 23.3392 15.2467 23.0293 15.584C22.7285 15.9212 22.4824 16.3314 22.291 16.8145C22.1087 17.2884 21.9993 17.8262 21.9629 18.4277H28.1152V17.8125ZM44.6445 25.6055C44.2526 25.8516 43.8424 26.0794 43.4141 26.2891C42.9948 26.4987 42.5573 26.681 42.1016 26.8359C41.6549 26.9909 41.1992 27.1139 40.7344 27.2051C40.2695 27.2962 39.8001 27.3418 39.3262 27.3418C38.4785 27.3418 37.6628 27.2005 36.8789 26.918C36.0951 26.6263 35.4023 26.1934 34.8008 25.6191C34.2083 25.0449 33.7298 24.3249 33.3652 23.459C33.0098 22.584 32.832 21.5632 32.832 20.3965C32.832 19.3027 32.9961 18.3138 33.3242 17.4297C33.6523 16.5365 34.1081 15.7754 34.6914 15.1465C35.2747 14.5085 35.9674 14.0208 36.7695 13.6836C37.5716 13.3372 38.4512 13.1641 39.4082 13.1641C40.2741 13.1641 41.0352 13.3099 41.6914 13.6016C42.3477 13.8841 42.8945 14.2806 43.332 14.791C43.7695 15.2923 44.0977 15.8984 44.3164 16.6094C44.5352 17.3112 44.6445 18.0768 44.6445 18.9062V19.2754C44.6445 19.4212 44.6354 19.5579 44.6172 19.6855H35.5391C35.5391 20.3965 35.612 21.1074 35.7578 21.8184C35.9128 22.5293 36.168 23.1673 36.5234 23.7324C36.8789 24.2975 37.3574 24.7578 37.959 25.1133C38.5605 25.4596 39.3125 25.6328 40.2148 25.6328C40.6159 25.6328 41.0124 25.5827 41.4043 25.4824C41.7962 25.373 42.179 25.2363 42.5527 25.0723C42.9355 24.9082 43.3001 24.7259 43.6465 24.5254C43.9928 24.3158 44.3255 24.1061 44.6445 23.8965V25.6055ZM41.8418 17.8125C41.8418 17.3477 41.7871 16.9193 41.6777 16.5273C41.5684 16.1263 41.3997 15.7799 41.1719 15.4883C40.9531 15.1966 40.6706 14.9688 40.3242 14.8047C39.987 14.6315 39.5859 14.5449 39.1211 14.5449C38.6562 14.5449 38.2233 14.6361 37.8223 14.8184C37.4212 14.9915 37.0658 15.2467 36.7559 15.584C36.4551 15.9212 36.209 16.3314 36.0176 16.8145C35.8353 17.2884 35.7259 17.8262 35.6895 18.4277H41.8418V17.8125ZM56.2656 27V25.5098C55.9466 25.7559 55.6139 25.9928 55.2676 26.2207C54.9303 26.4395 54.5794 26.6309 54.2148 26.7949C53.8594 26.959 53.4902 27.0911 53.1074 27.1914C52.7337 27.2917 52.3418 27.3418 51.9316 27.3418C50.9928 27.3418 50.1816 27.1413 49.498 26.7402C48.8236 26.3301 48.2676 25.806 47.8301 25.168C47.3926 24.5208 47.069 23.8008 46.8594 23.0078C46.6589 22.2057 46.5586 21.4082 46.5586 20.6152C46.5586 19.6673 46.7044 18.7467 46.9961 17.8535C47.2878 16.9512 47.7298 16.1536 48.3223 15.4609C48.9147 14.7682 49.6576 14.2122 50.5508 13.793C51.444 13.3737 52.4922 13.1641 53.6953 13.1641C53.9141 13.1641 54.151 13.1777 54.4062 13.2051C54.6615 13.2324 54.9076 13.2643 55.1445 13.3008C55.3906 13.3281 55.6094 13.3646 55.8008 13.4102C56.0013 13.4466 56.1562 13.4785 56.2656 13.5059V8.37891H54.1465V7.44922L57.7559 6.36914H58.877V25.209C58.877 25.3822 58.9316 25.5234 59.041 25.6328C59.1504 25.7422 59.2917 25.806 59.4648 25.8242L60.668 25.9062V27H56.2656ZM56.2656 14.9277C56.1471 14.8913 55.9922 14.8503 55.8008 14.8047C55.6185 14.75 55.418 14.7044 55.1992 14.668C54.9896 14.6224 54.7663 14.5859 54.5293 14.5586C54.3014 14.5312 54.0872 14.5176 53.8867 14.5176C53.194 14.5176 52.5651 14.6543 52 14.9277C51.4349 15.1921 50.9518 15.5703 50.5508 16.0625C50.1589 16.5456 49.8535 17.1335 49.6348 17.8262C49.4251 18.5189 49.3203 19.2891 49.3203 20.1367C49.3203 20.9023 49.4115 21.6087 49.5938 22.2559C49.776 22.8939 50.0404 23.4499 50.3867 23.9238C50.7331 24.3978 51.1569 24.7669 51.6582 25.0312C52.1595 25.2956 52.7337 25.4277 53.3809 25.4277C53.6634 25.4277 53.9368 25.4004 54.2012 25.3457C54.4655 25.2819 54.7207 25.2044 54.9668 25.1133C55.2129 25.013 55.4453 24.9082 55.6641 24.7988C55.8828 24.6803 56.0833 24.5664 56.2656 24.457V14.9277Z" fill="#ABACAE"/>
<path d="M11.192 33.208L8.664 32.824V31.224H17.368V32.824L14.616 33.208V41.816H25.88V33.208L23.288 32.824V31.224H31.864V32.824L29.336 33.208V53.112L31.864 53.432V55H23.256V53.432L25.88 53.112V43.8H14.616V53.112L17.4 53.432V55H8.6V53.432L11.192 53.112V33.208ZM59.388 61.336C58.428 61.336 57.5213 61.176 56.668 60.856C55.8147 60.536 55.036 60.1413 54.332 59.672C53.6493 59.224 52.828 58.6267 51.868 57.88C50.8227 57.0693 49.9373 56.44 49.212 55.992C48.508 55.544 47.7827 55.2453 47.036 55.096C46.2467 55.2667 45.4787 55.352 44.732 55.352C42.5773 55.352 40.7427 54.8507 39.228 53.848C37.7133 52.8453 36.572 51.4373 35.804 49.624C35.036 47.7893 34.652 45.6667 34.652 43.256C34.652 40.8027 35.1107 38.648 36.028 36.792C36.9667 34.936 38.2467 33.5067 39.868 32.504C41.4893 31.48 43.324 30.968 45.372 30.968C48.7 30.968 51.2387 32.024 52.988 34.136C54.7373 36.2267 55.612 39.128 55.612 42.84C55.612 45.592 55.036 47.9707 53.884 49.976C52.7533 51.9813 51.2173 53.4427 49.276 54.36C50.236 54.4453 51.164 54.68 52.06 55.064C52.956 55.448 54.012 55.992 55.228 56.696C56.572 57.4213 57.66 57.9547 58.492 58.296C59.324 58.6373 60.1773 58.808 61.052 58.808C61.4147 58.808 61.7453 58.7867 62.044 58.744L62.428 60.12C62.044 60.5253 61.5853 60.824 61.052 61.016C60.5187 61.2293 59.964 61.336 59.388 61.336ZM45.084 53.656C47.1533 53.656 48.7853 52.7387 49.98 50.904C51.1747 49.048 51.772 46.3707 51.772 42.872C51.772 39.6507 51.196 37.144 50.044 35.352C48.892 33.5387 47.2707 32.632 45.18 32.632C43.1107 32.632 41.468 33.528 40.252 35.32C39.0573 37.112 38.46 39.7573 38.46 43.256C38.46 46.456 39.036 48.9947 40.188 50.872C41.3613 52.728 42.9933 53.656 45.084 53.656Z" fill="#ABACAE"/>
</g>
<defs>
<clipPath id="clip0">
<rect width="64" height="64" fill="white"/>
</clipPath>
</defs>
</svg>
