<svg width="32" height="32" viewBox="0 0 32 32" fill="none" xmlns="http://www.w3.org/2000/svg">
<g opacity="0.4">
<path opacity="0.4" d="M30 28H26.3158V31H30V28Z" fill="url(#paint0_radial)"/>
<path opacity="0.4" d="M2 31H5.68421V28H2V31Z" fill="url(#paint1_radial)"/>
<path opacity="0.4" d="M26.3158 28H5.68421V31H26.3158V28Z" fill="url(#paint2_linear)"/>
</g>
<path d="M26.5 2.5H5.5C3.84315 2.5 2.5 3.84315 2.5 5.5V26.5C2.5 28.1569 3.84315 29.5 5.5 29.5H26.5C28.1569 29.5 29.5 28.1569 29.5 26.5V5.5C29.5 3.84315 28.1569 2.5 26.5 2.5Z" fill="url(#paint3_linear)"/>
<path opacity="0.35" d="M26.5 3.5H5.5C4.39543 3.5 3.5 4.39543 3.5 5.5V26.5C3.5 27.6046 4.39543 28.5 5.5 28.5H26.5C27.6046 28.5 28.5 27.6046 28.5 26.5V5.5C28.5 4.39543 27.6046 3.5 26.5 3.5Z" stroke="url(#paint4_linear)" stroke-linecap="round" stroke-linejoin="round"/>
<path opacity="0.5" d="M26.5 2.5H5.5C3.84314 2.5 2.5 3.84315 2.5 5.5V26.5C2.5 28.1569 3.84314 29.5 5.5 29.5H26.5C28.1569 29.5 29.5 28.1569 29.5 26.5V5.5C29.5 3.84315 28.1569 2.5 26.5 2.5Z" stroke="#0D52BF" stroke-width="0.999998"/>
<path d="M13.5442 23.7093C13.0258 23.7093 13.1139 23.5136 12.9351 23.02L11.4108 18.0034L23.1442 11.0426" fill="black" fill-opacity="0.15"/>
<path d="M13.5442 23.7093C13.0258 23.7093 13.1139 23.5136 12.9351 23.02L11.4108 18.0034L23.1442 11.0426" stroke="black" stroke-opacity="0.07"/>
<path d="M13.5442 23.7093C13.9442 23.7093 14.1209 23.5264 14.3442 23.3093L16.4775 21.2349L13.8164 19.6302" fill="black" fill-opacity="0.15"/>
<path d="M13.5442 23.7093C13.9442 23.7093 14.1209 23.5264 14.3442 23.3093L16.4775 21.2349L13.8164 19.6302" stroke="black" stroke-opacity="0.07"/>
<path d="M13.8162 19.6306L20.2642 24.3945C21 24.8005 21.531 24.5903 21.7143 23.7114L24.339 11.343C24.6077 10.2656 23.9283 9.77697 23.2244 10.0965L7.81238 16.0393C6.76036 16.4613 6.7665 17.0482 7.62062 17.3097L11.5757 18.5442L20.7321 12.7675C21.1643 12.5054 21.5611 12.6463 21.2354 12.9353" fill="black" fill-opacity="0.15"/>
<path d="M13.8162 19.6306L20.2642 24.3945C21 24.8005 21.531 24.5903 21.7143 23.7114L24.339 11.343C24.6077 10.2656 23.9283 9.77697 23.2244 10.0965L7.81238 16.0393C6.76036 16.4613 6.7665 17.0482 7.62062 17.3097L11.5757 18.5442L20.7321 12.7675C21.1643 12.5054 21.5611 12.6463 21.2354 12.9353" stroke="black" stroke-opacity="0.07"/>
<path d="M13.5442 23.7093C13.0258 23.7093 13.1139 23.5136 12.9351 23.02L11.4108 18.0034L23.1442 11.0426" fill="black" fill-opacity="0.15"/>
<path d="M13.5442 23.7093C13.9442 23.7093 14.1209 23.5264 14.3442 23.3093L16.4775 21.2349L13.8164 19.6302" fill="black" fill-opacity="0.15"/>
<path d="M13.8162 19.6306L20.2642 24.3945C21 24.8005 21.531 24.5903 21.7143 23.7114L24.339 11.343C24.6077 10.2656 23.9283 9.77697 23.2244 10.0965L7.81238 16.0393C6.76036 16.4613 6.7665 17.0482 7.62062 17.3097L11.5757 18.5442L20.7321 12.7675C21.1643 12.5054 21.5611 12.6463 21.2354 12.9353" fill="black" fill-opacity="0.15"/>
<path d="M13.5442 22.7093C13.0258 22.7093 13.1139 22.5136 12.9351 22.02L11.4108 17.0034L23.1442 10.0426" fill="#C8DAEA"/>
<path d="M13.5442 22.7093C13.9442 22.7093 14.1209 22.5264 14.3442 22.3093L16.4775 20.2349L13.8164 18.6302" fill="#A9C9DD"/>
<path d="M13.8162 18.6306L20.2642 23.3945C21 23.8005 21.531 23.5903 21.7143 22.7114L24.339 10.343C24.6077 9.26561 23.9283 8.77697 23.2244 9.09654L7.81238 15.0393C6.76036 15.4613 6.7665 16.0482 7.62062 16.3097L11.5757 17.5442L20.7321 11.7675C21.1643 11.5054 21.5611 11.6463 21.2354 11.9353" fill="url(#paint5_linear)"/>
<defs>
<radialGradient id="paint0_radial" cx="0" cy="0" r="1" gradientUnits="userSpaceOnUse" gradientTransform="translate(26.3106 29.5) scale(3.69118 1.5)">
<stop stop-color="#181818"/>
<stop offset="1" stop-color="#181818" stop-opacity="0"/>
</radialGradient>
<radialGradient id="paint1_radial" cx="0" cy="0" r="1" gradientUnits="userSpaceOnUse" gradientTransform="translate(5.68938 29.5) rotate(180) scale(3.69118 1.5)">
<stop stop-color="#181818"/>
<stop offset="1" stop-color="#181818" stop-opacity="0"/>
</radialGradient>
<linearGradient id="paint2_linear" x1="16.7796" y1="31.0119" x2="16.7796" y2="27.9998" gradientUnits="userSpaceOnUse">
<stop stop-color="#181818" stop-opacity="0"/>
<stop offset="0.5" stop-color="#181818"/>
<stop offset="1" stop-color="#181818" stop-opacity="0"/>
</linearGradient>
<linearGradient id="paint3_linear" x1="16.5" y1="3" x2="16.5" y2="28.5" gradientUnits="userSpaceOnUse">
<stop stop-color="#37AEE2"/>
<stop offset="1" stop-color="#1E96C8"/>
</linearGradient>
<linearGradient id="paint4_linear" x1="16" y1="4" x2="16" y2="28" gradientUnits="userSpaceOnUse">
<stop stop-color="white"/>
<stop offset="0.0416667" stop-color="white" stop-opacity="0.235294"/>
<stop offset="0.958333" stop-color="white" stop-opacity="0.156863"/>
<stop offset="1" stop-color="white" stop-opacity="0.392157"/>
</linearGradient>
<linearGradient id="paint5_linear" x1="18.4781" y1="15.3758" x2="20.982" y2="21.0735" gradientUnits="userSpaceOnUse">
<stop stop-color="#EFF7FC"/>
<stop offset="1" stop-color="white"/>
</linearGradient>
</defs>
</svg>
