<svg width="64" height="64" viewBox="0 0 64 64" fill="none" xmlns="http://www.w3.org/2000/svg">
<path opacity="0.2" d="M59 56.25C58.9984 57.0456 56.1004 57.8084 50.9434 58.3709C45.7863 58.9334 38.7924 59.2494 31.5 59.2494C24.2076 59.2494 17.2137 58.9334 12.0566 58.3709C6.89955 57.8084 4.00156 57.0456 4 56.25C3.99923 55.856 4.70997 55.4658 6.09163 55.1018C7.47329 54.7377 9.4988 54.4069 12.0525 54.1283C14.6062 53.8496 17.638 53.6286 20.9749 53.4778C24.3117 53.327 27.8882 53.2494 31.5 53.2494C35.1118 53.2494 38.6883 53.327 42.0252 53.4778C45.362 53.6286 48.3938 53.8496 50.9475 54.1283C53.5012 54.4069 55.5267 54.7377 56.9084 55.1018C58.29 55.4658 59.0008 55.856 59 56.25Z" fill="url(#paint0_radial)"/>
<g opacity="0.7">
<path opacity="0.4" d="M62 53.25H53.9736V60H62V53.25Z" fill="url(#paint1_radial)"/>
<path opacity="0.4" d="M1 60H9.02635V53.25H1V60Z" fill="url(#paint2_radial)"/>
<path opacity="0.4" d="M53.9736 53.25H9.02635V60H53.9736V53.25Z" fill="url(#paint3_linear)"/>
</g>
<rect x="7" y="6" width="50" height="51" rx="5" fill="url(#paint4_linear)"/>
<rect x="6.5" y="5.5" width="51" height="52" rx="5.5" stroke="#555761" stroke-opacity="0.5"/>
<rect x="7" y="6" width="50" height="49" rx="5" fill="url(#paint5_linear)"/>
<rect x="6.5" y="5.5" width="51" height="50" rx="5.5" stroke="#555761" stroke-opacity="0.5"/>
<rect x="7" y="6" width="50" height="47" rx="5" fill="url(#paint6_linear)"/>
<rect x="6.5" y="5.5" width="51" height="48" rx="5.5" stroke="#555761" stroke-opacity="0.5"/>
<rect x="7" y="6" width="50" height="45" rx="5" fill="url(#paint7_linear)"/>
<rect x="6.5" y="5.5" width="51" height="46" rx="5.5" stroke="#555761" stroke-opacity="0.5"/>
<rect opacity="0.35" x="7.5" y="6.5" width="49" height="44" rx="4.5" stroke="url(#paint8_linear)" stroke-linecap="round" stroke-linejoin="round"/>
<path d="M16 13.5V16.1667C16 17.6333 17.2107 18.8333 18.6667 18.8333C25.0319 18.8333 31.1365 21.3619 35.6374 25.8628C40.1382 30.3637 42.6667 36.4681 42.6667 42.8333C42.6667 44.3 43.8773 45.5 45.3333 45.5H48V42.8333C48 35.0536 44.9093 27.5926 39.4082 22.0916C33.9071 16.5905 26.4464 13.5 18.6667 13.5H16ZM16 24.1667V26.8333C16 28.3 17.2107 29.5 18.6667 29.5C22.2029 29.5 25.5946 30.9048 28.0951 33.4053C30.5955 35.9058 32 39.2971 32 42.8333C32 44.3 33.2107 45.5 34.6667 45.5H37.3333V42.8333C37.3333 37.8826 35.3666 33.1347 31.8659 29.634C28.3652 26.1334 23.6174 24.1667 18.6667 24.1667H16ZM21.3333 34.8333C19.9188 34.8333 18.562 35.3952 17.5618 36.3954C16.5617 37.3956 16 38.7522 16 40.1667C16 41.5812 16.5617 42.9377 17.5618 43.9379C18.562 44.9381 19.9188 45.5 21.3333 45.5C22.7478 45.5 24.1046 44.9381 25.1048 43.9379C26.105 42.9377 26.6667 41.5812 26.6667 40.1667C26.6667 38.7522 26.105 37.3956 25.1048 36.3954C24.1046 35.3952 22.7478 34.8333 21.3333 34.8333Z" fill="black" fill-opacity="0.15"/>
<path d="M16 13.5V16.1667C16 17.6333 17.2107 18.8333 18.6667 18.8333C25.0319 18.8333 31.1365 21.3619 35.6374 25.8628C40.1382 30.3637 42.6667 36.4681 42.6667 42.8333C42.6667 44.3 43.8773 45.5 45.3333 45.5H48V42.8333C48 35.0536 44.9093 27.5926 39.4082 22.0916C33.9071 16.5905 26.4464 13.5 18.6667 13.5H16ZM16 24.1667V26.8333C16 28.3 17.2107 29.5 18.6667 29.5C22.2029 29.5 25.5946 30.9048 28.0951 33.4053C30.5955 35.9058 32 39.2971 32 42.8333C32 44.3 33.2107 45.5 34.6667 45.5H37.3333V42.8333C37.3333 37.8826 35.3666 33.1347 31.8659 29.634C28.3652 26.1334 23.6174 24.1667 18.6667 24.1667H16ZM21.3333 34.8333C19.9188 34.8333 18.562 35.3952 17.5618 36.3954C16.5617 37.3956 16 38.7522 16 40.1667C16 41.5812 16.5617 42.9377 17.5618 43.9379C18.562 44.9381 19.9188 45.5 21.3333 45.5C22.7478 45.5 24.1046 44.9381 25.1048 43.9379C26.105 42.9377 26.6667 41.5812 26.6667 40.1667C26.6667 38.7522 26.105 37.3956 25.1048 36.3954C24.1046 35.3952 22.7478 34.8333 21.3333 34.8333Z" fill="black" fill-opacity="0.15" stroke="black" stroke-opacity="0.07"/>
<path d="M16 13V15.6667C16 17.1333 17.2107 18.3333 18.6667 18.3333C25.0319 18.3333 31.1365 20.8619 35.6374 25.3628C40.1382 29.8637 42.6667 35.9681 42.6667 42.3333C42.6667 43.8 43.8773 45 45.3333 45H48V42.3333C48 34.5536 44.9093 27.0926 39.4082 21.5916C33.9071 16.0905 26.4464 13 18.6667 13H16ZM16 23.6667V26.3333C16 27.8 17.2107 29 18.6667 29C22.2029 29 25.5946 30.4048 28.0951 32.9053C30.5955 35.4058 32 38.7971 32 42.3333C32 43.8 33.2107 45 34.6667 45H37.3333V42.3333C37.3333 37.3826 35.3666 32.6347 31.8659 29.134C28.3652 25.6334 23.6174 23.6667 18.6667 23.6667H16ZM21.3333 34.3333C19.9188 34.3333 18.562 34.8952 17.5618 35.8954C16.5617 36.8956 16 38.2522 16 39.6667C16 41.0812 16.5617 42.4377 17.5618 43.4379C18.562 44.4381 19.9188 45 21.3333 45C22.7478 45 24.1046 44.4381 25.1048 43.4379C26.105 42.4377 26.6667 41.0812 26.6667 39.6667C26.6667 38.2522 26.105 36.8956 25.1048 35.8954C24.1046 34.8952 22.7478 34.3333 21.3333 34.3333Z" fill="#333333"/>
<g opacity="0.4" filter="url(#filter0_f)">
<path d="M43.8952 42.5258C43.1609 48.5519 40.3258 50.6861 39 51C55.2153 50.0584 57.9689 32.4822 56.7451 35.307C55.5213 38.1317 50.0142 39.3871 46.9547 39.3871C44.5071 39.3871 43.8952 41.4796 43.8952 42.5258Z" fill="#555761"/>
<path d="M43.8952 42.5258C43.1609 48.5519 40.3258 50.6861 39 51C55.2153 50.0584 57.9689 32.4822 56.7451 35.307C55.5213 38.1317 50.0142 39.3871 46.9547 39.3871C44.5071 39.3871 43.8952 41.4796 43.8952 42.5258Z" stroke="#555761"/>
</g>
<g opacity="0.4" filter="url(#filter1_f)">
<path d="M46.8074 45.174C46.2363 49.3169 44.0312 50.7842 43 51C55.6119 50.3527 57.7536 38.269 56.8017 40.211C55.8499 42.153 51.5666 43.0162 49.187 43.0162C47.2833 43.0162 46.8074 44.4547 46.8074 45.174Z" fill="#555761"/>
<path d="M46.8074 45.174C46.2363 49.3169 44.0312 50.7842 43 51C55.6119 50.3527 57.7536 38.269 56.8017 40.211C55.8499 42.153 51.5666 43.0162 49.187 43.0162C47.2833 43.0162 46.8074 44.4547 46.8074 45.174Z" stroke="#555761"/>
</g>
<path d="M45.3513 43.0554C44.6986 48.7049 42.1785 50.7058 41 51C55.4136 50.1173 57.8612 33.6396 56.7734 36.2878C55.6856 38.936 50.7904 40.113 48.0708 40.113C45.8952 40.113 45.3513 42.0746 45.3513 43.0554Z" fill="url(#paint9_linear)"/>
<path d="M57.3063 36.3312C57.3063 36.3315 57.3042 36.3351 57.2998 36.341C57.3041 36.3339 57.3063 36.3309 57.3063 36.3312ZM56.4984 36.1327C56.4986 36.1324 56.4991 36.1358 56.4995 36.1436C56.4985 36.1368 56.4983 36.1329 56.4984 36.1327ZM40.8789 50.5149L41.0306 51.4991C48.4577 51.0442 52.8011 46.5611 55.1315 42.572C56.2956 40.5793 56.9669 38.6963 57.2792 37.4685C57.4306 36.8735 57.5113 36.3803 57.4986 36.1007C57.4961 36.0448 57.4884 35.906 57.4165 35.7762C57.3755 35.7024 57.2773 35.5677 57.0877 35.5174C56.8949 35.4663 56.74 35.5373 56.664 35.586C56.5345 35.669 56.461 35.7939 56.4318 35.8444C56.3895 35.9177 56.3493 36.0042 56.3109 36.0978C55.851 37.2173 54.5324 38.1095 52.8614 38.7242C51.2178 39.3288 49.3726 39.613 48.0708 39.613C46.8028 39.613 45.9722 40.1981 45.4789 40.9394C45.012 41.6411 44.8568 42.4628 44.8514 43.0252C44.2061 48.5474 41.7704 50.2923 40.8789 50.5149Z" stroke="#555761" stroke-opacity="0.5"/>
<defs>
<filter id="filter0_f" x="33.8848" y="29.4998" width="28.6151" height="26.9994" filterUnits="userSpaceOnUse" color-interpolation-filters="sRGB">
<feFlood flood-opacity="0" result="BackgroundImageFix"/>
<feBlend mode="normal" in="SourceGraphic" in2="BackgroundImageFix" result="shape"/>
<feGaussianBlur stdDeviation="2.5" result="effect1_foregroundBlur"/>
</filter>
<filter id="filter1_f" x="37.8976" y="34.4999" width="24.6024" height="21.9995" filterUnits="userSpaceOnUse" color-interpolation-filters="sRGB">
<feFlood flood-opacity="0" result="BackgroundImageFix"/>
<feBlend mode="normal" in="SourceGraphic" in2="BackgroundImageFix" result="shape"/>
<feGaussianBlur stdDeviation="2.5" result="effect1_foregroundBlur"/>
</filter>
<radialGradient id="paint0_radial" cx="0" cy="0" r="1" gradientUnits="userSpaceOnUse" gradientTransform="translate(31.5 56.25) scale(27.5 3)">
<stop/>
<stop offset="1" stop-opacity="0"/>
</radialGradient>
<radialGradient id="paint1_radial" cx="0" cy="0" r="1" gradientUnits="userSpaceOnUse" gradientTransform="translate(53.9624 56.625) scale(8.04151 3.375)">
<stop stop-color="#181818"/>
<stop offset="1" stop-color="#181818" stop-opacity="0"/>
</radialGradient>
<radialGradient id="paint2_radial" cx="0" cy="0" r="1" gradientUnits="userSpaceOnUse" gradientTransform="translate(9.03753 56.625) rotate(180) scale(8.04151 3.375)">
<stop stop-color="#181818"/>
<stop offset="1" stop-color="#181818" stop-opacity="0"/>
</radialGradient>
<linearGradient id="paint3_linear" x1="33.1985" y1="60.0267" x2="33.1985" y2="53.2495" gradientUnits="userSpaceOnUse">
<stop stop-color="#181818" stop-opacity="0"/>
<stop offset="0.5" stop-color="#181818"/>
<stop offset="1" stop-color="#181818" stop-opacity="0"/>
</linearGradient>
<linearGradient id="paint4_linear" x1="31.4522" y1="6.20168" x2="31.4522" y2="56.9638" gradientUnits="userSpaceOnUse">
<stop stop-color="#FAFAFA"/>
<stop offset="1" stop-color="#D4D4D4"/>
</linearGradient>
<linearGradient id="paint5_linear" x1="31.4522" y1="6.19377" x2="31.4522" y2="54.9653" gradientUnits="userSpaceOnUse">
<stop stop-color="#FAFAFA"/>
<stop offset="1" stop-color="#D4D4D4"/>
</linearGradient>
<linearGradient id="paint6_linear" x1="31.4522" y1="6.18586" x2="31.4522" y2="52.9667" gradientUnits="userSpaceOnUse">
<stop stop-color="#FAFAFA"/>
<stop offset="1" stop-color="#D4D4D4"/>
</linearGradient>
<linearGradient id="paint7_linear" x1="31.4522" y1="6.17796" x2="31.4522" y2="50.9681" gradientUnits="userSpaceOnUse">
<stop stop-color="#FAFAFA"/>
<stop offset="1" stop-color="#D4D4D4"/>
</linearGradient>
<linearGradient id="paint8_linear" x1="32" y1="7.86" x2="32" y2="49.14" gradientUnits="userSpaceOnUse">
<stop stop-color="white"/>
<stop offset="0.0416667" stop-color="white" stop-opacity="0.235294"/>
<stop offset="0.958333" stop-color="white" stop-opacity="0.156863"/>
<stop offset="1" stop-color="white" stop-opacity="0.392157"/>
</linearGradient>
<linearGradient id="paint9_linear" x1="48.8247" y1="36.0593" x2="48.8247" y2="50.9894" gradientUnits="userSpaceOnUse">
<stop stop-color="#FAFAFA"/>
<stop offset="1" stop-color="#D4D4D4"/>
</linearGradient>
</defs>
</svg>
