<svg width="64" height="64" viewBox="0 0 64 64" fill="none" xmlns="http://www.w3.org/2000/svg">
<g clip-path="url(#clip0)">
<g opacity="0.6">
<path opacity="0.6" d="M61.1667 55.5H53.1667V61.5H61.1667V55.5Z" fill="url(#paint0_radial)"/>
<path opacity="0.6" d="M2.5 61.5H10.5V55.5H2.5V61.5Z" fill="url(#paint1_radial)"/>
<path opacity="0.6" d="M53.1667 55.5H10.5V61.5H53.1667V55.5Z" fill="url(#paint2_linear)"/>
</g>
<path opacity="0.2" d="M59.5 59C59.4988 59.7956 56.6009 60.5585 51.4438 61.121C46.2867 61.6835 39.2926 61.9995 32 61.9995C24.7074 61.9995 17.7133 61.6835 12.5562 61.121C7.39911 60.5585 4.50124 59.7956 4.5 59C4.49938 58.606 5.21024 58.2159 6.59197 57.8518C7.9737 57.4878 9.99923 57.157 12.5529 56.8784C15.1066 56.5997 18.1384 56.3787 21.4751 56.2279C24.8119 56.0771 28.3883 55.9995 32 55.9995C35.6117 55.9995 39.1881 56.0771 42.5249 56.2279C45.8616 56.3787 48.8934 56.5997 51.4471 56.8784C54.0008 57.157 56.0263 57.4878 57.408 57.8518C58.7898 58.2159 59.5006 58.606 59.5 59V59Z" fill="url(#paint3_radial)"/>
<path d="M52.75 7.75H11.25C8.48858 7.75 6.25 9.98858 6.25 12.75V54.25C6.25 57.0114 8.48858 59.25 11.25 59.25H52.75C55.5114 59.25 57.75 57.0114 57.75 54.25V12.75C57.75 9.98858 55.5114 7.75 52.75 7.75Z" fill="url(#paint4_linear)"/>
<path opacity="0.3" d="M52.75 8.25H11.25C8.76472 8.25 6.75 10.2647 6.75 12.75V54.25C6.75 56.7353 8.76472 58.75 11.25 58.75H52.75C55.2353 58.75 57.25 56.7353 57.25 54.25V12.75C57.25 10.2647 55.2353 8.25 52.75 8.25Z" stroke="url(#paint5_linear)" stroke-linecap="round" stroke-linejoin="round"/>
<path opacity="0.5" d="M52.75 7.75H11.25C8.48858 7.75 6.25 9.98858 6.25 12.75V54.25C6.25 57.0114 8.48858 59.25 11.25 59.25H52.75C55.5114 59.25 57.75 57.0114 57.75 54.25V12.75C57.75 9.98858 55.5114 7.75 52.75 7.75Z" stroke="#7E8087" stroke-linecap="round" stroke-linejoin="round"/>
<path d="M52.5485 7.5H11.4515C8.71684 7.5 6.5 9.71684 6.5 12.4515V53.5485C6.5 56.2832 8.71684 58.5 11.4515 58.5H52.5485C55.2832 58.5 57.5 56.2832 57.5 53.5485V12.4515C57.5 9.71684 55.2832 7.5 52.5485 7.5Z" fill="url(#paint6_linear)"/>
<path opacity="0.3" d="M52.5446 8H11.4554C8.99477 8 7 9.99477 7 12.4554V53.5446C7 56.0052 8.99477 58 11.4554 58H52.5446C55.0052 58 57 56.0052 57 53.5446V12.4554C57 9.99477 55.0052 8 52.5446 8Z" stroke="url(#paint7_linear)" stroke-linecap="round" stroke-linejoin="round"/>
<path opacity="0.5" d="M52.5485 7.5H11.4515C8.71684 7.5 6.5 9.71684 6.5 12.4515V53.5485C6.5 56.2832 8.71684 58.5 11.4515 58.5H52.5485C55.2832 58.5 57.5 56.2832 57.5 53.5485V12.4515C57.5 9.71684 55.2832 7.5 52.5485 7.5Z" stroke="#7E8087" stroke-linecap="round" stroke-linejoin="round"/>
<path d="M52.5485 7.5H11.4515C8.71684 7.5 6.5 9.67337 6.5 12.3544V52.6456C6.5 55.3266 8.71684 57.5 11.4515 57.5H52.5485C55.2832 57.5 57.5 55.3266 57.5 52.6456V12.3544C57.5 9.67337 55.2832 7.5 52.5485 7.5Z" fill="url(#paint8_linear)"/>
<path opacity="0.3" d="M52.5446 8H11.4554C8.99477 8 7 9.95488 7 12.3663V52.6337C7 55.0451 8.99477 57 11.4554 57H52.5446C55.0052 57 57 55.0451 57 52.6337V12.3663C57 9.95488 55.0052 8 52.5446 8Z" stroke="url(#paint9_linear)" stroke-linecap="round" stroke-linejoin="round"/>
<path opacity="0.5" d="M52.5485 7.5H11.4515C8.71684 7.5 6.5 9.67337 6.5 12.3544V52.6456C6.5 55.3266 8.71684 57.5 11.4515 57.5H52.5485C55.2832 57.5 57.5 55.3266 57.5 52.6456V12.3544C57.5 9.67337 55.2832 7.5 52.5485 7.5Z" stroke="#7E8087" stroke-linecap="round" stroke-linejoin="round"/>
<path d="M52.5485 8H11.4515C8.71684 8 6.5 10.1082 6.5 12.7087V51.7913C6.5 54.3918 8.71684 56.5 11.4515 56.5H52.5485C55.2832 56.5 57.5 54.3918 57.5 51.7913V12.7087C57.5 10.1082 55.2832 8 52.5485 8Z" fill="url(#paint10_linear)"/>
<path opacity="0.3" d="M52.5446 8.5H11.4554C8.99477 8.5 7 10.395 7 12.7327V51.7673C7 54.105 8.99477 56 11.4554 56H52.5446C55.0052 56 57 54.105 57 51.7673V12.7327C57 10.395 55.0052 8.5 52.5446 8.5Z" stroke="url(#paint11_linear)" stroke-linecap="round" stroke-linejoin="round"/>
<path opacity="0.5" d="M52.5485 8H11.4515C8.71684 8 6.5 10.1082 6.5 12.7087V51.7913C6.5 54.3918 8.71684 56.5 11.4515 56.5H52.5485C55.2832 56.5 57.5 54.3918 57.5 51.7913V12.7087C57.5 10.1082 55.2832 8 52.5485 8Z" stroke="#7E8087" stroke-linecap="round" stroke-linejoin="round"/>
<path d="M52.5485 7.5H11.4515C8.71684 7.5 6.5 9.58644 6.5 12.1602V50.8398C6.5 53.4136 8.71684 55.5 11.4515 55.5H52.5485C55.2832 55.5 57.5 53.4136 57.5 50.8398V12.1602C57.5 9.58644 55.2832 7.5 52.5485 7.5Z" fill="url(#paint12_linear)"/>
<path opacity="0.3" d="M52.5446 8H11.4554C8.99477 8 7 9.87508 7 12.1881V50.8119C7 53.1249 8.99477 55 11.4554 55H52.5446C55.0052 55 57 53.1249 57 50.8119V12.1881C57 9.87508 55.0052 8 52.5446 8Z" stroke="url(#paint13_linear)" stroke-linecap="round" stroke-linejoin="round"/>
<path opacity="0.5" d="M52.5485 7.5H11.4515C8.71684 7.5 6.5 9.58644 6.5 12.1602V50.8398C6.5 53.4136 8.71684 55.5 11.4515 55.5H43.2328C46.0643 55.5 46.8053 50.6958 48.6364 48.5362C51.0999 45.6306 57.5 45.3628 57.5 41.5535V12.1602C57.5 9.58644 55.2832 7.5 52.5485 7.5Z" stroke="#7E8087" stroke-linecap="round" stroke-linejoin="round"/>
<path d="M16 16.5V19.1667C16 20.6333 17.2107 21.8333 18.6667 21.8333C25.0319 21.8333 31.1365 24.3619 35.6374 28.8628C40.1382 33.3637 42.6667 39.4681 42.6667 45.8333C42.6667 47.3 43.8773 48.5 45.3333 48.5H48V45.8333C48 38.0537 44.9093 30.5926 39.4082 25.0916C33.9071 19.5905 26.4464 16.5 18.6667 16.5H16ZM16 27.1667V29.8333C16 31.3 17.2107 32.5 18.6667 32.5C22.2029 32.5 25.5946 33.9048 28.0951 36.4053C30.5955 38.9058 32 42.2971 32 45.8333C32 47.3 33.2107 48.5 34.6667 48.5H37.3333V45.8333C37.3333 40.8826 35.3666 36.1347 31.8659 32.634C28.3652 29.1334 23.6174 27.1667 18.6667 27.1667H16ZM21.3333 37.8333C19.9188 37.8333 18.562 38.3952 17.5618 39.3954C16.5617 40.3956 16 41.7522 16 43.1667C16 44.5812 16.5617 45.9377 17.5618 46.9379C18.562 47.9381 19.9188 48.5 21.3333 48.5C22.7478 48.5 24.1046 47.9381 25.1048 46.9379C26.105 45.9377 26.6667 44.5812 26.6667 43.1667C26.6667 41.7522 26.105 40.3956 25.1048 39.3954C24.1046 38.3952 22.7478 37.8333 21.3333 37.8333Z" fill="black" fill-opacity="0.15"/>
<path d="M16 16.5V19.1667C16 20.6333 17.2107 21.8333 18.6667 21.8333C25.0319 21.8333 31.1365 24.3619 35.6374 28.8628C40.1382 33.3637 42.6667 39.4681 42.6667 45.8333C42.6667 47.3 43.8773 48.5 45.3333 48.5H48V45.8333C48 38.0537 44.9093 30.5926 39.4082 25.0916C33.9071 19.5905 26.4464 16.5 18.6667 16.5H16ZM16 27.1667V29.8333C16 31.3 17.2107 32.5 18.6667 32.5C22.2029 32.5 25.5946 33.9048 28.0951 36.4053C30.5955 38.9058 32 42.2971 32 45.8333C32 47.3 33.2107 48.5 34.6667 48.5H37.3333V45.8333C37.3333 40.8826 35.3666 36.1347 31.8659 32.634C28.3652 29.1334 23.6174 27.1667 18.6667 27.1667H16ZM21.3333 37.8333C19.9188 37.8333 18.562 38.3952 17.5618 39.3954C16.5617 40.3956 16 41.7522 16 43.1667C16 44.5812 16.5617 45.9377 17.5618 46.9379C18.562 47.9381 19.9188 48.5 21.3333 48.5C22.7478 48.5 24.1046 47.9381 25.1048 46.9379C26.105 45.9377 26.6667 44.5812 26.6667 43.1667C26.6667 41.7522 26.105 40.3956 25.1048 39.3954C24.1046 38.3952 22.7478 37.8333 21.3333 37.8333Z" fill="black" fill-opacity="0.15" stroke="black" stroke-opacity="0.07"/>
<path d="M16 16V18.6667C16 20.1333 17.2107 21.3333 18.6667 21.3333C25.0319 21.3333 31.1365 23.8619 35.6374 28.3628C40.1382 32.8637 42.6667 38.9681 42.6667 45.3333C42.6667 46.8 43.8773 48 45.3333 48H48V45.3333C48 37.5537 44.9093 30.0926 39.4082 24.5916C33.9071 19.0905 26.4464 16 18.6667 16H16ZM16 26.6667V29.3333C16 30.8 17.2107 32 18.6667 32C22.2029 32 25.5946 33.4048 28.0951 35.9053C30.5955 38.4058 32 41.7971 32 45.3333C32 46.8 33.2107 48 34.6667 48H37.3333V45.3333C37.3333 40.3826 35.3666 35.6347 31.8659 32.134C28.3652 28.6334 23.6174 26.6667 18.6667 26.6667H16ZM21.3333 37.3333C19.9188 37.3333 18.562 37.8952 17.5618 38.8954C16.5617 39.8956 16 41.2522 16 42.6667C16 44.0812 16.5617 45.4377 17.5618 46.4379C18.562 47.4381 19.9188 48 21.3333 48C22.7478 48 24.1046 47.4381 25.1048 46.4379C26.105 45.4377 26.6667 44.0812 26.6667 42.6667C26.6667 41.2522 26.105 39.8956 25.1048 38.8954C24.1046 37.8952 22.7478 37.3333 21.3333 37.3333Z" fill="#333333"/>
<g filter="url(#filter0_dd)">
<path d="M46.5793 48.6147C45.9674 53.5109 43.6048 55.245 42.5 55.5C56.0128 54.735 58.3074 40.4543 57.2876 42.7494C56.2677 45.0445 51.6785 46.0646 49.1289 46.0646C47.0892 46.0646 46.5793 47.7646 46.5793 48.6147Z" fill="url(#paint14_linear)"/>
<path d="M46.5793 48.6147C45.9674 53.5109 43.6048 55.245 42.5 55.5C56.0128 54.735 58.3074 40.4543 57.2876 42.7494C56.2677 45.0445 51.6785 46.0646 49.1289 46.0646C47.0892 46.0646 46.5793 47.7646 46.5793 48.6147Z" stroke="#818389"/>
</g>
</g>
<defs>
<filter id="filter0_dd" x="35.3875" y="34.9998" width="28.6124" height="30.9994" filterUnits="userSpaceOnUse" color-interpolation-filters="sRGB">
<feFlood flood-opacity="0" result="BackgroundImageFix"/>
<feColorMatrix in="SourceAlpha" type="matrix" values="0 0 0 0 0 0 0 0 0 0 0 0 0 0 0 0 0 0 127 0" result="hardAlpha"/>
<feOffset dx="-2" dy="-2"/>
<feGaussianBlur stdDeviation="2.5"/>
<feComposite in2="hardAlpha" operator="out"/>
<feColorMatrix type="matrix" values="0 0 0 0 0 0 0 0 0 0 0 0 0 0 0 0 0 0 0.2 0"/>
<feBlend mode="normal" in2="BackgroundImageFix" result="effect1_dropShadow"/>
<feColorMatrix in="SourceAlpha" type="matrix" values="0 0 0 0 0 0 0 0 0 0 0 0 0 0 0 0 0 0 127 0" result="hardAlpha"/>
<feOffset dy="4"/>
<feGaussianBlur stdDeviation="3"/>
<feComposite in2="hardAlpha" operator="out"/>
<feColorMatrix type="matrix" values="0 0 0 0 0 0 0 0 0 0 0 0 0 0 0 0 0 0 0.4 0"/>
<feBlend mode="normal" in2="effect1_dropShadow" result="effect2_dropShadow"/>
<feBlend mode="normal" in="SourceGraphic" in2="effect2_dropShadow" result="shape"/>
</filter>
<radialGradient id="paint0_radial" cx="0" cy="0" r="1" gradientUnits="userSpaceOnUse" gradientTransform="translate(53.1555 58.5) scale(8.01514 3)">
<stop stop-color="#181818"/>
<stop offset="1" stop-color="#181818" stop-opacity="0"/>
</radialGradient>
<radialGradient id="paint1_radial" cx="0" cy="0" r="1" gradientUnits="userSpaceOnUse" gradientTransform="translate(10.5112 58.5) rotate(180) scale(8.01514 3)">
<stop stop-color="#181818"/>
<stop offset="1" stop-color="#181818" stop-opacity="0"/>
</radialGradient>
<linearGradient id="paint2_linear" x1="33.4457" y1="61.5238" x2="33.4457" y2="55.4995" gradientUnits="userSpaceOnUse">
<stop stop-color="#181818" stop-opacity="0"/>
<stop offset="0.5" stop-color="#181818"/>
<stop offset="1" stop-color="#181818" stop-opacity="0"/>
</linearGradient>
<radialGradient id="paint3_radial" cx="0" cy="0" r="1" gradientUnits="userSpaceOnUse" gradientTransform="translate(32 59) scale(27.5 3)">
<stop/>
<stop offset="1" stop-opacity="0"/>
</radialGradient>
<linearGradient id="paint4_linear" x1="31.4358" y1="7.95366" x2="31.4358" y2="59.2135" gradientUnits="userSpaceOnUse">
<stop stop-color="#FAFAFA"/>
<stop offset="1" stop-color="#D4D4D4"/>
</linearGradient>
<linearGradient id="paint5_linear" x1="32" y1="7.56757" x2="32" y2="59.4324" gradientUnits="userSpaceOnUse">
<stop stop-color="white"/>
<stop offset="0.0631645" stop-color="white" stop-opacity="0.235294"/>
<stop offset="0.950563" stop-color="white" stop-opacity="0.156863"/>
<stop offset="1" stop-color="white" stop-opacity="0.392157"/>
</linearGradient>
<linearGradient id="paint6_linear" x1="31.4413" y1="7.70168" x2="31.4413" y2="58.4638" gradientUnits="userSpaceOnUse">
<stop stop-color="#FAFAFA"/>
<stop offset="1" stop-color="#D4D4D4"/>
</linearGradient>
<linearGradient id="paint7_linear" x1="32" y1="7.32432" x2="32" y2="58.6757" gradientUnits="userSpaceOnUse">
<stop stop-color="white"/>
<stop offset="0.0631645" stop-color="white" stop-opacity="0.235294"/>
<stop offset="0.950563" stop-color="white" stop-opacity="0.156863"/>
<stop offset="1" stop-color="white" stop-opacity="0.392157"/>
</linearGradient>
<linearGradient id="paint8_linear" x1="31.4413" y1="7.69773" x2="31.4413" y2="57.4646" gradientUnits="userSpaceOnUse">
<stop stop-color="#FAFAFA"/>
<stop offset="1" stop-color="#D4D4D4"/>
</linearGradient>
<linearGradient id="paint9_linear" x1="32" y1="7.33784" x2="32" y2="57.6622" gradientUnits="userSpaceOnUse">
<stop stop-color="white"/>
<stop offset="0.0631645" stop-color="white" stop-opacity="0.235294"/>
<stop offset="0.950563" stop-color="white" stop-opacity="0.156863"/>
<stop offset="1" stop-color="white" stop-opacity="0.392157"/>
</linearGradient>
<linearGradient id="paint10_linear" x1="31.4413" y1="8.1918" x2="31.4413" y2="56.4656" gradientUnits="userSpaceOnUse">
<stop stop-color="#FAFAFA"/>
<stop offset="1" stop-color="#D4D4D4"/>
</linearGradient>
<linearGradient id="paint11_linear" x1="32" y1="7.85811" x2="32" y2="56.6419" gradientUnits="userSpaceOnUse">
<stop stop-color="white"/>
<stop offset="0.0631645" stop-color="white" stop-opacity="0.235294"/>
<stop offset="0.950563" stop-color="white" stop-opacity="0.156863"/>
<stop offset="1" stop-color="white" stop-opacity="0.392157"/>
</linearGradient>
<linearGradient id="paint12_linear" x1="30.801" y1="7.5" x2="30.801" y2="55.5" gradientUnits="userSpaceOnUse">
<stop stop-color="#FAFAFA"/>
<stop offset="1" stop-color="#D4D4D4"/>
</linearGradient>
<linearGradient id="paint13_linear" x1="32" y1="7.36486" x2="32" y2="55.6351" gradientUnits="userSpaceOnUse">
<stop stop-color="white"/>
<stop offset="0.0631645" stop-color="white" stop-opacity="0.235294"/>
<stop offset="0.950563" stop-color="white" stop-opacity="0.156863"/>
<stop offset="1" stop-color="white" stop-opacity="0.392157"/>
</linearGradient>
<linearGradient id="paint14_linear" x1="50" y1="42.5" x2="50" y2="55.5" gradientUnits="userSpaceOnUse">
<stop stop-color="#FAFAFA"/>
<stop offset="1" stop-color="#D4D4D4"/>
</linearGradient>
<clipPath id="clip0">
<rect width="64" height="64" fill="white"/>
</clipPath>
</defs>
</svg>
