<svg width="64" height="64" viewBox="0 0 64 64" fill="none" xmlns="http://www.w3.org/2000/svg">
<path opacity="0.2" d="M59.5 59.0009C59.4984 59.7965 56.6004 60.5593 51.4434 61.1218C46.2863 61.6843 39.2924 62.0003 32 62.0003C24.7076 62.0003 17.7137 61.6843 12.5566 61.1218C7.39955 60.5593 4.50156 59.7965 4.5 59.0009C4.49923 58.6069 5.20997 58.2167 6.59163 57.8527C7.97329 57.4886 9.9988 57.1578 12.5525 56.8792C15.1062 56.6005 18.138 56.3795 21.4749 56.2287C24.8117 56.0779 28.3882 56.0003 32 56.0003C35.6118 56.0003 39.1883 56.0779 42.5252 56.2287C45.862 56.3795 48.8938 56.6005 51.4475 56.8792C54.0012 57.1578 56.0267 57.4886 57.4084 57.8527C58.79 58.2167 59.5008 58.6069 59.5 59.0009Z" fill="url(#paint0_radial)"/>
<g opacity="0.4">
<path opacity="0.4" d="M59 58.0009H51.8947V60.5009H59V58.0009Z" fill="url(#paint1_radial)"/>
<path opacity="0.4" d="M5.00001 60.5009H12.1053V58.0009H5.00001V60.5009Z" fill="url(#paint2_radial)"/>
<path opacity="0.4" d="M51.8947 58.0009H12.1053V60.5009H51.8947V58.0009Z" fill="url(#paint3_linear)"/>
</g>
<path d="M54.7227 7.75092H9.27727C7.60536 7.75092 6.25 9.10627 6.25 10.7782V56.2236C6.25 57.8956 7.60536 59.2509 9.27727 59.2509H54.7227C56.3946 59.2509 57.75 57.8956 57.75 56.2236V10.7782C57.75 9.10627 56.3946 7.75092 54.7227 7.75092Z" fill="url(#paint4_linear)"/>
<path opacity="0.5" d="M54.75 8.25092H9.25C7.86929 8.25092 6.75 9.3702 6.75 10.7509V56.2509C6.75 57.6316 7.86929 58.7509 9.25 58.7509H54.75C56.1307 58.7509 57.25 57.6316 57.25 56.2509V10.7509C57.25 9.3702 56.1307 8.25092 54.75 8.25092Z" stroke="url(#paint5_linear)" stroke-linecap="round" stroke-linejoin="round"/>
<path opacity="0.5" d="M54.7227 7.75092H9.27727C7.60536 7.75092 6.25 9.10627 6.25 10.7782V56.2236C6.25 57.8956 7.60536 59.2509 9.27727 59.2509H54.7227C56.3946 59.2509 57.75 57.8956 57.75 56.2236V10.7782C57.75 9.10627 56.3946 7.75092 54.7227 7.75092Z" stroke="black" stroke-linecap="round" stroke-linejoin="round"/>
<g clip-path="url(#clip0)">
<path d="M49.9991 33.6548C49.9897 33.0537 49.9015 32.4612 49.7373 31.8934C49.5605 31.2823 49.2996 30.6812 48.9601 30.1016C49.1744 28.7753 49.0894 27.4151 48.7064 26.0521C48.4924 25.291 48.1849 24.5467 47.7922 23.8396C47.4276 23.1829 46.9779 22.5384 46.4561 21.9237C45.8687 21.2319 45.1973 20.5868 44.4606 20.0061C43.7765 19.467 43.0134 18.9658 42.1923 18.5164C40.7775 17.7419 39.2534 17.1389 37.6622 16.724C36.1657 16.3338 34.5633 16.0981 32.8995 16.0236C32.5472 16.008 32.1912 16 31.8411 16C30.7293 16 29.6134 16.0807 28.5242 16.24C27.6116 16.3735 26.7179 16.5581 25.8681 16.7891C24.9791 17.0307 24.1091 17.3306 23.2819 17.6807C22.3383 18.0801 21.4524 18.5399 20.6487 19.0476C19.7829 19.5946 18.9802 20.2173 18.2627 20.8983C17.6938 21.4384 17.187 22.0073 16.7566 22.5896C16.2864 23.2257 15.8894 23.901 15.577 24.5969C14.6351 26.6947 14.4259 28.8065 14.9527 30.8839C14.7019 31.2764 14.5021 31.662 14.3467 32.0516C14.2305 32.343 14.0717 32.7921 14.0334 33.3237C13.9712 34.1855 14.0083 34.7038 14.0417 35.0188C14.107 35.6371 14.2413 36.1806 14.4522 36.6802C14.6242 37.0877 14.8477 37.4619 15.1197 37.7985C15.1189 38.8329 15.175 39.688 15.2955 40.4866C15.6209 42.6412 16.6289 44.467 18.2915 45.9132C19.0813 46.6001 19.9848 47.1726 21.0538 47.6636C22.1913 48.186 23.4444 48.5868 24.8851 48.8888C26.5864 49.2456 28.3654 49.4448 30.3243 49.498C30.9992 49.5162 31.627 49.5252 32.2436 49.5252C34.0113 49.5252 35.6076 49.4503 37.1239 49.2964C38.4547 49.1612 39.5592 48.9787 40.5995 48.7218C41.913 48.3976 43.0409 47.9611 44.0473 47.3876C45.7973 46.3905 47.0776 44.9641 47.8528 43.1482C48.2671 42.1777 48.5501 41.1487 48.7183 40.0024C48.849 39.1116 48.8965 38.2024 48.8626 37.2364C49.03 37.0594 49.1789 36.8675 49.3085 36.6622C49.555 36.2714 49.7304 35.8316 49.8299 35.3553C49.9508 34.7762 50.0077 34.2041 49.9991 33.6548Z" fill="white" fill-opacity="0.5"/>
<path d="M48.1391 32.3652C47.9627 31.7553 47.6903 31.1897 47.3449 30.6594C47.2519 30.5165 47.2158 30.3868 47.2527 30.2121C47.5162 28.9677 47.4479 27.7334 47.1045 26.5121C46.7338 25.1933 46.0634 24.0374 45.1812 22.9984C44.112 21.7392 42.8201 20.7558 41.3776 19.9663C38.7052 18.503 35.8224 17.8079 32.7952 17.6719C31.4354 17.6109 30.0793 17.6752 28.7292 17.8727C27.0593 18.1168 25.4418 18.5435 23.8869 19.2015C22.2117 19.9106 20.6789 20.8432 19.355 22.1C18.3871 23.0188 17.5832 24.0609 17.0345 25.2834C16.2039 27.1331 16.0161 29.0322 16.6416 30.983C16.6936 31.1453 16.6596 31.2601 16.5641 31.3906C16.2718 31.7902 16.0155 32.2117 15.8314 32.6739C15.7304 32.9273 15.6495 33.1856 15.6299 33.4595C15.5961 33.9284 15.584 34.3978 15.6334 34.8657C15.7227 35.7107 15.99 36.4787 16.6253 37.081C16.6608 37.1146 16.6889 37.1558 16.7205 37.1934C16.7205 37.3934 16.7209 37.5909 16.7205 37.7881C16.7189 38.6159 16.754 39.44 16.8781 40.2615C17.1477 42.0476 17.9738 43.5197 19.3316 44.7007C20.0454 45.3215 20.8465 45.8056 21.7039 46.1993C22.8202 46.7119 23.9895 47.0589 25.1892 47.3105C26.887 47.6665 28.6072 47.8386 30.3377 47.8855C32.5372 47.9452 34.7358 47.9144 36.9283 47.6916C38.0232 47.5804 39.1091 47.42 40.1779 47.1563C41.2369 46.8949 42.2572 46.531 43.2088 45.9886C44.6305 45.1784 45.6785 44.0325 46.3216 42.5259C46.6969 41.647 46.9349 40.7286 47.0735 39.784C47.2156 38.8149 47.2403 37.8413 47.1794 36.8647C47.1726 36.755 47.1785 36.6445 47.1785 36.535C47.2328 36.4901 47.2784 36.4485 47.3278 36.4126C47.8002 36.0699 48.084 35.6063 48.2023 35.04C48.3892 34.1439 48.3954 33.2517 48.1391 32.3652ZM19.0771 26.7647C19.363 25.9781 19.7952 25.2769 20.3312 24.6373C21.0771 23.7475 21.9699 23.0308 22.9553 22.4254C24.3247 21.584 25.8062 21.0139 27.3627 20.6314C29.1392 20.1951 30.9444 20.0362 32.7685 20.1245C35.0991 20.2373 37.342 20.7323 39.4584 21.7383C40.108 22.047 40.7141 22.4281 41.261 22.8975C41.6979 23.2724 42.0482 23.7149 42.2861 24.2423C42.5916 24.9193 42.6395 25.6292 42.5092 26.3469C42.227 27.9026 41.4212 29.1349 40.1492 30.0685C39.5483 30.5094 38.894 30.8546 38.211 31.1469C37.8252 31.3119 37.4329 31.4621 37.0455 31.6238C36.9091 31.6807 36.7751 31.7456 36.6465 31.8184C36.5731 31.8601 36.5048 31.9179 36.4489 31.9815C36.3684 32.073 36.3818 32.2115 36.4881 32.2714C36.6039 32.3366 36.7327 32.3876 36.8622 32.417C37.301 32.5167 37.7483 32.4981 38.1914 32.4649C39.4145 32.3738 40.6161 32.158 41.7927 31.809C42.7349 31.5296 43.6216 31.1329 44.4164 30.5465C44.4553 30.5179 44.5004 30.4971 44.5438 30.4749C44.5508 30.4714 44.564 30.48 44.5995 30.4904C44.5734 30.5569 44.5526 30.6237 44.5224 30.6857C44.2247 31.2935 43.806 31.8077 43.3005 32.2537C42.7031 32.7807 42.0309 33.1926 41.3162 33.5386C40.2095 34.0744 39.0441 34.4367 37.8468 34.6987C36.4807 34.9974 35.0967 35.1628 33.7003 35.2446C32.3158 35.3257 30.933 35.3173 29.5512 35.2193C27.6606 35.0853 25.7974 34.7921 23.9919 34.1929C23.1694 33.9199 22.3749 33.5826 21.6258 33.1445C21.1013 32.8378 20.6114 32.4841 20.1749 32.0596C19.4941 31.3977 19.0084 30.6219 18.8253 29.6807C18.6316 28.6868 18.7321 27.7138 19.0771 26.7647ZM44.96 39.7616C44.8099 40.5292 44.4519 41.2006 43.9489 41.7958C43.4814 42.349 42.9194 42.7886 42.2984 43.1566C41.3774 43.7022 40.383 44.0668 39.353 44.3404C38.2169 44.6421 37.0608 44.8299 35.8917 44.9504C34.3409 45.1101 32.7866 45.1723 31.2287 45.1482C29.9183 45.128 28.6117 45.0452 27.3143 44.8546C25.9546 44.655 24.6213 44.3494 23.3462 43.8229C22.5086 43.4769 21.7191 43.0469 21.0169 42.4687C20.0986 41.7128 19.4192 40.7914 19.0806 39.6388C18.9511 39.1982 18.8749 38.7491 18.8832 38.2883C18.8844 38.2173 18.8971 38.1463 18.9058 38.0638C19.0216 38.0638 19.1185 38.054 19.2129 38.0656C19.6564 38.1198 20.1013 38.1239 20.5453 38.0917C21.6998 38.0077 22.7447 38.3082 23.6965 38.9584C24.2696 39.3499 24.7953 39.7987 25.2976 40.275C25.6918 40.6491 26.0763 41.0333 26.4631 41.4153C26.9147 41.8609 27.4145 42.2393 27.9852 42.5208C28.6266 42.8371 29.3021 43.0153 30.0202 43.0024C30.6851 42.9904 31.3125 42.8193 31.9091 42.5288C32.3896 42.2949 32.8253 41.9936 33.2344 41.6519C33.3765 41.5334 33.5186 41.4137 33.6682 41.3048C34.4075 40.7657 35.2345 40.6081 36.1284 40.7474C36.6304 40.8257 37.1116 40.9831 37.5979 41.123C38.0601 41.2561 38.5229 41.3929 38.9935 41.4894C39.4928 41.5919 39.9989 41.5893 40.5 41.4606C41.013 41.3289 41.3892 41.0328 41.5903 40.5433C41.7071 40.2593 41.7862 39.9596 41.878 39.6657C41.9552 39.4184 42.0164 39.166 42.1016 38.9217C42.3261 38.2777 42.7704 37.8691 43.4377 37.7098C43.9752 37.5814 44.5129 37.4545 45.0727 37.3216C45.0905 37.3981 45.1147 37.4547 45.1154 37.5114C45.126 38.266 45.1052 39.0196 44.96 39.7616Z" fill="white" fill-opacity="0.15"/>
</g>
<g clip-path="url(#clip1)">
<path d="M49.9991 33.6548C49.9897 33.0537 49.9015 32.4612 49.7373 31.8934C49.5605 31.2823 49.2996 30.6812 48.9601 30.1016C49.1744 28.7753 49.0894 27.4151 48.7064 26.0521C48.4924 25.291 48.1849 24.5467 47.7922 23.8396C47.4276 23.1829 46.9779 22.5384 46.4561 21.9237C45.8687 21.2319 45.1973 20.5868 44.4606 20.0061C43.7765 19.467 43.0134 18.9658 42.1923 18.5164C40.7775 17.7419 39.2534 17.1389 37.6622 16.724C36.1657 16.3338 34.5633 16.0981 32.8995 16.0236C32.5472 16.008 32.1912 16 31.8411 16C30.7293 16 29.6134 16.0807 28.5242 16.24C27.6116 16.3735 26.7179 16.5581 25.8681 16.7891C24.9791 17.0307 24.1091 17.3306 23.2819 17.6807C22.3383 18.0801 21.4524 18.5399 20.6487 19.0476C19.7829 19.5946 18.9802 20.2173 18.2627 20.8983C17.6938 21.4384 17.187 22.0073 16.7566 22.5896C16.2864 23.2257 15.8894 23.901 15.577 24.5969C14.6351 26.6947 14.4259 28.8065 14.9527 30.8839C14.7019 31.2764 14.5021 31.662 14.3467 32.0516C14.2305 32.343 14.0717 32.7921 14.0334 33.3237C13.9712 34.1855 14.0083 34.7038 14.0417 35.0188C14.107 35.6371 14.2413 36.1806 14.4522 36.6802C14.6242 37.0877 14.8477 37.4619 15.1197 37.7985C15.1189 38.8329 15.175 39.688 15.2955 40.4866C15.6209 42.6412 16.6289 44.467 18.2915 45.9132C19.0813 46.6001 19.9848 47.1726 21.0538 47.6636C22.1913 48.186 23.4444 48.5868 24.8851 48.8888C26.5864 49.2456 28.3654 49.4448 30.3243 49.498C30.9992 49.5162 31.627 49.5252 32.2436 49.5252C34.0113 49.5252 35.6076 49.4503 37.1239 49.2964C38.4547 49.1612 39.5592 48.9787 40.5995 48.7218C41.913 48.3976 43.0409 47.9611 44.0473 47.3876C45.7973 46.3905 47.0776 44.9641 47.8528 43.1482C48.2671 42.1777 48.5501 41.1487 48.7183 40.0024C48.849 39.1116 48.8965 38.2024 48.8626 37.2364C49.03 37.0594 49.1789 36.8675 49.3085 36.6622C49.555 36.2714 49.7304 35.8316 49.8299 35.3553C49.9508 34.7762 50.0077 34.2041 49.9991 33.6548Z" fill="white" fill-opacity="0.5" stroke="white" stroke-opacity="0.3"/>
<path d="M48.1391 32.3652C47.9627 31.7553 47.6903 31.1897 47.3449 30.6594C47.2519 30.5165 47.2158 30.3868 47.2527 30.2121C47.5162 28.9677 47.4479 27.7334 47.1045 26.5121C46.7338 25.1933 46.0634 24.0374 45.1812 22.9984C44.112 21.7392 42.8201 20.7558 41.3776 19.9663C38.7052 18.503 35.8224 17.8079 32.7952 17.6719C31.4354 17.6109 30.0793 17.6752 28.7292 17.8727C27.0593 18.1168 25.4418 18.5435 23.8869 19.2015C22.2117 19.9106 20.6789 20.8432 19.355 22.1C18.3871 23.0188 17.5832 24.0609 17.0345 25.2834C16.2039 27.1331 16.0161 29.0322 16.6416 30.983C16.6936 31.1453 16.6596 31.2601 16.5641 31.3906C16.2718 31.7902 16.0155 32.2117 15.8314 32.6739C15.7304 32.9273 15.6495 33.1856 15.6299 33.4595C15.5961 33.9284 15.584 34.3978 15.6334 34.8657C15.7227 35.7107 15.99 36.4787 16.6253 37.081C16.6608 37.1146 16.6889 37.1558 16.7205 37.1934C16.7205 37.3934 16.7209 37.5909 16.7205 37.7881C16.7189 38.6159 16.754 39.44 16.8781 40.2615C17.1477 42.0476 17.9738 43.5197 19.3316 44.7007C20.0454 45.3215 20.8465 45.8056 21.7039 46.1993C22.8202 46.7119 23.9895 47.0589 25.1892 47.3105C26.887 47.6665 28.6072 47.8386 30.3377 47.8855C32.5372 47.9452 34.7358 47.9144 36.9283 47.6916C38.0232 47.5804 39.1091 47.42 40.1779 47.1563C41.2369 46.8949 42.2572 46.531 43.2088 45.9886C44.6305 45.1784 45.6785 44.0325 46.3216 42.5259C46.6969 41.647 46.9349 40.7286 47.0735 39.784C47.2156 38.8149 47.2403 37.8413 47.1794 36.8647C47.1726 36.755 47.1785 36.6445 47.1785 36.535C47.2328 36.4901 47.2784 36.4485 47.3278 36.4126C47.8002 36.0699 48.084 35.6063 48.2023 35.04C48.3892 34.1439 48.3954 33.2517 48.1391 32.3652ZM19.0771 26.7647C19.363 25.9781 19.7952 25.2769 20.3312 24.6373C21.0771 23.7475 21.9699 23.0308 22.9553 22.4254C24.3247 21.584 25.8062 21.0139 27.3627 20.6314C29.1392 20.1951 30.9444 20.0362 32.7685 20.1245C35.0991 20.2373 37.342 20.7323 39.4584 21.7383C40.108 22.047 40.7141 22.4281 41.261 22.8975C41.6979 23.2724 42.0482 23.7149 42.2861 24.2423C42.5916 24.9193 42.6395 25.6292 42.5092 26.3469C42.227 27.9026 41.4212 29.1349 40.1492 30.0685C39.5483 30.5094 38.894 30.8546 38.211 31.1469C37.8252 31.3119 37.4329 31.4621 37.0455 31.6238C36.9091 31.6807 36.7751 31.7456 36.6465 31.8184C36.5731 31.8601 36.5048 31.9179 36.4489 31.9815C36.3684 32.073 36.3818 32.2115 36.4881 32.2714C36.6039 32.3366 36.7327 32.3876 36.8622 32.417C37.301 32.5167 37.7483 32.4981 38.1914 32.4649C39.4145 32.3738 40.6161 32.158 41.7927 31.809C42.7349 31.5296 43.6216 31.1329 44.4164 30.5465C44.4553 30.5179 44.5004 30.4971 44.5438 30.4749C44.5508 30.4714 44.564 30.48 44.5995 30.4904C44.5734 30.5569 44.5526 30.6237 44.5224 30.6857C44.2247 31.2935 43.806 31.8077 43.3005 32.2537C42.7031 32.7807 42.0309 33.1926 41.3162 33.5386C40.2095 34.0744 39.0441 34.4367 37.8468 34.6987C36.4807 34.9974 35.0967 35.1628 33.7003 35.2446C32.3158 35.3257 30.933 35.3173 29.5512 35.2193C27.6606 35.0853 25.7974 34.7921 23.9919 34.1929C23.1694 33.9199 22.3749 33.5826 21.6258 33.1445C21.1013 32.8378 20.6114 32.4841 20.1749 32.0596C19.4941 31.3977 19.0084 30.6219 18.8253 29.6807C18.6316 28.6868 18.7321 27.7138 19.0771 26.7647ZM44.96 39.7616C44.8099 40.5292 44.4519 41.2006 43.9489 41.7958C43.4814 42.349 42.9194 42.7886 42.2984 43.1566C41.3774 43.7022 40.383 44.0668 39.353 44.3404C38.2169 44.6421 37.0608 44.8299 35.8917 44.9504C34.3409 45.1101 32.7866 45.1723 31.2287 45.1482C29.9183 45.128 28.6117 45.0452 27.3143 44.8546C25.9546 44.655 24.6213 44.3494 23.3462 43.8229C22.5086 43.4769 21.7191 43.0469 21.0169 42.4687C20.0986 41.7128 19.4192 40.7914 19.0806 39.6388C18.9511 39.1982 18.8749 38.7491 18.8832 38.2883C18.8844 38.2173 18.8971 38.1463 18.9058 38.0638C19.0216 38.0638 19.1185 38.054 19.2129 38.0656C19.6564 38.1198 20.1013 38.1239 20.5453 38.0917C21.6998 38.0077 22.7447 38.3082 23.6965 38.9584C24.2696 39.3499 24.7953 39.7987 25.2976 40.275C25.6918 40.6491 26.0763 41.0333 26.4631 41.4153C26.9147 41.8609 27.4145 42.2393 27.9852 42.5208C28.6266 42.8371 29.3021 43.0153 30.0202 43.0024C30.6851 42.9904 31.3125 42.8193 31.9091 42.5288C32.3896 42.2949 32.8253 41.9936 33.2344 41.6519C33.3765 41.5334 33.5186 41.4137 33.6682 41.3048C34.4075 40.7657 35.2345 40.6081 36.1284 40.7474C36.6304 40.8257 37.1116 40.9831 37.5979 41.123C38.0601 41.2561 38.5229 41.3929 38.9935 41.4894C39.4928 41.5919 39.9989 41.5893 40.5 41.4606C41.013 41.3289 41.3892 41.0328 41.5903 40.5433C41.7071 40.2593 41.7862 39.9596 41.878 39.6657C41.9552 39.4184 42.0164 39.166 42.1016 38.9217C42.3261 38.2777 42.7704 37.8691 43.4377 37.7098C43.9752 37.5814 44.5129 37.4545 45.0727 37.3216C45.0905 37.3981 45.1147 37.4547 45.1154 37.5114C45.126 38.266 45.1052 39.0196 44.96 39.7616Z" fill="white" fill-opacity="0.15"/>
</g>
<g clip-path="url(#clip2)">
<path d="M49.9991 32.6548C49.9897 32.0537 49.9015 31.4612 49.7373 30.8934C49.5605 30.2823 49.2996 29.6812 48.9601 29.1016C49.1744 27.7753 49.0894 26.4151 48.7064 25.0521C48.4924 24.291 48.1849 23.5467 47.7922 22.8396C47.4276 22.1829 46.9779 21.5384 46.4561 20.9237C45.8687 20.2319 45.1973 19.5868 44.4606 19.0061C43.7765 18.467 43.0134 17.9658 42.1923 17.5164C40.7775 16.7419 39.2534 16.1389 37.6622 15.724C36.1657 15.3338 34.5633 15.0981 32.8995 15.0236C32.5472 15.008 32.1912 15 31.8411 15C30.7293 15 29.6134 15.0807 28.5242 15.24C27.6116 15.3735 26.7179 15.5581 25.8681 15.7891C24.9791 16.0307 24.1091 16.3306 23.2819 16.6807C22.3383 17.0801 21.4524 17.5399 20.6487 18.0476C19.7829 18.5946 18.9802 19.2173 18.2627 19.8983C17.6938 20.4384 17.187 21.0073 16.7566 21.5896C16.2864 22.2257 15.8894 22.901 15.577 23.5969C14.6351 25.6947 14.4259 27.8065 14.9527 29.8839C14.7019 30.2764 14.5021 30.662 14.3467 31.0516C14.2305 31.343 14.0717 31.7921 14.0334 32.3237C13.9712 33.1855 14.0083 33.7038 14.0417 34.0188C14.107 34.6371 14.2413 35.1806 14.4522 35.6802C14.6242 36.0877 14.8477 36.4619 15.1197 36.7985C15.1189 37.8329 15.175 38.688 15.2955 39.4866C15.6209 41.6412 16.6289 43.467 18.2915 44.9132C19.0813 45.6001 19.9848 46.1726 21.0538 46.6636C22.1913 47.186 23.4444 47.5868 24.8851 47.8888C26.5864 48.2456 28.3654 48.4448 30.3243 48.498C30.9992 48.5162 31.627 48.5252 32.2436 48.5252C34.0113 48.5252 35.6076 48.4503 37.1239 48.2964C38.4547 48.1612 39.5592 47.9787 40.5995 47.7218C41.913 47.3976 43.0409 46.9611 44.0473 46.3876C45.7973 45.3905 47.0776 43.9641 47.8528 42.1482C48.2671 41.1777 48.5501 40.1487 48.7183 39.0024C48.849 38.1116 48.8965 37.2024 48.8626 36.2364C49.03 36.0594 49.1789 35.8675 49.3085 35.6622C49.555 35.2714 49.7304 34.8316 49.8299 34.3553C49.9508 33.7762 50.0077 33.2041 49.9991 32.6548Z" fill="white"/>
<path d="M48.1391 31.3652C47.9627 30.7553 47.6903 30.1897 47.3449 29.6594C47.2519 29.5165 47.2158 29.3868 47.2527 29.2121C47.5162 27.9677 47.4479 26.7334 47.1045 25.5121C46.7338 24.1933 46.0634 23.0374 45.1812 21.9984C44.112 20.7392 42.8201 19.7558 41.3776 18.9663C38.7052 17.503 35.8224 16.8079 32.7952 16.6719C31.4354 16.6109 30.0793 16.6752 28.7292 16.8727C27.0593 17.1168 25.4418 17.5435 23.8869 18.2015C22.2117 18.9106 20.6789 19.8432 19.355 21.1C18.3871 22.0188 17.5832 23.0609 17.0345 24.2834C16.2039 26.1331 16.0161 28.0322 16.6416 29.983C16.6936 30.1453 16.6596 30.2601 16.5641 30.3906C16.2718 30.7902 16.0155 31.2117 15.8314 31.6739C15.7304 31.9273 15.6495 32.1856 15.6299 32.4595C15.5961 32.9284 15.584 33.3978 15.6334 33.8657C15.7227 34.7107 15.99 35.4787 16.6253 36.081C16.6608 36.1146 16.6889 36.1558 16.7205 36.1934C16.7205 36.3934 16.7209 36.5909 16.7205 36.7881C16.7189 37.6159 16.754 38.44 16.8781 39.2615C17.1477 41.0476 17.9738 42.5197 19.3316 43.7007C20.0454 44.3215 20.8465 44.8056 21.7039 45.1993C22.8202 45.7119 23.9895 46.0589 25.1892 46.3105C26.887 46.6665 28.6072 46.8386 30.3377 46.8855C32.5372 46.9452 34.7358 46.9144 36.9283 46.6916C38.0232 46.5804 39.1091 46.42 40.1779 46.1563C41.2369 45.8949 42.2572 45.531 43.2088 44.9886C44.6305 44.1784 45.6785 43.0325 46.3216 41.5259C46.6969 40.647 46.9349 39.7286 47.0735 38.784C47.2156 37.8149 47.2403 36.8413 47.1794 35.8647C47.1726 35.755 47.1785 35.6445 47.1785 35.535C47.2328 35.4901 47.2784 35.4485 47.3278 35.4126C47.8002 35.0699 48.084 34.6063 48.2023 34.04C48.3892 33.1439 48.3954 32.2517 48.1391 31.3652ZM19.0771 25.7647C19.363 24.9781 19.7952 24.2769 20.3312 23.6373C21.0771 22.7475 21.9699 22.0308 22.9553 21.4254C24.3247 20.584 25.8062 20.0139 27.3627 19.6314C29.1392 19.1951 30.9444 19.0362 32.7685 19.1245C35.0991 19.2373 37.342 19.7323 39.4584 20.7383C40.108 21.047 40.7141 21.4281 41.261 21.8975C41.6979 22.2724 42.0482 22.7149 42.2861 23.2423C42.5916 23.9193 42.6395 24.6292 42.5092 25.3469C42.227 26.9026 41.4212 28.1349 40.1492 29.0685C39.5483 29.5094 38.894 29.8546 38.211 30.1469C37.8252 30.3119 37.4329 30.4621 37.0455 30.6238C36.9091 30.6807 36.7751 30.7456 36.6465 30.8184C36.5731 30.8601 36.5048 30.9179 36.4489 30.9815C36.3684 31.073 36.3818 31.2115 36.4881 31.2714C36.6039 31.3366 36.7327 31.3876 36.8622 31.417C37.301 31.5167 37.7483 31.4981 38.1914 31.4649C39.4145 31.3738 40.6161 31.158 41.7927 30.809C42.7349 30.5296 43.6216 30.1329 44.4164 29.5465C44.4553 29.5179 44.5004 29.4971 44.5438 29.4749C44.5508 29.4714 44.564 29.48 44.5995 29.4904C44.5734 29.5569 44.5526 29.6237 44.5224 29.6857C44.2247 30.2935 43.806 30.8077 43.3005 31.2537C42.7031 31.7807 42.0309 32.1926 41.3162 32.5386C40.2095 33.0744 39.0441 33.4367 37.8468 33.6987C36.4807 33.9974 35.0967 34.1628 33.7003 34.2446C32.3158 34.3257 30.933 34.3173 29.5512 34.2193C27.6606 34.0853 25.7974 33.7921 23.9919 33.1929C23.1694 32.9199 22.3749 32.5826 21.6258 32.1445C21.1013 31.8378 20.6114 31.4841 20.1749 31.0596C19.4941 30.3977 19.0084 29.6219 18.8253 28.6807C18.6316 27.6868 18.7321 26.7138 19.0771 25.7647ZM44.96 38.7616C44.8099 39.5292 44.4519 40.2006 43.9489 40.7958C43.4814 41.349 42.9194 41.7886 42.2984 42.1566C41.3774 42.7022 40.383 43.0668 39.353 43.3404C38.2169 43.6421 37.0608 43.8299 35.8917 43.9504C34.3409 44.1101 32.7866 44.1723 31.2287 44.1482C29.9183 44.128 28.6117 44.0452 27.3143 43.8546C25.9546 43.655 24.6213 43.3494 23.3462 42.8229C22.5086 42.4769 21.7191 42.0469 21.0169 41.4687C20.0986 40.7128 19.4192 39.7914 19.0806 38.6388C18.9511 38.1982 18.8749 37.7491 18.8832 37.2883C18.8844 37.2173 18.8971 37.1463 18.9058 37.0638C19.0216 37.0638 19.1185 37.054 19.2129 37.0656C19.6564 37.1198 20.1013 37.1239 20.5453 37.0917C21.6998 37.0077 22.7447 37.3082 23.6965 37.9584C24.2696 38.3499 24.7953 38.7987 25.2976 39.275C25.6918 39.6491 26.0763 40.0333 26.4631 40.4153C26.9147 40.8609 27.4145 41.2393 27.9852 41.5208C28.6266 41.8371 29.3021 42.0153 30.0202 42.0024C30.6851 41.9904 31.3125 41.8193 31.9091 41.5288C32.3896 41.2949 32.8253 40.9936 33.2344 40.6519C33.3765 40.5334 33.5186 40.4137 33.6682 40.3048C34.4075 39.7657 35.2345 39.6081 36.1284 39.7474C36.6304 39.8257 37.1116 39.9831 37.5979 40.123C38.0601 40.2561 38.5229 40.3929 38.9935 40.4894C39.4928 40.5919 39.9989 40.5893 40.5 40.4606C41.013 40.3289 41.3892 40.0328 41.5903 39.5433C41.7071 39.2593 41.7862 38.9596 41.878 38.6657C41.9552 38.4184 42.0164 38.166 42.1016 37.9217C42.3261 37.2777 42.7704 36.8691 43.4377 36.7098C43.9752 36.5814 44.5129 36.4545 45.0727 36.3216C45.0905 36.3981 45.1147 36.4547 45.1154 36.5114C45.126 37.266 45.1052 38.0196 44.96 38.7616Z" fill="black"/>
</g>
<defs>
<radialGradient id="paint0_radial" cx="0" cy="0" r="1" gradientUnits="userSpaceOnUse" gradientTransform="translate(32 59.0009) scale(27.5 3)">
<stop/>
<stop offset="1" stop-opacity="0"/>
</radialGradient>
<radialGradient id="paint1_radial" cx="0" cy="0" r="1" gradientUnits="userSpaceOnUse" gradientTransform="translate(51.8848 59.2509) scale(7.11871 1.25)">
<stop stop-color="#181818"/>
<stop offset="1" stop-color="#181818" stop-opacity="0"/>
</radialGradient>
<radialGradient id="paint2_radial" cx="0" cy="0" r="1" gradientUnits="userSpaceOnUse" gradientTransform="translate(12.1152 59.2509) rotate(180) scale(7.11871 1.25)">
<stop stop-color="#181818"/>
<stop offset="1" stop-color="#181818" stop-opacity="0"/>
</radialGradient>
<linearGradient id="paint3_linear" x1="33.5036" y1="60.5108" x2="33.5036" y2="58.0007" gradientUnits="userSpaceOnUse">
<stop stop-color="#181818" stop-opacity="0"/>
<stop offset="0.5" stop-color="#181818"/>
<stop offset="1" stop-color="#181818" stop-opacity="0"/>
</linearGradient>
<linearGradient id="paint4_linear" x1="31.3771" y1="8.52102" x2="31.3771" y2="58.8984" gradientUnits="userSpaceOnUse">
<stop stop-color="#1A1A1A"/>
<stop offset="1"/>
</linearGradient>
<linearGradient id="paint5_linear" x1="32" y1="7.56848" x2="32" y2="59.4334" gradientUnits="userSpaceOnUse">
<stop stop-color="white"/>
<stop offset="0.0631645" stop-color="white" stop-opacity="0.235294"/>
<stop offset="0.950563" stop-color="white" stop-opacity="0.156863"/>
<stop offset="1" stop-color="white" stop-opacity="0.392157"/>
</linearGradient>
<clipPath id="clip0">
<rect width="36" height="33.5252" fill="white" transform="translate(14 16)"/>
</clipPath>
<clipPath id="clip1">
<rect width="36" height="33.5252" fill="white" transform="translate(14 16)"/>
</clipPath>
<clipPath id="clip2">
<rect width="36" height="33.5252" fill="white" transform="translate(14 15)"/>
</clipPath>
</defs>
</svg>
