<svg width="64" height="64" viewBox="0 0 64 64" fill="none" xmlns="http://www.w3.org/2000/svg">
<path d="M63.612 30.7682C63.2671 29.5758 62.7346 28.47 62.0593 27.4334C61.8774 27.1541 61.8069 26.9005 61.879 26.559C62.3942 24.1261 62.2607 21.7133 61.5893 19.3257C60.8646 16.7474 59.554 14.4876 57.8294 12.4565C55.7391 9.99487 53.2135 8.07231 50.3935 6.52881C45.1691 3.66818 39.5334 2.30922 33.6153 2.04334C30.9568 1.92402 28.3057 2.04986 25.6664 2.43583C22.4018 2.91312 19.2396 3.74721 16.1998 5.03365C12.9248 6.41985 9.92835 8.24304 7.34012 10.7001C5.44787 12.4964 3.87637 14.5337 2.80363 16.9235C1.17994 20.5396 0.812773 24.2524 2.03552 28.066C2.1372 28.3833 2.07082 28.6078 1.88398 28.8629C1.31269 29.6441 0.811622 30.4682 0.451741 31.3717C0.254151 31.867 0.0960801 32.372 0.0577132 32.9076C-0.00827774 33.8241 -0.0320653 34.7419 0.0646191 35.6565C0.239188 37.3086 0.761745 38.8099 2.00368 39.9874C2.07312 40.053 2.12799 40.1336 2.18976 40.2072C2.18976 40.5982 2.19053 40.9842 2.18976 41.3697C2.18669 42.9881 2.25537 44.5991 2.49784 46.2051C3.02501 49.6969 4.63987 52.5748 7.29447 54.8837C8.68987 56.0972 10.256 57.0438 11.9323 57.8134C14.1146 58.8155 16.4005 59.4939 18.7458 59.9857C22.0649 60.6817 25.4278 61.0182 28.811 61.1099C33.1108 61.2265 37.409 61.1663 41.6953 60.7308C43.8358 60.5133 45.9587 60.1998 48.0481 59.6842C50.1184 59.1731 52.1131 58.4618 53.9735 57.4013C56.7528 55.8175 58.8016 53.5773 60.0589 50.6319C60.7924 48.9138 61.2578 47.1182 61.5287 45.2717C61.8065 43.3771 61.8548 41.4737 61.7359 39.5646C61.7224 39.3501 61.734 39.1341 61.734 38.92C61.8402 38.8322 61.9292 38.7508 62.0259 38.6806C62.9494 38.0107 63.5042 37.1045 63.7356 35.9972C64.1008 34.2454 64.1131 32.5012 63.612 30.7682ZM6.79685 19.8195C7.35586 18.2817 8.20069 16.9109 9.24849 15.6605C10.7068 13.921 12.4521 12.5198 14.3785 11.3362C17.0558 9.69139 19.9521 8.57683 22.9949 7.82906C26.4679 6.97617 29.9969 6.6654 33.5631 6.83805C38.1192 7.05866 42.5041 8.02627 46.6416 9.99295C47.9115 10.5965 49.0963 11.3415 50.1656 12.2593C51.0196 12.9921 51.7045 13.8573 52.1695 14.8882C52.7669 16.2118 52.8605 17.5996 52.6057 19.0026C52.054 22.044 50.4787 24.453 47.9921 26.2781C46.8173 27.1402 45.5382 27.8151 44.203 28.3864C43.4487 28.7091 42.6817 29.0026 41.9244 29.3187C41.6577 29.43 41.3957 29.557 41.1444 29.6993C41.0009 29.7807 40.8674 29.8938 40.758 30.0181C40.6007 30.1969 40.6268 30.4678 40.8348 30.5848C41.0611 30.7122 41.3128 30.812 41.566 30.8695C42.4239 31.0644 43.2983 31.028 44.1646 30.9631C46.5556 30.7851 48.9049 30.3631 51.2049 29.6809C53.0469 29.1346 54.7803 28.3592 56.3342 27.2128C56.4102 27.1567 56.4984 27.1161 56.5832 27.0727C56.597 27.0658 56.6227 27.0827 56.6922 27.103C56.6411 27.2331 56.6005 27.3635 56.5414 27.4848C55.9594 28.673 55.141 29.6782 54.1527 30.5503C52.9848 31.5804 51.6707 32.3858 50.2734 33.0622C48.1099 34.1096 45.8317 34.8178 43.4909 35.33C40.8202 35.914 38.1146 36.2374 35.3848 36.3974C32.678 36.5559 29.9746 36.5394 27.2732 36.3479C23.5774 36.0859 19.9348 35.5127 16.4051 34.3413C14.7971 33.8076 13.244 33.1481 11.7796 32.2918C10.754 31.6921 9.79637 31.0007 8.94309 30.1708C7.61215 28.8767 6.66257 27.3601 6.3046 25.52C5.92592 23.5771 6.12236 21.6749 6.79685 19.8195ZM57.397 45.2279C57.1035 46.7284 56.4037 48.041 55.4203 49.2046C54.5064 50.2862 53.4076 51.1456 52.1937 51.865C50.3931 52.9316 48.4491 53.6444 46.4356 54.1793C44.2145 54.769 41.9543 55.1362 39.6688 55.3717C36.637 55.684 33.5984 55.8057 30.5528 55.7585C27.9911 55.7189 25.4366 55.557 22.9002 55.1845C20.2421 54.7943 17.6355 54.1969 15.1428 53.1676C13.5053 52.4911 11.9618 51.6505 10.589 50.5202C8.79385 49.0423 7.46558 47.241 6.80376 44.9877C6.55054 44.1264 6.40167 43.2486 6.41779 42.3477C6.42009 42.2088 6.44503 42.0699 6.46191 41.9088C6.68827 41.9088 6.8778 41.8896 7.06235 41.9123C7.92944 42.0181 8.79922 42.0262 9.66707 41.9633C11.9242 41.7991 13.9668 42.3865 15.8276 43.6576C16.948 44.423 17.9758 45.3004 18.9576 46.2316C19.7284 46.9629 20.48 47.7141 21.2362 48.4607C22.119 49.332 23.0962 50.0717 24.2119 50.6219C25.4658 51.2404 26.7864 51.5888 28.1902 51.5634C29.4901 51.54 30.7167 51.2055 31.883 50.6376C32.8222 50.1803 33.674 49.5914 34.4739 48.9234C34.7517 48.6917 35.0295 48.4576 35.3218 48.2447C36.7671 47.1908 38.3839 46.8827 40.1315 47.1551C41.1129 47.3082 42.0537 47.6159 43.0044 47.8894C43.9079 48.1496 44.8126 48.417 45.7327 48.6057C46.7087 48.806 47.6982 48.801 48.6777 48.5493C49.6806 48.2919 50.4161 47.7129 50.8094 46.7561C51.0377 46.2009 51.1923 45.615 51.3718 45.0403C51.5226 44.5569 51.6423 44.0635 51.8088 43.5858C52.2478 42.327 53.1164 41.5282 54.4209 41.2167C55.4717 40.9657 56.523 40.7175 57.6172 40.4578C57.6521 40.6074 57.6993 40.7179 57.7008 40.8288C57.7215 42.304 57.6809 43.7773 57.397 45.2279Z" fill="#ABACAE"/>
</svg>
