<svg width="64" height="64" viewBox="0 0 64 64" fill="none" xmlns="http://www.w3.org/2000/svg">
<path opacity="0.2" d="M59.5 59.0009C59.4984 59.7965 56.6004 60.5593 51.4434 61.1218C46.2863 61.6843 39.2924 62.0003 32 62.0003C24.7076 62.0003 17.7137 61.6843 12.5566 61.1218C7.39955 60.5593 4.50156 59.7965 4.5 59.0009C4.49923 58.6069 5.20997 58.2167 6.59163 57.8527C7.97329 57.4886 9.9988 57.1578 12.5525 56.8792C15.1062 56.6005 18.138 56.3795 21.4749 56.2287C24.8117 56.0779 28.3882 56.0003 32 56.0003C35.6118 56.0003 39.1883 56.0779 42.5252 56.2287C45.862 56.3795 48.8938 56.6005 51.4475 56.8792C54.0012 57.1578 56.0267 57.4886 57.4084 57.8527C58.79 58.2167 59.5008 58.6069 59.5 59.0009Z" fill="url(#paint0_radial)"/>
<g opacity="0.4">
<path opacity="0.4" d="M59 58.0009H51.8947V60.5009H59V58.0009Z" fill="url(#paint1_radial)"/>
<path opacity="0.4" d="M5 60.5009H12.1053V58.0009H5V60.5009Z" fill="url(#paint2_radial)"/>
<path opacity="0.4" d="M51.8947 58.0009H12.1053V60.5009H51.8947V58.0009Z" fill="url(#paint3_linear)"/>
</g>
<path d="M54.7227 7.75092H9.27727C7.60536 7.75092 6.25 9.10627 6.25 10.7782V56.2236C6.25 57.8956 7.60536 59.2509 9.27727 59.2509H54.7227C56.3946 59.2509 57.75 57.8956 57.75 56.2236V10.7782C57.75 9.10627 56.3946 7.75092 54.7227 7.75092Z" fill="url(#paint4_linear)"/>
<path opacity="0.5" d="M54.75 8.25092H9.25C7.86929 8.25092 6.75 9.3702 6.75 10.7509V56.2509C6.75 57.6316 7.86929 58.7509 9.25 58.7509H54.75C56.1307 58.7509 57.25 57.6316 57.25 56.2509V10.7509C57.25 9.3702 56.1307 8.25092 54.75 8.25092Z" stroke="url(#paint5_linear)" stroke-linecap="round" stroke-linejoin="round"/>
<path opacity="0.8" d="M54.7227 7.75092H9.27727C7.60536 7.75092 6.25 9.10627 6.25 10.7782V56.2236C6.25 57.8956 7.60536 59.2509 9.27727 59.2509H54.7227C56.3946 59.2509 57.75 57.8956 57.75 56.2236V10.7782C57.75 9.10627 56.3946 7.75092 54.7227 7.75092Z" stroke="#005B8C" stroke-linecap="round" stroke-linejoin="round"/>
<path d="M32.0358 24C27.0358 24 22.8359 27.424 21.5531 32.0311C20.4331 29.5672 17.9683 27.8212 15.1043 27.8212C11.2064 27.822 8 31.0275 8 34.9263C7.9992 38.8263 11.2052 42.0319 15.1039 42.0326C17.9687 42.0319 20.4319 40.2847 21.5519 37.8207C22.8343 42.4278 27.035 45.8526 32.0366 45.8526C37.0102 45.8534 41.1885 42.4658 42.4977 37.8983C43.6357 40.3167 46.0629 42.0319 48.8937 42.0322C52.7936 42.0322 56.0004 38.8259 56 34.9255C56 31.0255 52.794 27.82 48.8945 27.8208C46.0633 27.8216 43.6345 29.5368 42.4969 31.9551C41.1873 27.3872 37.0102 23.9992 32.037 24H32.0358ZM32.0358 28.1708C32.9241 28.1665 33.8045 28.3384 34.626 28.6763C35.4475 29.0143 36.194 29.5117 36.8221 30.1398C37.4503 30.7679 37.9478 31.5143 38.2859 32.3358C38.6239 33.1573 38.7959 34.0376 38.7917 34.9259C38.7917 38.6819 35.7918 41.6827 32.0358 41.6819C31.1475 41.6859 30.2673 41.5139 29.4459 41.1758C28.6245 40.8376 27.8782 40.3401 27.2502 39.712C26.6222 39.0838 26.1249 38.3374 25.7869 37.5159C25.449 36.6945 25.2772 35.8142 25.2815 34.9259C25.2815 31.1699 28.2814 28.1712 32.0362 28.1708H32.0358ZM15.1039 31.9915C16.7495 31.9915 18.0379 33.2803 18.0383 34.9255C18.0383 36.5711 16.7503 37.8615 15.1043 37.8615C13.4592 37.8615 12.1704 36.5711 12.1708 34.9255C12.1708 33.2803 13.4596 31.9915 15.1047 31.9915H15.1039ZM48.8937 31.9915C50.5392 31.9915 51.8288 33.2795 51.8288 34.9255C51.8288 36.5715 50.5396 37.8615 48.8937 37.8615C47.2481 37.8615 45.9593 36.5711 45.9597 34.9255C45.9597 33.2803 47.2485 31.9915 48.8937 31.9915Z" fill="black" fill-opacity="0.15"/>
<path d="M32.0358 24C27.0358 24 22.8359 27.424 21.5531 32.0311C20.4331 29.5672 17.9683 27.8212 15.1043 27.8212C11.2064 27.822 8 31.0275 8 34.9263C7.9992 38.8263 11.2052 42.0319 15.1039 42.0326C17.9687 42.0319 20.4319 40.2847 21.5519 37.8207C22.8343 42.4278 27.035 45.8526 32.0366 45.8526C37.0102 45.8534 41.1885 42.4658 42.4977 37.8983C43.6357 40.3167 46.0629 42.0319 48.8937 42.0322C52.7936 42.0322 56.0004 38.8259 56 34.9255C56 31.0255 52.794 27.82 48.8945 27.8208C46.0633 27.8216 43.6345 29.5368 42.4969 31.9551C41.1873 27.3872 37.0102 23.9992 32.037 24H32.0358ZM32.0358 28.1708C32.9241 28.1665 33.8045 28.3384 34.626 28.6763C35.4475 29.0143 36.194 29.5117 36.8221 30.1398C37.4503 30.7679 37.9478 31.5143 38.2859 32.3358C38.6239 33.1573 38.7959 34.0376 38.7917 34.9259C38.7917 38.6819 35.7918 41.6827 32.0358 41.6819C31.1475 41.6859 30.2673 41.5139 29.4459 41.1758C28.6245 40.8376 27.8782 40.3401 27.2502 39.712C26.6222 39.0838 26.1249 38.3374 25.7869 37.5159C25.449 36.6945 25.2772 35.8142 25.2815 34.9259C25.2815 31.1699 28.2814 28.1712 32.0362 28.1708H32.0358ZM15.1039 31.9915C16.7495 31.9915 18.0379 33.2803 18.0383 34.9255C18.0383 36.5711 16.7503 37.8615 15.1043 37.8615C13.4592 37.8615 12.1704 36.5711 12.1708 34.9255C12.1708 33.2803 13.4596 31.9915 15.1047 31.9915H15.1039ZM48.8937 31.9915C50.5392 31.9915 51.8288 33.2795 51.8288 34.9255C51.8288 36.5715 50.5396 37.8615 48.8937 37.8615C47.2481 37.8615 45.9593 36.5711 45.9597 34.9255C45.9597 33.2803 47.2485 31.9915 48.8937 31.9915Z" fill="black" fill-opacity="0.15" stroke="black" stroke-opacity="0.07"/>
<path d="M32.0358 23C27.0358 23 22.8359 26.424 21.5531 31.0311C20.4331 28.5672 17.9683 26.8212 15.1043 26.8212C11.2064 26.822 8 30.0275 8 33.9263C7.9992 37.8263 11.2052 41.0319 15.1039 41.0326C17.9687 41.0319 20.4319 39.2847 21.5519 36.8207C22.8343 41.4278 27.035 44.8526 32.0366 44.8526C37.0102 44.8534 41.1885 41.4658 42.4977 36.8983C43.6357 39.3167 46.0629 41.0318 48.8937 41.0322C52.7936 41.0322 56.0004 37.8259 56 33.9255C56 30.0255 52.794 26.82 48.8945 26.8208C46.0633 26.8216 43.6345 28.5368 42.4969 30.9551C41.1873 26.3872 37.0102 22.9992 32.037 23H32.0358ZM32.0358 27.1708C32.9241 27.1665 33.8045 27.3384 34.626 27.6763C35.4475 28.0143 36.194 28.5117 36.8221 29.1398C37.4503 29.7679 37.9478 30.5143 38.2859 31.3358C38.6239 32.1573 38.7959 33.0376 38.7917 33.9259C38.7917 37.6819 35.7918 40.6827 32.0358 40.6819C31.1475 40.6859 30.2673 40.5139 29.4459 40.1758C28.6245 39.8376 27.8782 39.3401 27.2502 38.712C26.6222 38.0838 26.1249 37.3374 25.7869 36.5159C25.449 35.6945 25.2772 34.8142 25.2815 33.9259C25.2815 30.1699 28.2814 27.1712 32.0362 27.1708H32.0358ZM15.1039 30.9915C16.7495 30.9915 18.0379 32.2803 18.0383 33.9255C18.0383 35.5711 16.7503 36.8615 15.1043 36.8615C13.4592 36.8615 12.1704 35.5711 12.1708 33.9255C12.1708 32.2803 13.4596 30.9915 15.1047 30.9915H15.1039ZM48.8937 30.9915C50.5392 30.9915 51.8288 32.2795 51.8288 33.9255C51.8288 35.5715 50.5396 36.8615 48.8937 36.8615C47.2481 36.8615 45.9593 35.5711 45.9597 33.9255C45.9597 32.2803 47.2485 30.9915 48.8937 30.9915Z" fill="white"/>
<defs>
<radialGradient id="paint0_radial" cx="0" cy="0" r="1" gradientUnits="userSpaceOnUse" gradientTransform="translate(32 59.0009) scale(27.5 3)">
<stop/>
<stop offset="1" stop-opacity="0"/>
</radialGradient>
<radialGradient id="paint1_radial" cx="0" cy="0" r="1" gradientUnits="userSpaceOnUse" gradientTransform="translate(51.8848 59.2509) scale(7.11871 1.25)">
<stop stop-color="#181818"/>
<stop offset="1" stop-color="#181818" stop-opacity="0"/>
</radialGradient>
<radialGradient id="paint2_radial" cx="0" cy="0" r="1" gradientUnits="userSpaceOnUse" gradientTransform="translate(12.1152 59.2509) rotate(180) scale(7.11871 1.25)">
<stop stop-color="#181818"/>
<stop offset="1" stop-color="#181818" stop-opacity="0"/>
</radialGradient>
<linearGradient id="paint3_linear" x1="33.5036" y1="60.5108" x2="33.5036" y2="58.0007" gradientUnits="userSpaceOnUse">
<stop stop-color="#181818" stop-opacity="0"/>
<stop offset="0.5" stop-color="#181818"/>
<stop offset="1" stop-color="#181818" stop-opacity="0"/>
</linearGradient>
<linearGradient id="paint4_linear" x1="31.3771" y1="8.52102" x2="31.3771" y2="58.8984" gradientUnits="userSpaceOnUse">
<stop stop-color="#00A5FF"/>
<stop offset="1" stop-color="#0082C9"/>
</linearGradient>
<linearGradient id="paint5_linear" x1="32" y1="7.56848" x2="32" y2="59.4334" gradientUnits="userSpaceOnUse">
<stop stop-color="white"/>
<stop offset="0.0631645" stop-color="white" stop-opacity="0.235294"/>
<stop offset="0.950563" stop-color="white" stop-opacity="0.156863"/>
<stop offset="1" stop-color="white" stop-opacity="0.392157"/>
</linearGradient>
</defs>
</svg>
