<svg width="64" height="32" viewBox="0 0 64 32" fill="none" xmlns="http://www.w3.org/2000/svg">
<path d="M10 22.25C13.5899 22.25 16.5 19.3399 16.5 15.75C16.5 12.1601 13.5899 9.25 10 9.25C6.41015 9.25 3.5 12.1601 3.5 15.75C3.5 19.3399 6.41015 22.25 10 22.25Z" stroke="#ABACAE" stroke-width="5.5"/>
<path d="M54 22.25C57.5899 22.25 60.5 19.3399 60.5 15.75C60.5 12.1601 57.5899 9.25 54 9.25C50.4101 9.25 47.5 12.1601 47.5 15.75C47.5 19.3399 50.4101 22.25 54 22.25Z" stroke="#ABACAE" stroke-width="5.5"/>
<path d="M32 27.25C38.3513 27.25 43.5 22.1013 43.5 15.75C43.5 9.39873 38.3513 4.25 32 4.25C25.6487 4.25 20.5 9.39873 20.5 15.75C20.5 22.1013 25.6487 27.25 32 27.25Z" stroke="#ABACAE" stroke-width="5.5"/>
</svg>
