<svg width="48" height="48" viewBox="0 0 48 48" fill="none" xmlns="http://www.w3.org/2000/svg">
<g clip-path="url(#clip0)">
<path opacity="0.2" d="M44 42.5005C43.9988 43.1635 41.8385 43.7992 37.9942 44.2679C34.1498 44.7367 28.9362 45 23.5 45C18.0638 45 12.8502 44.7367 9.00583 44.2679C5.16148 43.7992 3.00116 43.1635 3 42.5005C2.99943 42.1722 3.52925 41.847 4.55922 41.5437C5.58918 41.2402 7.09911 40.9646 9.00277 40.7324C10.9064 40.5002 13.1665 40.316 15.654 40.1903C18.1414 40.0647 20.8076 40 23.5 40C26.1924 40 28.8586 40.0647 31.3461 40.1903C33.8335 40.316 36.0936 40.5002 37.9972 40.7324C39.9009 40.9646 41.4108 41.2402 42.4408 41.5437C43.4707 41.847 44.0006 42.1722 44 42.5005Z" fill="url(#paint0_radial)"/>
<g opacity="0.7">
<path opacity="0.4" d="M46.5 39.9376H40.4802V46H46.5V39.9376Z" fill="url(#paint1_radial)"/>
<path opacity="0.4" d="M0.75 46H6.76976V39.9376H0.75V46Z" fill="url(#paint2_radial)"/>
<path opacity="0.4" d="M40.4802 39.9376H6.76976V46H40.4802V39.9376Z" fill="url(#paint3_linear)"/>
</g>
<rect x="5" y="5" width="38" height="38" rx="4" fill="url(#paint4_linear)"/>
<rect x="4.5" y="4.5" width="39" height="39" rx="4.5" stroke="#555761" stroke-opacity="0.5"/>
<rect x="5" y="5" width="38" height="36" rx="4" fill="url(#paint5_linear)"/>
<rect x="4.5" y="4.5" width="39" height="37" rx="4.5" stroke="#555761" stroke-opacity="0.5"/>
<rect x="5" y="5" width="38" height="34" rx="4" fill="url(#paint6_linear)"/>
<rect x="4.5" y="4.5" width="39" height="35" rx="4.5" stroke="#555761" stroke-opacity="0.5"/>
<rect opacity="0.35" x="5.5" y="5.5" width="37" height="33" rx="3.5" stroke="url(#paint7_linear)" stroke-linecap="round" stroke-linejoin="round"/>
<path d="M12 10.125V12.125C12 13.225 12.908 14.125 14 14.125C18.7739 14.125 23.3524 16.0214 26.728 19.3971C30.1037 22.7727 32 27.3511 32 32.125C32 33.225 32.908 34.125 34 34.125H36V32.125C36 26.2902 33.682 20.6945 29.5562 16.5687C25.4304 12.4429 19.8348 10.125 14 10.125H12ZM12 18.125V20.125C12 21.225 12.908 22.125 14 22.125C16.6522 22.125 19.1959 23.1786 21.0713 25.054C22.9467 26.9293 24 29.4728 24 32.125C24 33.225 24.908 34.125 26 34.125H28V32.125C28 28.412 26.5249 24.851 23.8994 22.2255C21.2739 19.6 17.713 18.125 14 18.125H12ZM16 26.125C14.9391 26.125 13.9215 26.5464 13.1714 27.2966C12.4212 28.0467 12 29.0641 12 30.125C12 31.1859 12.4212 32.2033 13.1714 32.9534C13.9215 33.7036 14.9391 34.125 16 34.125C17.0609 34.125 18.0785 33.7036 18.8286 32.9534C19.5788 32.2033 20 31.1859 20 30.125C20 29.0641 19.5788 28.0467 18.8286 27.2966C18.0785 26.5464 17.0609 26.125 16 26.125Z" fill="black" fill-opacity="0.15"/>
<path d="M12 10.125V12.125C12 13.225 12.908 14.125 14 14.125C18.7739 14.125 23.3524 16.0214 26.728 19.3971C30.1037 22.7727 32 27.3511 32 32.125C32 33.225 32.908 34.125 34 34.125H36V32.125C36 26.2902 33.682 20.6945 29.5562 16.5687C25.4304 12.4429 19.8348 10.125 14 10.125H12ZM12 18.125V20.125C12 21.225 12.908 22.125 14 22.125C16.6522 22.125 19.1959 23.1786 21.0713 25.054C22.9467 26.9293 24 29.4728 24 32.125C24 33.225 24.908 34.125 26 34.125H28V32.125C28 28.412 26.5249 24.851 23.8994 22.2255C21.2739 19.6 17.713 18.125 14 18.125H12ZM16 26.125C14.9391 26.125 13.9215 26.5464 13.1714 27.2966C12.4212 28.0467 12 29.0641 12 30.125C12 31.1859 12.4212 32.2033 13.1714 32.9534C13.9215 33.7036 14.9391 34.125 16 34.125C17.0609 34.125 18.0785 33.7036 18.8286 32.9534C19.5788 32.2033 20 31.1859 20 30.125C20 29.0641 19.5788 28.0467 18.8286 27.2966C18.0785 26.5464 17.0609 26.125 16 26.125Z" fill="black" fill-opacity="0.15" stroke="black" stroke-opacity="0.07"/>
<path d="M12 9.75V11.75C12 12.85 12.908 13.75 14 13.75C18.7739 13.75 23.3524 15.6464 26.728 19.0221C30.1037 22.3977 32 26.9761 32 31.75C32 32.85 32.908 33.75 34 33.75H36V31.75C36 25.9152 33.682 20.3195 29.5562 16.1937C25.4304 12.0679 19.8348 9.75 14 9.75H12ZM12 17.75V19.75C12 20.85 12.908 21.75 14 21.75C16.6522 21.75 19.1959 22.8036 21.0713 24.679C22.9467 26.5543 24 29.0978 24 31.75C24 32.85 24.908 33.75 26 33.75H28V31.75C28 28.037 26.5249 24.476 23.8994 21.8505C21.2739 19.225 17.713 17.75 14 17.75H12ZM16 25.75C14.9391 25.75 13.9215 26.1714 13.1714 26.9216C12.4212 27.6717 12 28.6891 12 29.75C12 30.8109 12.4212 31.8283 13.1714 32.5784C13.9215 33.3286 14.9391 33.75 16 33.75C17.0609 33.75 18.0785 33.3286 18.8286 32.5784C19.5788 31.8283 20 30.8109 20 29.75C20 28.6891 19.5788 27.6717 18.8286 26.9216C18.0785 26.1714 17.0609 25.75 16 25.75Z" fill="#333333"/>
<g opacity="0.4" filter="url(#filter0_f)">
<path d="M32.9214 31.8943C32.3707 36.4139 30.2443 38.0146 29.25 38.25C41.4115 37.5438 43.4767 24.3617 42.5588 26.4802C41.641 28.5988 37.5106 29.5404 35.216 29.5404C33.3803 29.5404 32.9214 31.1097 32.9214 31.8943Z" fill="#555761"/>
<path d="M32.9214 31.8943C32.3707 36.4139 30.2443 38.0146 29.25 38.25C41.4115 37.5438 43.4767 24.3617 42.5588 26.4802C41.641 28.5988 37.5106 29.5404 35.216 29.5404C33.3803 29.5404 32.9214 31.1097 32.9214 31.8943Z" stroke="#555761"/>
</g>
<g opacity="0.4" filter="url(#filter1_f)">
<path d="M35.1055 33.8805C34.6772 36.9877 33.0234 38.0882 32.25 38.25C41.7089 37.7645 43.3152 28.7018 42.6013 30.1583C41.8874 31.6148 38.6749 32.2621 36.8902 32.2621C35.4625 32.2621 35.1055 33.341 35.1055 33.8805Z" fill="#555761"/>
<path d="M35.1055 33.8805C34.6772 36.9877 33.0234 38.0882 32.25 38.25C41.7089 37.7645 43.3152 28.7018 42.6013 30.1583C41.8874 31.6148 38.6749 32.2621 36.8902 32.2621C35.4625 32.2621 35.1055 33.341 35.1055 33.8805Z" stroke="#555761"/>
</g>
<path d="M34.2635 32.6443C33.7739 37.1639 31.8839 38.7646 31 39C41.8102 38.2938 43.6459 25.1117 42.8301 27.2302C42.0142 29.3488 38.3428 30.2904 36.3031 30.2904C34.6714 30.2904 34.2635 31.8597 34.2635 32.6443Z" fill="url(#paint8_linear)"/>
<path d="M43.3383 27.3136C43.3457 27.2998 43.3457 27.3028 43.3373 27.3154C43.3377 27.3148 43.338 27.3142 43.3383 27.3136ZM42.4998 27.12C42.4998 27.1206 42.4999 27.1211 42.4999 27.1217C42.4982 27.1087 42.4992 27.1065 42.4998 27.12ZM30.8713 38.5168L31.0326 39.4989C36.6722 39.1305 39.9593 35.4986 41.7133 32.296C42.5907 30.694 43.0967 29.1805 43.3324 28.1921C43.446 27.7156 43.5089 27.3122 43.4989 27.0775C43.497 27.0328 43.4914 26.9062 43.428 26.7843C43.3936 26.7181 43.3004 26.5745 43.1058 26.5195C42.9023 26.4619 42.7409 26.543 42.6681 26.5928C42.5462 26.6762 42.4811 26.7965 42.4595 26.8365L42.4589 26.8375C42.4246 26.9009 42.3929 26.974 42.3635 27.0505C42.0333 27.9078 41.081 28.6035 39.8429 29.0893C38.6267 29.5665 37.2609 29.7904 36.3031 29.7904C35.2921 29.7904 34.6318 30.2919 34.2472 30.9084C33.8868 31.4861 33.7683 32.157 33.7636 32.6158C33.2793 37.028 31.4599 38.3601 30.8713 38.5168Z" stroke="#555761" stroke-opacity="0.5"/>
</g>
<defs>
<filter id="filter0_f" x="24.1348" y="20.7498" width="24.1151" height="22.9994" filterUnits="userSpaceOnUse" color-interpolation-filters="sRGB">
<feFlood flood-opacity="0" result="BackgroundImageFix"/>
<feBlend mode="normal" in="SourceGraphic" in2="BackgroundImageFix" result="shape"/>
<feGaussianBlur stdDeviation="2.5" result="effect1_foregroundBlur"/>
</filter>
<filter id="filter1_f" x="27.1476" y="24.4999" width="21.1024" height="19.2495" filterUnits="userSpaceOnUse" color-interpolation-filters="sRGB">
<feFlood flood-opacity="0" result="BackgroundImageFix"/>
<feBlend mode="normal" in="SourceGraphic" in2="BackgroundImageFix" result="shape"/>
<feGaussianBlur stdDeviation="2.5" result="effect1_foregroundBlur"/>
</filter>
<radialGradient id="paint0_radial" cx="0" cy="0" r="1" gradientUnits="userSpaceOnUse" gradientTransform="translate(23.5 42.5005) scale(20.5 2.5)">
<stop/>
<stop offset="1" stop-opacity="0"/>
</radialGradient>
<radialGradient id="paint1_radial" cx="0" cy="0" r="1" gradientUnits="userSpaceOnUse" gradientTransform="translate(40.4718 42.9688) scale(6.03113 3.0312)">
<stop stop-color="#181818"/>
<stop offset="1" stop-color="#181818" stop-opacity="0"/>
</radialGradient>
<radialGradient id="paint2_radial" cx="0" cy="0" r="1" gradientUnits="userSpaceOnUse" gradientTransform="translate(6.77815 42.9688) rotate(180) scale(6.03113 3.0312)">
<stop stop-color="#181818"/>
<stop offset="1" stop-color="#181818" stop-opacity="0"/>
</radialGradient>
<linearGradient id="paint3_linear" x1="24.8989" y1="46.024" x2="24.8989" y2="39.9371" gradientUnits="userSpaceOnUse">
<stop stop-color="#181818" stop-opacity="0"/>
<stop offset="0.5" stop-color="#181818"/>
<stop offset="1" stop-color="#181818" stop-opacity="0"/>
</linearGradient>
<linearGradient id="paint4_linear" x1="23.5837" y1="5.15027" x2="23.5837" y2="42.9731" gradientUnits="userSpaceOnUse">
<stop stop-color="#FAFAFA"/>
<stop offset="1" stop-color="#D4D4D4"/>
</linearGradient>
<linearGradient id="paint5_linear" x1="23.5837" y1="5.14236" x2="23.5837" y2="40.9745" gradientUnits="userSpaceOnUse">
<stop stop-color="#FAFAFA"/>
<stop offset="1" stop-color="#D4D4D4"/>
</linearGradient>
<linearGradient id="paint6_linear" x1="23.5837" y1="5.13446" x2="23.5837" y2="38.9759" gradientUnits="userSpaceOnUse">
<stop stop-color="#FAFAFA"/>
<stop offset="1" stop-color="#D4D4D4"/>
</linearGradient>
<linearGradient id="paint7_linear" x1="24" y1="6.64" x2="24" y2="37.36" gradientUnits="userSpaceOnUse">
<stop stop-color="white"/>
<stop offset="0.0416667" stop-color="white" stop-opacity="0.235294"/>
<stop offset="0.958333" stop-color="white" stop-opacity="0.156863"/>
<stop offset="1" stop-color="white" stop-opacity="0.392157"/>
</linearGradient>
<linearGradient id="paint8_linear" x1="36.8685" y1="27.0475" x2="36.8685" y2="38.9915" gradientUnits="userSpaceOnUse">
<stop stop-color="#FAFAFA"/>
<stop offset="1" stop-color="#D4D4D4"/>
</linearGradient>
<clipPath id="clip0">
<rect width="48" height="48" fill="white"/>
</clipPath>
</defs>
</svg>
